<svg width="34" height="27" viewBox="0 0 34 27" fill="none" xmlns="http://www.w3.org/2000/svg">
<path d="M17.0964 11.6772C20.3222 11.6772 22.935 9.06436 22.935 5.83861C22.935 2.61286 20.3222 0 17.0964 0C13.8707 0 11.2578 2.61286 11.2578 5.83861C11.2578 9.06436 13.8707 11.6772 17.0964 11.6772Z" fill="#1F1F1F"/>
<path d="M21.419 10.58C20.2899 11.7735 18.3545 12.9993 15.8384 12.9993C13.8707 12.9993 12.1933 12.2251 11.1288 11.3864C4.74185 12.0639 0 12.9993 0 12.9993L0 15.5799H33.8381V10.2574C33.8381 10.2574 28.0317 10.2252 21.419 10.58Z" fill="#1F1F1F"/>
<path d="M30.1608 18.0962H33.7736V26.58H30.1608V23.5155H27.7415V26.58H24.1286V18.0962H27.7415V21.0317H30.1608V18.0962ZM16.4191 20.0639C16.4191 19.6123 16.032 19.4188 15.4836 19.4188C14.9352 19.4188 14.4514 19.6123 14.4514 20.0639C14.4514 20.5156 15.032 20.8059 15.4514 21.0317C15.903 20.7736 16.4191 20.5478 16.4191 20.0639ZM14.6127 23.2897C14.2901 23.5478 14.0965 23.7413 14.0965 24.1929C14.0965 24.7413 14.7417 24.9993 15.3223 24.9993C15.7417 24.9993 16.1288 24.8381 16.4513 24.6123L14.6127 23.2897ZM22.3545 21.7413C22.0964 22.8381 21.419 23.6768 20.6126 24.3542C21.5803 25.0639 22.548 25.7735 23.4512 26.5477H18.9352L18.3545 25.9993C17.4191 26.4832 16.161 26.6767 15.0643 26.6767C13.1933 26.6767 10.8708 26.1929 10.8708 24.1607C10.8708 23.0962 11.774 22.4187 12.774 22.0317C11.9998 21.5801 11.3869 21.0317 11.3869 20.1607C11.3869 18.3543 13.4837 17.8704 15.4836 17.8704C17.2578 17.8704 19.5803 18.064 19.5803 19.7414C19.5803 20.8381 18.0965 21.5801 17.0965 21.9026C17.5481 22.1607 17.9674 22.451 18.3868 22.7413C18.7094 22.451 18.9352 22.0962 19.0319 21.7091H22.3545V21.7413ZM3.64512 21.4188L5.9354 18.0962H10.0644L6.90313 22.0639L10.3547 26.58H6.03218L3.67738 22.9671H3.64512L3.64512 26.58H0.0322876L0.0322876 18.0962H3.64512V21.4188Z" fill="#1F1F1F"/>
</svg>
