<svg width="125" height="20" viewBox="0 0 125 20" fill="none" xmlns="http://www.w3.org/2000/svg">
<path d="M28.9644 6.86984C28.5056 6.62186 28.0593 6.49787 27.6253 6.49787C27.1169 6.49787 26.6458 6.62186 26.2366 6.88224C25.815 7.14262 25.4927 7.4898 25.2447 7.93617C25.0091 8.38254 24.8851 8.87851 24.8851 9.43647C24.8851 9.98203 25.0091 10.478 25.2447 10.9368C25.4803 11.3831 25.815 11.7427 26.2366 11.9907C26.6582 12.2511 27.1169 12.3751 27.6253 12.3751C28.0345 12.3751 28.4685 12.2635 28.9272 12.0527C29.3736 11.8419 29.7828 11.5567 30.1423 11.1847L31.6922 12.8462C31.1467 13.429 30.4895 13.8878 29.7332 14.2225C28.9768 14.5697 28.2329 14.7309 27.4889 14.7309C26.4846 14.7309 25.5794 14.4953 24.7735 14.0366C23.9676 13.5778 23.3352 12.9454 22.864 12.1395C22.4053 11.3459 22.1697 10.4408 22.1697 9.44887C22.1697 8.46933 22.4053 7.57659 22.8764 6.79545C23.3476 6.0143 23.9924 5.38194 24.8231 4.93557C25.6414 4.4892 26.5714 4.25362 27.5881 4.25362C28.3445 4.25362 29.076 4.41481 29.8076 4.72479C30.5391 5.03477 31.1591 5.46874 31.6674 6.0019L30.1423 7.84937C29.8076 7.4526 29.4232 7.11782 28.9644 6.86984Z" fill="#1F1F1F"/>
<path d="M40.3964 4.94714C41.2272 5.39351 41.8843 6.02586 42.3555 6.80701C42.8267 7.58816 43.0747 8.4809 43.0747 9.46043C43.0747 10.4524 42.8391 11.3451 42.3555 12.151C41.8843 12.9446 41.2272 13.577 40.3964 14.0481C39.5657 14.5069 38.6358 14.7425 37.6066 14.7425C36.5775 14.7425 35.6476 14.5193 34.8168 14.0605C33.9861 13.6017 33.3289 12.9694 32.8578 12.1634C32.3866 11.3575 32.1386 10.4648 32.1386 9.47283C32.1386 8.4933 32.3742 7.60056 32.8578 6.81941C33.3413 6.03826 33.9861 5.40591 34.8168 4.95954C35.6476 4.51317 36.5775 4.27758 37.6066 4.27758C38.6358 4.26518 39.5657 4.48837 40.3964 4.94714ZM36.2427 6.8938C35.8088 7.15419 35.474 7.51376 35.226 7.97253C34.978 8.4313 34.854 8.92727 34.854 9.48523C34.854 10.0432 34.978 10.5516 35.2384 11.0103C35.4988 11.4691 35.8336 11.8287 36.2551 12.0891C36.6767 12.3494 37.1355 12.4858 37.6438 12.4858C38.1522 12.4858 38.5986 12.3494 39.0201 12.0891C39.4417 11.8287 39.7641 11.4691 40.0121 11.0103C40.2477 10.5516 40.3717 10.0432 40.3717 9.48523C40.3717 8.93967 40.2477 8.4313 40.0121 7.97253C39.7765 7.51376 39.4417 7.15419 39.0201 6.8938C38.5986 6.63342 38.1398 6.50943 37.6438 6.50943C37.1479 6.50943 36.6643 6.63342 36.2427 6.8938Z" fill="#1F1F1F"/>
<path d="M51.4565 4.42642H53.9115V14.5441H51.6053L47.0176 8.49334V14.5441H44.5502V4.42642H46.8812L51.4937 10.5144L51.4565 4.42642Z" fill="#1F1F1F"/>
<path d="M55.0151 4.42642H57.8545L60.3839 11.7543L62.9257 4.42642H65.6412L61.6858 14.5441H58.9456L55.0151 4.42642Z" fill="#1F1F1F"/>
<path d="M66.7447 4.42642H74.7298V6.53428H69.3857V8.43135H74.209V10.5268L69.3857 10.5392V12.4487H74.8785V14.5565H66.7447V4.42642Z" fill="#1F1F1F"/>
<path d="M82.7148 14.5441L81.2393 11.7419H81.1773H79.2678V14.5441H76.6268V4.42642H81.1773C82.5164 4.42642 83.5579 4.7364 84.2895 5.35636C85.021 5.97631 85.393 6.85665 85.393 7.97258C85.393 8.72893 85.2442 9.38608 84.9342 9.94404C84.6243 10.502 84.1779 10.9236 83.5951 11.2336L85.703 14.5441H82.7148ZM79.2802 9.63407H81.2021C81.7353 9.63407 82.1568 9.49768 82.4544 9.22489C82.752 8.95211 82.9008 8.56774 82.9008 8.05937C82.9008 7.56341 82.752 7.19143 82.4544 6.93105C82.1568 6.67067 81.7477 6.53428 81.2021 6.53428H79.2802V9.63407Z" fill="#1F1F1F"/>
<path d="M92.4854 6.69553C91.8778 6.49714 91.357 6.39795 90.9479 6.39795C90.6255 6.39795 90.3651 6.45994 90.1791 6.58393C89.9931 6.70792 89.8939 6.88151 89.8939 7.1047C89.8939 7.32788 89.9807 7.51387 90.1419 7.66266C90.3031 7.81145 90.5015 7.93544 90.7495 8.02224C90.9851 8.10903 91.3446 8.23302 91.8158 8.38181C92.5225 8.5802 93.0929 8.79098 93.5517 8.98937C94.0104 9.18776 94.4072 9.49774 94.7296 9.91931C95.052 10.3409 95.2256 10.8864 95.2256 11.556C95.2256 12.2256 95.052 12.8083 94.6924 13.2795C94.3328 13.7506 93.8493 14.1102 93.2293 14.3582C92.6093 14.6062 91.915 14.7178 91.1586 14.7178C90.3155 14.7178 89.4848 14.569 88.654 14.2714C87.8233 13.9738 87.1041 13.5771 86.4966 13.0687L87.5257 10.998C88.0341 11.4444 88.6416 11.8164 89.336 12.114C90.0303 12.3991 90.6503 12.5479 91.1958 12.5479C91.5926 12.5479 91.9026 12.4735 92.1258 12.3371C92.349 12.1884 92.4606 11.9776 92.4606 11.7048C92.4606 11.4692 92.3738 11.2832 92.2126 11.122C92.039 10.9732 91.8282 10.8492 91.5802 10.7501C91.3322 10.6509 90.9727 10.5517 90.5015 10.4277C89.8071 10.2293 89.2368 10.0433 88.778 9.84491C88.3192 9.64653 87.9349 9.34895 87.6125 8.95217C87.2901 8.5554 87.1289 8.02224 87.1289 7.35268C87.1289 6.73272 87.2901 6.17476 87.6249 5.70359C87.9597 5.23242 88.4308 4.87285 89.0384 4.61247C89.6459 4.35208 90.3651 4.22809 91.171 4.22809C91.9026 4.22809 92.6217 4.32729 93.3409 4.53807C94.0476 4.74886 94.68 5.02164 95.2132 5.36882L94.2212 7.47667C93.6757 7.15429 93.1053 6.89391 92.4854 6.69553Z" fill="#1F1F1F"/>
<path d="M96.7134 4.42642H99.3545V14.5441H96.7134V4.42642Z" fill="#1F1F1F"/>
<path d="M101.462 4.42642H109.026L109.013 6.53428H104.103V8.79092H108.641V10.8988H104.103V14.5565H101.462V4.42642Z" fill="#1F1F1F"/>
<path d="M110.377 4.42642H113.018V14.5441H110.377V4.42642Z" fill="#1F1F1F"/>
<path d="M121.276 6.86917C120.83 6.62119 120.371 6.4972 119.937 6.4972C119.429 6.4972 118.958 6.62119 118.548 6.88157C118.127 7.14195 117.804 7.48913 117.556 7.9355C117.321 8.38187 117.197 8.87784 117.197 9.4358C117.197 9.98136 117.321 10.4773 117.556 10.9361C117.792 11.3825 118.127 11.742 118.548 11.99C118.97 12.2504 119.429 12.3744 119.937 12.3744C120.346 12.3744 120.78 12.2628 121.239 12.052C121.685 11.8412 122.095 11.5561 122.454 11.1841L124.004 12.8456C123.458 13.4283 122.801 13.8871 122.045 14.2219C121.289 14.569 120.545 14.7302 119.801 14.7302C118.796 14.7302 117.891 14.4947 117.085 14.0359C116.279 13.5771 115.647 12.9448 115.176 12.1388C114.717 11.3453 114.481 10.4401 114.481 9.4482C114.481 8.46866 114.717 7.57592 115.188 6.79478C115.659 6.00123 116.304 5.38127 117.135 4.9349C117.953 4.48853 118.883 4.25295 119.9 4.25295C120.656 4.25295 121.388 4.41414 122.119 4.72412C122.851 5.0341 123.471 5.46807 123.979 6.00123L122.454 7.84871C122.119 7.45193 121.735 7.11716 121.276 6.86917Z" fill="#1F1F1F"/>
<path d="M8.24544 2.07066L14.7054 5.80281V13.2547L8.24544 16.9869L1.78548 13.2547V5.79041L8.24544 2.07066ZM8.24544 0L0 4.76128V14.2838L8.24544 19.0451L16.4909 14.2838V4.76128L8.24544 0Z" fill="#1F1F1F"/>
<path d="M13.5771 12.7712L10.7749 14.3831V5.7781H13.5771V12.7712Z" fill="#1F1F1F"/>
<path d="M2.951 12.7959L5.74081 14.4078V11.4196H2.951V12.7959Z" fill="#1F1F1F"/>
<path d="M6.86913 15.0401L8.24543 15.846L9.65894 15.0401V8.60493H6.86913V15.0401Z" fill="#1F1F1F"/>
</svg>
