<svg width="73" height="17" viewBox="0 0 73 17" fill="none" xmlns="http://www.w3.org/2000/svg">
<g clip-path="url(#clip0)">
<path d="M23.0761 16.7703V16.464C23.3111 16.3108 23.4678 16.2342 23.6245 16.0811C23.6245 15.7748 23.7028 15.4685 23.7028 14.9324C23.7028 14.0901 23.7812 13.5541 23.7812 13.2477V10.7973C23.7812 10.4144 23.7812 9.95496 23.7812 9.41892C23.7812 9.11261 23.7028 8.88288 23.7028 8.80631C23.7028 8.72973 23.6245 8.72973 23.5462 8.72973C23.3895 8.65315 23.1544 8.65315 22.7627 8.65315V8.27027C23.3111 8.27027 23.8595 8.27027 24.2513 8.27027C24.5647 8.27027 25.0347 8.27027 25.6615 8.27027C26.2099 8.27027 26.68 8.27027 26.9934 8.27027C27.9335 8.27027 28.717 8.42342 29.3438 8.65315C29.8922 8.88288 30.4406 9.34234 30.8323 9.87838C31.2241 10.491 31.4591 11.1802 31.4591 12.0225C31.4591 12.6351 31.3808 13.1712 31.1457 13.7072C30.989 14.2432 30.6756 14.7027 30.3623 15.0856C30.0489 15.4685 29.6571 15.7748 29.2654 16.0045C28.8737 16.2342 28.482 16.3874 28.0902 16.5405C27.6985 16.6937 27.0717 16.6937 26.3666 16.6937C26.1316 16.6937 25.8182 16.6937 25.4265 16.6937C24.878 16.6937 24.5647 16.6937 24.408 16.6937C24.0946 16.7703 23.7028 16.7703 23.0761 16.7703ZM24.878 16.1577C25.3481 16.2342 25.7398 16.2342 26.2099 16.2342C26.68 16.2342 27.1501 16.1577 27.5418 16.0811C27.9335 16.0045 28.2469 15.8514 28.482 15.6982C28.717 15.545 29.0304 15.3153 29.2654 15.009C29.5005 14.7027 29.7355 14.3198 29.8138 13.7838C29.9705 13.3243 30.0489 12.7883 30.0489 12.2523C30.0489 11.4865 29.8922 10.8739 29.6571 10.3378C29.4221 9.8018 29.0304 9.41892 28.482 9.11261C27.9335 8.80631 27.2284 8.65315 26.2883 8.65315C25.8182 8.65315 25.3481 8.65315 24.7997 8.80631C24.7997 9.03604 24.7997 9.34234 24.7997 9.87838V10.7207V13.0946V14.9324C24.878 15.3153 24.878 15.6982 24.878 16.1577Z" fill="#11100D"/>
<path d="M32.0859 16.7703V16.3874C32.4776 16.3874 32.791 16.3874 32.9477 16.3108C33.026 16.3108 33.026 16.2342 33.1044 16.2342C33.1827 16.1577 33.1827 15.9279 33.1827 15.6216C33.1827 15.0856 33.1827 14.6261 33.1827 14.2432V11.1802C33.1827 10.6441 33.1827 10.1081 33.1827 9.57207C33.1827 9.18919 33.1044 8.95946 33.1044 8.88288C33.026 8.80631 32.9477 8.72973 32.8693 8.72973C32.791 8.72973 32.4776 8.65315 32.0075 8.65315V8.27027H33.7311H35.5331C36.3949 8.27027 37.0217 8.27027 37.4134 8.27027C37.8051 8.27027 38.1969 8.27027 38.5102 8.34685C38.4319 8.57658 38.4319 8.80631 38.3536 8.95946C38.3536 8.95946 38.2752 9.41892 38.2752 10.1847H37.8835C37.8835 9.8018 37.8835 9.41892 37.8051 9.11261C37.5701 9.03604 37.3351 8.95946 37.1 8.95946C36.6299 8.88288 36.1599 8.88288 35.7681 8.88288C35.6898 8.88288 35.4547 8.88288 35.1414 8.88288C34.828 8.88288 34.5929 8.88288 34.4363 8.95946C34.4363 9.41892 34.4363 9.8018 34.4363 10.1847V12.1757C34.9063 12.1757 35.3764 12.2523 35.7681 12.2523C36.2382 12.2523 36.6299 12.2523 37.0217 12.1757C37.1784 12.1757 37.2567 12.0991 37.2567 12.0991C37.2567 12.0225 37.3351 11.8694 37.3351 11.6396V11.2568H37.6484V11.3333V12.5586V13.9369H37.2567V13.5541C37.2567 13.2477 37.2567 13.0946 37.1784 13.018C37.1 12.9414 37.0217 12.8649 36.9433 12.8649C36.7083 12.7883 36.2382 12.7883 35.6114 12.7883C35.3764 12.7883 34.9847 12.7883 34.4363 12.7883C34.4363 13.1712 34.4363 13.7838 34.4363 14.5495C34.4363 15.3153 34.4363 15.8514 34.4363 16.2342C34.9847 16.3108 35.6898 16.3108 36.3949 16.3108C36.9433 16.3108 37.2567 16.3108 37.4917 16.2342C37.7268 16.2342 37.8835 16.1577 38.1185 16.0811C38.1969 15.9279 38.1969 15.7748 38.2752 15.545C38.3535 15.1622 38.4319 14.9324 38.4319 14.7793H38.8236C38.7453 15.6216 38.6669 16.2342 38.6669 16.7703C38.3535 16.8468 37.8835 16.8468 37.4134 16.8468L33.7311 16.7703C33.6528 16.7703 33.1044 16.7703 32.0859 16.7703Z" fill="#11100D"/>
<path d="M54.3361 16.7703V16.3874C54.7279 16.3874 55.0413 16.3874 55.198 16.3108C55.2763 16.3108 55.2763 16.2342 55.3546 16.2342C55.433 16.1577 55.433 15.9279 55.433 15.6216C55.433 15.0856 55.433 14.6261 55.433 14.2432V11.1802C55.433 10.6441 55.433 10.1081 55.433 9.57207C55.433 9.18919 55.3546 8.95946 55.3546 8.88288C55.2763 8.80631 55.198 8.72973 55.1196 8.72973C55.0413 8.72973 54.7279 8.65315 54.2578 8.65315V8.27027H55.9814H57.7834C58.6452 8.27027 59.2719 8.27027 59.6637 8.27027C60.0554 8.27027 60.4471 8.27027 60.7605 8.34685C60.6822 8.57658 60.6822 8.80631 60.6038 8.95946C60.6038 8.95946 60.5255 9.41892 60.5255 10.1847H60.1337C60.1337 9.8018 60.1337 9.41892 60.0554 9.11261C59.8204 9.03604 59.5853 8.95946 59.3503 8.95946C58.8802 8.88288 58.4101 8.88288 58.0184 8.88288C57.9401 8.88288 57.705 8.88288 57.3916 8.88288C57.0783 8.88288 56.8432 8.88288 56.6865 8.95946C56.6865 9.41892 56.6865 9.8018 56.6865 10.1847V12.1757C57.1566 12.1757 57.6267 12.2523 58.0184 12.2523C58.4885 12.2523 58.8802 12.2523 59.2719 12.1757C59.4286 12.1757 59.507 12.0991 59.507 12.0991C59.507 12.0225 59.5853 11.8694 59.5853 11.6396V11.2568H59.9771V11.3333V12.5586V13.9369H59.5853V13.5541C59.5853 13.2477 59.5853 13.0946 59.507 13.018C59.4286 12.9414 59.3503 12.8649 59.2719 12.8649C59.0369 12.7883 58.5668 12.7883 57.9401 12.7883C57.705 12.7883 57.3133 12.7883 56.7649 12.7883C56.7649 13.1712 56.7649 13.7838 56.7649 14.5495C56.7649 15.3153 56.7649 15.8514 56.7649 16.2342C57.3133 16.3108 58.0184 16.3108 58.7235 16.3108C59.2719 16.3108 59.5853 16.3108 59.8204 16.2342C60.0554 16.2342 60.2121 16.1577 60.4471 16.0811C60.5255 15.9279 60.5255 15.7748 60.6038 15.545C60.6822 15.1622 60.7605 14.9324 60.7605 14.7793H61.1522C61.0739 15.6216 60.9956 16.2342 60.9956 16.7703C60.6822 16.8468 60.2121 16.8468 59.742 16.8468L56.1381 16.7703C55.9031 16.7703 55.3546 16.7703 54.3361 16.7703Z" fill="#11100D"/>
<path d="M47.285 16.5405C47.3633 16.1577 47.3633 15.545 47.4417 14.7027H47.9118C47.9118 15.3153 47.9901 15.6216 47.9901 15.7748C48.0685 15.8514 48.1468 16.0045 48.3818 16.0811C48.5385 16.2342 48.8519 16.3108 49.1653 16.3874C49.4787 16.464 49.7921 16.5405 50.1055 16.5405C50.5755 16.5405 50.9673 16.464 51.359 16.2342C51.7507 16.0811 51.9858 15.7748 52.1425 15.4685C52.2991 15.1622 52.3775 14.8559 52.3775 14.473C52.3775 14.2432 52.2991 14.0135 52.2208 13.7838C52.1425 13.5541 51.9858 13.4009 51.8291 13.3243C51.6724 13.1712 51.4373 13.0946 51.2023 13.0946C51.0456 13.0946 50.7322 13.018 50.2621 12.9414C49.7921 12.8649 49.4003 12.7883 49.0086 12.7883C48.5385 12.6351 48.2252 12.482 47.9901 12.3288C47.7551 12.1757 47.5984 11.9459 47.4417 11.6396C47.285 11.3333 47.2067 11.027 47.2067 10.7207C47.2067 10.2613 47.3633 9.8018 47.5984 9.41892C47.8334 9.03604 48.3035 8.65315 48.7736 8.42342C49.322 8.19369 49.8704 8.04054 50.4972 8.04054C50.8889 8.04054 51.2806 8.11712 51.7507 8.19369C52.2208 8.27027 52.5342 8.42342 52.9259 8.57658C52.8476 8.80631 52.8476 9.11261 52.8476 9.34234C52.8476 9.57207 52.8476 9.8018 52.8476 10.2613H52.3775C52.3775 9.64865 52.3775 9.34234 52.2991 9.26577C52.2208 9.11261 52.0641 8.95946 51.8291 8.88288C51.359 8.65315 50.8889 8.5 50.4188 8.5C49.7921 8.5 49.2437 8.65315 48.9303 9.03604C48.5385 9.41892 48.3818 9.87838 48.3818 10.4144C48.3818 10.7207 48.4602 11.027 48.6169 11.1802C48.7736 11.3333 49.0086 11.4865 49.322 11.6396C49.557 11.7162 49.9488 11.7928 50.4972 11.8694C51.0456 11.9459 51.5157 12.0225 51.9858 12.0991C52.3775 12.1757 52.6909 12.3288 52.9259 12.482C53.161 12.6351 53.3176 12.8649 53.396 13.0946C53.5527 13.3243 53.5527 13.6306 53.5527 13.9369C53.5527 14.7027 53.161 15.3919 52.4558 16.0045C51.7507 16.6171 50.8106 16.9234 49.6354 16.9234C48.7736 17 47.9901 16.8468 47.285 16.5405Z" fill="#11100D"/>
<path d="M12.2643 16.3108H12.1076C11.4809 16.3108 11.3242 15.9279 10.6191 14.2432L7.17183 6.27928L7.09349 6.04955C7.01514 5.8964 6.9368 5.81982 6.85845 5.81982C6.7801 5.81982 6.70176 5.8964 6.62341 6.04955L6.54507 6.27928C6.46672 6.35586 6.46672 6.43243 6.38837 6.58559L6.31003 6.81532C6.07499 7.27478 5.9183 7.73423 5.68326 8.19369L3.41122 13.4009C2.07934 16.2342 2.07934 16.3108 0.904152 16.3108L0.825806 16.3874V16.7703L0.904152 16.8468C1.45257 16.8468 2.001 16.7703 2.62776 16.7703C3.33288 16.7703 3.8813 16.7703 4.50807 16.8468L4.58642 16.7703V16.3874L4.50807 16.3108H4.19468C3.33288 16.3108 3.17619 16.0811 3.17619 15.9279C3.17619 15.6982 3.25453 15.545 3.72461 14.473L4.27303 13.018C4.97815 13.018 6.46672 13.018 6.46672 13.018C6.70176 13.018 8.42537 13.018 8.89545 13.0946L9.44387 14.3964C9.91394 15.4685 9.99229 15.8514 9.99229 16.0811C9.99229 16.2342 9.8356 16.464 9.05214 16.464H8.73875L8.66041 16.3874V16.7703L8.73875 16.8468C9.52221 16.8468 10.2273 16.7703 11.0108 16.7703C11.6376 16.7703 11.6376 16.7703 12.2643 16.8468L12.3427 16.7703L12.2643 16.3108ZM6.54507 12.3288C6.38837 12.3288 5.21318 12.3288 4.58642 12.3288L6.62341 7.65766L8.66041 12.3288C8.11199 12.3288 6.54507 12.3288 6.54507 12.3288Z" fill="#11100D"/>
<path d="M46.8149 16.3874C46.6582 16.3874 46.5799 16.3874 46.5799 16.3108L46.5015 16.2342C46.4232 16.1577 46.1882 15.8514 45.7181 15.3153L44.1512 13.3243C43.7594 12.8649 43.5244 12.5586 43.446 12.4054C43.9945 12.2523 44.4645 12.0991 44.7779 11.8694C45.0913 11.6396 45.4047 11.4099 45.5614 11.027C45.7181 10.7207 45.7964 10.3378 45.7964 10.0315C45.7964 9.64865 45.7181 9.34234 45.483 9.03604C45.3263 8.72973 45.013 8.5 44.6996 8.34685C44.3078 8.19369 43.7594 8.11712 42.976 8.11712C42.8976 8.11712 42.5059 8.11712 41.8791 8.11712C41.409 8.11712 41.0173 8.11712 40.7823 8.11712H39.6071C39.2937 8.11712 39.0587 8.11712 38.9803 8.11712V8.5C39.3721 8.5 39.6854 8.5 39.7638 8.57658C39.8421 8.57658 39.9205 8.65315 39.9988 8.72973C40.0772 8.80631 40.0772 9.03604 40.0772 9.41892C40.0772 9.95495 40.0772 10.491 40.0772 11.027V13.7838C40.0772 14.8559 40.0772 15.3919 40.0772 15.4685C40.0772 15.7748 39.9988 16.0045 39.9988 16.0811C39.9205 16.1577 39.9205 16.1577 39.7638 16.2342C39.6854 16.2342 39.372 16.3108 38.902 16.3108V16.6937C39.8421 16.6937 40.4689 16.6171 40.8606 16.6171C41.3307 16.6171 41.8791 16.6171 42.4275 16.6937V16.3108C41.9575 16.3108 41.6441 16.3108 41.5657 16.2342C41.4874 16.2342 41.409 16.1577 41.3307 16.0811C41.2524 16.0045 41.2524 15.7748 41.2524 15.3919C41.2524 14.8559 41.2524 14.3198 41.2524 13.7838V11.1036C41.2524 10.0315 41.2524 9.41892 41.3307 9.34234C41.3307 9.18919 41.3307 8.95946 41.3307 8.72973C41.7224 8.57658 42.1142 8.57658 42.5842 8.57658C43.211 8.57658 43.7594 8.72973 44.0728 9.03604C44.3862 9.34234 44.5429 9.72522 44.5429 10.1847C44.5429 10.7207 44.3862 11.1802 43.9945 11.5631C43.6027 11.8694 43.0543 12.0991 42.3492 12.0991C42.2709 12.0991 42.1142 12.0991 41.8791 12.0991L41.8008 12.2523C42.1925 12.7117 42.5842 13.1712 43.0543 13.7072C43.2894 14.0135 43.6027 14.3964 43.9945 14.9324C44.6212 15.7748 45.0913 16.3874 45.3263 16.6937C45.6397 16.6937 45.9531 16.6171 46.1882 16.6171C46.3448 16.6171 46.5799 16.6171 46.8149 16.6171V16.3874Z" fill="#11100D"/>
<path d="M12.7344 6.04955V6.12613V6.2027V6.27928H12.8127H17.2785H17.3568C21.7442 6.27928 28.3253 6.12613 35.2197 5.28378C43.6027 4.28829 50.1055 2.52703 54.6495 0.0765766C54.7279 0.0765766 54.7279 0 54.6495 0C54.5712 0 54.4928 0 54.1795 0H52.9259H49.2437C43.9161 0 43.9161 0 43.8378 0C33.8095 5.51351 16.6517 6.04955 13.3612 6.04955H12.7344Z" fill="#555555"/>
<path d="M54.6495 0C54.5712 0 54.4928 0 54.1795 0H52.9259H51.4373C47.4417 1.68468 42.5059 3.13964 36.5516 4.21171C29.7355 5.43694 23.1544 5.97297 18.767 6.27928H18.6887L17.5135 6.35586C21.9009 6.35586 28.482 6.2027 35.2197 5.36036C43.6027 4.36486 50.1055 2.6036 54.6495 0.153153C54.7279 0.0765766 54.7279 0 54.6495 0Z" fill="#1F1F1F"/>
<path d="M71.1022 8.27027C70.6321 8.27027 70.2404 8.27027 69.7703 8.27027C69.3002 8.27027 68.7518 8.27027 68.2817 8.27027V8.65315C68.3601 8.65315 68.4384 8.65315 68.5168 8.65315C68.5951 8.65315 68.7518 8.65315 68.8302 8.72973C69.0652 8.80631 69.3002 8.95946 69.3786 9.4955C69.3786 9.4955 69.3786 10.6441 69.3786 10.9505L69.3002 15.4685C69.1435 15.3153 68.8302 15.009 68.6735 14.7793C68.3601 14.3964 67.89 13.7838 67.2632 13.0946L65.4613 10.9505L64.2077 9.41892C64.051 9.18919 63.816 8.88288 63.5026 8.42342C63.1892 8.42342 63.0325 8.42342 62.7975 8.42342C62.6408 8.42342 62.1707 8.42342 61.4656 8.42342V8.80631C61.779 8.80631 62.014 8.80631 62.0924 8.80631C62.1707 8.80631 62.2491 8.88288 62.3274 8.95946C62.4058 9.03604 62.4841 9.11261 62.5625 9.18919C62.5625 9.26577 62.5625 9.34234 62.5625 9.41892L62.4841 14.3198C62.4841 14.7027 62.4841 15.1622 62.4841 15.6982C62.4841 16.0045 62.4058 16.2342 62.4058 16.3108C62.4058 16.3874 62.3274 16.3874 62.2491 16.3874C62.0924 16.464 61.8574 16.464 61.3873 16.464V16.8468C61.9357 16.8468 62.4058 16.7703 62.8759 16.7703C63.2676 16.7703 63.6593 16.7703 64.051 16.8468V16.464C63.6593 16.464 63.3459 16.3874 63.1892 16.3874C63.1109 16.3874 63.1109 16.3108 63.0325 16.2342C63.0325 16.1577 62.9542 15.9279 62.9542 15.6216C62.9542 15.0856 62.8759 14.6261 62.8759 14.2432L62.9542 9.72523L67.0282 14.7027L67.8117 15.6982C67.9683 15.9279 68.2034 16.1577 68.5168 16.5405C68.6735 16.6937 68.8302 16.8468 68.9085 16.8468L69.7703 17C69.7703 15.3919 69.8486 14.3964 69.8486 13.8604V11.1036C69.8486 10.7207 69.8486 10.2613 69.8486 9.8018V9.72523C69.8486 9.26577 70.0837 8.95946 70.2404 8.88288C70.3187 8.80631 70.6321 8.80631 70.8671 8.80631V8.27027H71.1022Z" fill="#11100D"/>
<path d="M22.371 8.27027C21.9009 8.27027 21.5092 8.27027 21.0391 8.27027C20.569 8.27027 20.0206 8.27027 19.5505 8.27027V8.57658C19.6289 8.57658 19.7072 8.57658 19.7855 8.57658C19.8639 8.57658 20.0206 8.57658 20.0989 8.65315C20.334 8.72973 20.569 8.88288 20.6473 9.41892C20.6473 9.41892 20.6473 10.5676 20.6473 10.8739L20.569 15.3919C20.4123 15.2387 20.0989 14.9324 19.9422 14.7027C19.6289 14.3198 19.1588 13.7072 18.532 13.018L16.73 10.8739L15.4765 9.34234C15.3198 9.11261 15.0848 8.80631 14.7714 8.34685C14.458 8.34685 14.3013 8.34685 14.0663 8.34685C13.9096 8.34685 13.4395 8.34685 12.7344 8.34685V8.72973C13.0478 8.72973 13.2828 8.72973 13.3612 8.72973C13.4395 8.72973 13.5179 8.80631 13.5962 8.88288C13.6746 8.95946 13.7529 9.03604 13.8312 9.11261C13.8312 9.18919 13.8312 9.26577 13.8312 9.34234L13.7529 14.2432C13.7529 14.6261 13.7529 15.0856 13.7529 15.6216C13.7529 15.9279 13.6746 16.1577 13.6746 16.2342C13.6746 16.3108 13.5962 16.3108 13.5179 16.3108C13.3612 16.3874 13.1261 16.3874 12.6561 16.3874V16.7703C13.2045 16.7703 13.6746 16.6937 14.1446 16.6937C14.5364 16.6937 14.9281 16.6937 15.3198 16.7703V16.3874C14.9281 16.3874 14.6147 16.3108 14.458 16.3108C14.3797 16.3108 14.3797 16.2342 14.3013 16.1577C14.3013 16.0811 14.223 15.8514 14.223 15.545C14.223 15.009 14.1446 14.5495 14.1446 14.1667L14.223 9.64865L18.297 14.6261L19.0804 15.6216C19.2371 15.8514 19.4722 16.0811 19.7855 16.464C19.9422 16.6171 20.0989 16.7703 20.1773 16.7703L21.0391 16.9234C21.0391 15.3153 21.1174 14.3198 21.1174 13.7838V11.027C21.1174 10.6441 21.1174 10.1847 21.1174 9.72523V9.64865C21.1174 9.18919 21.3525 8.88288 21.5092 8.80631C21.5875 8.72973 21.9009 8.72973 22.1359 8.72973V8.27027H22.371Z" fill="#11100D"/>
<path d="M72.199 16.464V16.3874V16.3108C72.199 16.2342 72.199 16.1577 72.1207 16.1577C72.1207 16.0811 72.0423 16.0811 71.964 16.0811C72.0423 16.0811 72.0423 16.0811 72.0423 16.0045C72.1207 15.9279 72.199 15.8514 72.199 15.7748C72.199 15.6216 72.1207 15.545 72.0423 15.4685C71.964 15.4685 71.8857 15.3919 71.729 15.3919H71.3372V16.5405H71.5723V16.0811H71.729C71.8073 16.0811 71.8857 16.0811 71.964 16.0811C72.0423 16.0811 72.0423 16.2342 72.0423 16.3108V16.3874H72.2774L72.199 16.464C72.2774 16.464 72.2774 16.464 72.199 16.464ZM71.5723 15.545H71.729C71.8073 15.545 71.8857 15.545 71.964 15.6216C72.0423 15.6216 72.0423 15.6982 72.0423 15.7748C72.0423 15.8514 72.0423 15.9279 71.964 15.9279C71.8857 15.9279 71.8857 15.9279 71.8073 15.9279H71.6506V15.545H71.5723Z" fill="#11100D"/>
<path d="M72.5124 15.2387C72.2774 15.009 72.0423 14.9324 71.8073 14.9324C71.4939 14.9324 71.2589 15.009 71.1022 15.2387C70.8672 15.4685 70.7888 15.6982 70.7888 15.9279C70.7888 16.2342 70.8672 16.464 71.1022 16.6171C71.3372 16.8468 71.5723 16.9234 71.8073 16.9234C72.1207 16.9234 72.3557 16.8468 72.5124 16.6171C72.7475 16.3874 72.8258 16.1577 72.8258 15.9279C72.8258 15.6982 72.7475 15.4685 72.5124 15.2387ZM71.8073 16.8468C71.5723 16.8468 71.3372 16.7703 71.1805 16.6171C71.0238 16.464 70.9455 16.2342 70.9455 16.0045C70.9455 15.7748 71.0238 15.545 71.1805 15.3919C71.3372 15.2387 71.5723 15.1622 71.8073 15.1622C72.0423 15.1622 72.2774 15.2387 72.4341 15.3919C72.5908 15.545 72.6691 15.7748 72.6691 16.0045C72.6691 16.2342 72.5908 16.464 72.4341 16.6171C72.199 16.7703 72.0423 16.8468 71.8073 16.8468Z" fill="#11100D"/>
</g>
<defs>
<clipPath id="clip0">
<rect width="72" height="17" fill="white" transform="translate(0.825806)"/>
</clipPath>
</defs>
</svg>
