<svg width="108" height="17" viewBox="0 0 108 17" fill="none" xmlns="http://www.w3.org/2000/svg">
<path d="M0 8.67885V6.01603H2.66282V8.67885H0Z" fill="#1F1F1F"/>
<path d="M7.98846 8.67885V6.01603H10.6513V8.67885H7.98846Z" fill="#1F1F1F"/>
<path d="M16.0262 8.67889V6.01607H18.689V8.67889H16.0262Z" fill="#1F1F1F"/>
<path d="M22.3381 10.3061C22.3381 11.1444 22.486 11.6868 22.7326 11.9334C22.9298 12.1306 23.275 12.2785 23.8174 12.3279C23.9653 12.3279 24.2119 12.3279 24.5571 12.3279V13.0675H18.1466V12.3279C18.6397 12.3279 19.0342 12.2785 19.2808 12.2292C19.7739 12.1306 20.0697 11.8347 20.2177 11.3416C20.267 11.0951 20.3163 10.7006 20.3163 10.2075V0.591737C19.2315 0.641048 18.3932 0.986228 17.7521 1.67659C17.1604 2.31764 16.8152 3.35318 16.6673 4.7339L15.9769 4.63527L16.1248 0H26.5789L26.7268 4.63527L26.0364 4.7339C25.8885 3.35318 25.5433 2.36695 24.9516 1.67659C24.3105 0.986228 23.4722 0.641048 22.3874 0.591737V10.3061H22.3381Z" fill="#1F1F1F"/>
<path d="M24.0639 8.67889V6.01607H26.7268V8.67889H24.0639Z" fill="#1F1F1F"/>
<path d="M32.0524 8.67885V6.01603H34.7152V8.67885H32.0524Z" fill="#1F1F1F"/>
<path d="M51.7769 4.63515C51.5304 3.50098 51.2345 2.66269 50.8893 2.12026C50.2976 1.28197 49.5579 0.838168 48.6703 0.838168C48.1279 0.838168 47.6348 0.986102 47.2896 1.33128C46.8458 1.72577 46.5992 2.2682 46.5992 2.95856C46.5992 3.64892 46.8458 4.24066 47.3389 4.63515C47.6348 4.8817 48.2265 5.17757 49.1141 5.47344C50.3962 5.91724 51.2345 6.31173 51.6783 6.6076C52.6152 7.29796 53.059 8.23488 53.059 9.46766C53.059 10.6018 52.6646 11.5881 51.9249 12.377C51.2345 13.1167 50.3469 13.4619 49.3607 13.4619C48.8183 13.4619 48.3251 13.3633 47.832 13.166C47.6348 13.0674 47.2896 12.9195 46.8458 12.6236C46.6979 12.525 46.5499 12.4757 46.4513 12.4757C46.2541 12.4757 46.1061 12.5743 45.9582 12.7222C45.9089 12.8208 45.8103 12.9688 45.7116 13.1167H45.1199V8.53075H45.7116C45.9582 9.71422 46.2541 10.6018 46.6486 11.1936C47.2896 12.2291 48.1772 12.7222 49.2128 12.7222C49.8538 12.7222 50.3469 12.525 50.7907 12.1798C51.3331 11.6867 51.5797 11.0456 51.5797 10.2566C51.5797 9.27042 51.1852 8.58006 50.3469 8.08695C50.1004 7.93901 49.3607 7.64314 48.2265 7.24865C47.3882 6.95278 46.7472 6.6076 46.2541 6.21311C45.5637 5.62137 45.2185 4.78308 45.2185 3.69823C45.2185 2.56407 45.613 1.62715 46.3527 0.986102C46.9444 0.443677 47.7334 0.147808 48.5717 0.147808C49.0648 0.147808 49.5086 0.246431 50.0017 0.443677C50.199 0.542299 50.4948 0.690234 50.8893 0.936791C51.0373 1.03541 51.1359 1.03541 51.2345 1.03541C51.4318 1.03541 51.629 0.838168 51.8263 0.443677H52.3687V4.63515H51.7769Z" fill="#1F1F1F"/>
<path d="M53.5029 4.38841H57.4478V4.98015H57.1026C56.6095 4.98015 56.3136 5.12809 56.3136 5.37464C56.3136 5.47327 56.3629 5.67051 56.4616 5.91707L58.3354 10.8482L59.9627 6.26225C60.0613 5.96638 60.1599 5.67051 60.1599 5.52258C60.1599 5.1774 59.8641 4.98015 59.3216 4.98015H58.9271V4.38841H62.0338V4.98015H61.8365C61.59 4.98015 61.442 5.07877 61.2941 5.22671C61.1955 5.37464 61.0968 5.57189 60.9982 5.86776L57.8423 14.3C57.5464 15.089 57.2012 15.6314 56.8561 15.9766C56.4616 16.3218 56.0178 16.519 55.4753 16.519C55.0315 16.519 54.637 16.3711 54.2919 16.1245C53.8974 15.7794 53.7001 15.3849 53.7001 14.8917C53.7001 14.5959 53.7988 14.3493 53.9467 14.1521C54.1439 13.9055 54.3905 13.8069 54.6864 13.8069C55.0315 13.8069 55.3274 13.9548 55.4753 14.2014C55.574 14.3493 55.6233 14.5466 55.6233 14.7438C55.6233 15.0397 55.5247 15.2369 55.3274 15.4342C55.2288 15.5328 55.0315 15.6314 54.8343 15.6807C54.9822 15.8287 55.1795 15.9273 55.426 15.9273C55.7712 15.9273 56.1164 15.7794 56.3629 15.4835C56.6095 15.1876 56.9054 14.6452 57.2012 13.8069L57.3985 13.2152L54.785 6.21294C54.5877 5.67051 54.3905 5.32533 54.2426 5.22671C54.0946 5.07877 53.8481 4.98015 53.5029 4.98015H53.3549V4.38841H53.5029Z" fill="#1F1F1F"/>
<path d="M67.7539 4.38854V7.14998H67.1621C66.8662 5.57201 66.1266 4.78303 64.9431 4.78303C64.5486 4.78303 64.2034 4.93097 63.9076 5.17752C63.661 5.42408 63.5131 5.76926 63.5131 6.11444C63.5131 6.55824 63.7103 6.90342 64.0555 7.14998C64.2527 7.29791 64.5979 7.39654 65.0417 7.54447C66.0773 7.88965 66.8169 8.18552 67.1621 8.43208C67.8525 8.9745 68.1977 9.66486 68.1977 10.5032C68.1977 11.3908 67.9018 12.0811 67.3101 12.6235C66.8169 13.0673 66.1759 13.3139 65.3869 13.3139C64.9431 13.3139 64.4993 13.2153 64.1048 13.0673C63.9569 13.018 63.661 12.8701 63.2665 12.6235C63.1679 12.5742 63.0693 12.5249 63.02 12.5249C62.9213 12.5249 62.7734 12.7222 62.6748 13.1167H62.1324V9.91142H62.6748C62.872 10.7004 63.1186 11.2921 63.3651 11.6373C63.6117 11.9825 63.8583 12.2291 64.2034 12.4263C64.5486 12.6235 64.9431 12.7222 65.3376 12.7222C65.8307 12.7222 66.2252 12.5742 66.4718 12.2291C66.7183 11.9332 66.8663 11.588 66.8663 11.1442C66.8663 10.5525 66.6197 10.1087 66.0773 9.8128C65.7814 9.61555 65.239 9.4183 64.4007 9.12244C63.8583 8.92519 63.3651 8.72794 63.02 8.43208C62.4775 7.98827 62.1817 7.39654 62.1817 6.60755C62.1817 5.86788 62.4282 5.27615 62.9706 4.83234C63.4638 4.43785 64.0555 4.24061 64.7459 4.24061C65.3869 4.24061 65.9786 4.38854 66.5211 4.73372C66.6197 4.78303 66.7183 4.83234 66.8169 4.83234C66.9156 4.83234 67.0142 4.68441 67.1128 4.43785H67.7539V4.38854Z" fill="#1F1F1F"/>
<path d="M71.5016 5.0297V10.306C71.5016 10.9964 71.5509 11.4895 71.6495 11.7854C71.7974 12.2785 72.0933 12.525 72.5371 12.525C72.9809 12.525 73.2768 12.3278 73.4247 11.884C73.6219 11.4895 73.6713 10.9964 73.6713 10.4046V10.1581H74.3123V10.5033C74.3123 11.3909 74.1151 12.0812 73.7699 12.5743C73.4247 13.0675 72.833 13.314 72.0933 13.314C71.3536 13.314 70.8112 13.1168 70.4167 12.673C70.1702 12.3771 69.9729 11.9826 69.9236 11.5388C69.8743 11.1936 69.8743 10.7991 69.8743 10.306V5.0297H68.4936V4.48727C69.3812 4.29003 69.9729 3.94485 70.2688 3.45174C70.614 2.95862 70.8112 2.16964 70.9098 1.08479H71.4522V4.38865H74.0164V5.0297H71.5016Z" fill="#1F1F1F"/>
<path d="M81.8076 8.67876H76.6299C76.6299 9.91155 76.7779 10.7992 77.0244 11.3909C77.3696 12.2292 77.9614 12.6237 78.7996 12.6237C79.4407 12.6237 79.9831 12.3771 80.4269 11.8347C80.6735 11.5388 80.92 11.1443 81.1666 10.6512L81.709 10.9471C80.92 12.5251 79.8352 13.3633 78.5038 13.3633C77.5175 13.3633 76.6793 13.0182 76.0382 12.3278C75.2492 11.4895 74.8547 10.2567 74.8547 8.67876C74.8547 7.19942 75.2492 6.01594 76.0382 5.12834C76.6793 4.43798 77.4189 4.0928 78.3065 4.0928C79.5886 4.0928 80.5749 4.73385 81.2652 6.06526C81.6104 6.75562 81.8076 7.64322 81.8076 8.67876ZM80.0817 7.9884C80.0817 7.19942 79.9831 6.55837 79.8352 6.06526C79.5393 5.17765 79.0462 4.73385 78.4052 4.73385C77.6655 4.73385 77.1724 5.27627 76.8765 6.36113C76.7286 6.80493 76.6793 7.34735 76.6793 7.93909H80.0817V7.9884Z" fill="#1F1F1F"/>
<path d="M92.8041 13.0674V7.7418C92.8041 6.65695 92.7055 5.91728 92.5575 5.62141C92.3603 5.17761 92.0151 4.98036 91.5713 4.98036C91.0289 4.98036 90.6344 5.27623 90.2892 5.86797C90.092 6.21315 89.9933 6.55833 89.944 6.95282C89.8947 7.24869 89.8947 7.79111 89.8947 8.5801V10.947C89.8947 11.6374 89.9933 12.0812 90.1413 12.2291C90.2892 12.3771 90.4865 12.4757 90.881 12.4757H91.1768V13.0674H88.2674V8.03767C88.2674 7.15007 88.2674 6.60764 88.2181 6.36108C88.0702 5.42417 87.6757 4.98036 87.0347 4.98036C86.4922 4.98036 86.0977 5.27623 85.7526 5.91728C85.6046 6.21315 85.506 6.50902 85.4567 6.8542C85.4074 7.19938 85.3581 7.79111 85.3581 8.62941V10.9964C85.3581 11.6867 85.4074 12.1305 85.5553 12.2785C85.7033 12.4264 85.9498 12.525 86.295 12.525H86.5415V13.1167H82.4487V12.525H82.7446C83.0898 12.525 83.3363 12.4264 83.4842 12.2785C83.6322 12.0812 83.7308 11.6867 83.7308 10.9964V6.50902C83.7308 5.81866 83.6322 5.42417 83.4842 5.22692C83.3363 5.07899 83.0898 4.98036 82.7446 4.98036H82.5473V4.38863L85.2101 4.24069V5.76935C85.3581 5.47348 85.506 5.17761 85.7526 4.93105C86.2457 4.43794 86.7881 4.14207 87.4785 4.14207C88.514 4.14207 89.2537 4.73381 89.6975 5.86797C90.2399 4.73381 91.0289 4.14207 92.0151 4.14207C92.8534 4.14207 93.4945 4.48725 93.9383 5.1283C94.1355 5.47348 94.2834 5.86797 94.3328 6.31177C94.3821 6.65695 94.3821 7.05144 94.3821 7.49525V10.8977C94.3821 11.5881 94.4807 12.0319 94.6286 12.1798C94.7766 12.3278 95.0231 12.4264 95.3683 12.4264H95.5655V13.0181H92.8041V13.0674Z" fill="#1F1F1F"/>
<path d="M102.025 4.38854V7.14998H101.434C101.138 5.57201 100.398 4.78303 99.2146 4.78303C98.8201 4.78303 98.4749 4.93097 98.179 5.17752C97.9325 5.42408 97.7845 5.76926 97.7845 6.11444C97.7845 6.55824 97.9818 6.90342 98.327 7.14998C98.5242 7.29791 98.8694 7.39654 99.3132 7.54447C100.349 7.88965 101.088 8.18552 101.434 8.43208C102.124 8.9745 102.469 9.66486 102.469 10.5032C102.469 11.3908 102.173 12.0811 101.582 12.6235C101.088 13.0673 100.447 13.3139 99.6584 13.3139C99.2146 13.3139 98.7708 13.2153 98.3763 13.0673C98.2283 13.018 97.9325 12.8701 97.538 12.6235C97.4393 12.5742 97.3407 12.5249 97.2914 12.5249C97.1928 12.5249 97.0449 12.7222 96.9462 13.1167H96.4038V9.91142H96.9462C97.1435 10.7004 97.39 11.2921 97.6366 11.6373C97.8832 11.9825 98.1297 12.2291 98.4749 12.4263C98.8201 12.6235 99.2146 12.7222 99.6091 12.7222C100.102 12.7222 100.497 12.5742 100.743 12.2291C100.99 11.9332 101.138 11.588 101.138 11.1442C101.138 10.5525 100.891 10.1087 100.349 9.8128C100.053 9.61555 99.5104 9.4183 98.6721 9.12244C98.1297 8.92519 97.6366 8.72794 97.2914 8.43208C96.749 7.98827 96.4531 7.39654 96.4531 6.60755C96.4531 5.86788 96.6997 5.27615 97.2421 4.83234C97.7352 4.43785 98.327 4.24061 99.0173 4.24061C99.6584 4.24061 100.25 4.38854 100.793 4.73372C100.891 4.78303 100.99 4.83234 101.088 4.83234C101.187 4.83234 101.286 4.68441 101.384 4.43785H102.025V4.38854Z" fill="#1F1F1F"/>
<path d="M40.0409 8.67885V6.01603H42.7037V8.67885H40.0409Z" fill="#1F1F1F"/>
<path d="M104.54 8.67885V6.01603H107.203V8.67885H104.54Z" fill="#1F1F1F"/>
</svg>
