<svg xmlns="http://www.w3.org/2000/svg" viewBox="0 0 70.96 40.65">
  <title>gazduig_fooldal_allyos</title>
  <g id="Layer_2" data-name="Layer 2">
    <g id="Layer_2-2" data-name="Layer 2">
      <g>
        <path d="M37.81,26.36A2.33,2.33,0,1,1,35.48,24a2.33,2.33,0,0,1,2.33,2.33" style="fill: #22b473"/>
        <path d="M6.56,0A6.33,6.33,0,0,0,1.92,1.92,6.33,6.33,0,0,0,0,6.56V21.45a1,1,0,0,0,.33.78,1.05,1.05,0,0,0,.78.33,1.08,1.08,0,0,0,.8-.33,1,1,0,0,0,.33-.78V16.62h8.64v4.83a1,1,0,0,0,.34.78,1,1,0,0,0,.77.33,1.06,1.06,0,0,0,.8-.33,1,1,0,0,0,.33-.78V6.56A6.33,6.33,0,0,0,11.2,1.92,6.33,6.33,0,0,0,6.56,0m4.32,14.38H2.24V6.56A4.14,4.14,0,0,1,3.51,3.5,4.18,4.18,0,0,1,6.56,2.24a4.29,4.29,0,0,1,4.32,4.32Zm9,6H17.55V1.19a1.13,1.13,0,0,0-2.25,0v20.3a1.1,1.1,0,0,0,.33.8,1.12,1.12,0,0,0,.79.33h3.42a1.13,1.13,0,0,0,0-2.25m7.83-.07H25.38V1.13a1.13,1.13,0,1,0-2.25,0V21.42a1.12,1.12,0,0,0,.33.8,1.1,1.1,0,0,0,.8.33h3.41a1.13,1.13,0,1,0,0-2.25M69.1,6.73a1.05,1.05,0,0,0,1.53,0A1,1,0,0,0,71,6.06V5.57a5.2,5.2,0,0,0-1.77-3.94A6,6,0,0,0,65,0a6,6,0,0,0-4.22,1.63A5.2,5.2,0,0,0,59,5.57V6.64a5,5,0,0,0,.42,2,5,5,0,0,0,2.32,2.45,7.74,7.74,0,0,0,1.47.61c.22.08.46.15.73.22l.36.1.34.09.74.2a5.56,5.56,0,0,1,2.86,1.58,2.55,2.55,0,0,1,.57,1.68V17a3,3,0,0,1-1.13,2.38,4.15,4.15,0,0,1-5.38,0A3.07,3.07,0,0,1,61.14,17v-1.4a1,1,0,0,0-.32-.77,1,1,0,0,0-.78-.33,1,1,0,0,0-.75.33,1,1,0,0,0-.33.77V17a5.2,5.2,0,0,0,1.77,3.95A6,6,0,0,0,65,22.56a6,6,0,0,0,4.24-1.63A5.2,5.2,0,0,0,71,17V15.56a4.73,4.73,0,0,0-1-2.93,7.51,7.51,0,0,0-4.07-2.45l-.39-.11-.4-.1-.59-.15L64,9.64a6.93,6.93,0,0,1-1.09-.42,3,3,0,0,1-1.5-1.45,3,3,0,0,1-.25-1.13V5.57A3.07,3.07,0,0,1,62.26,3.2a3.91,3.91,0,0,1,2.69-1,4,4,0,0,1,2.71,1,3.06,3.06,0,0,1,1.11,2.37v.49a1,1,0,0,0,.33.67M50.44,0a6.18,6.18,0,0,0-4.53,1.88A6.15,6.15,0,0,0,44,6.4v9.76a6.4,6.4,0,1,0,12.79,0V6.4A6.15,6.15,0,0,0,55,1.88,6.17,6.17,0,0,0,50.44,0m4.21,16.16a4.2,4.2,0,0,1-4.21,4.22,4.23,4.23,0,0,1-4.22-4.22V6.4a4.06,4.06,0,0,1,1.24-3,4.21,4.21,0,0,1,6,0,4.12,4.12,0,0,1,1.22,3ZM40.71,0a1.13,1.13,0,0,0-.81.33,1.07,1.07,0,0,0-.33.79V12a4.34,4.34,0,0,1-4,4.34h-.27a4.36,4.36,0,0,1-4-4.34V1.13a1,1,0,0,0-.34-.79,1.06,1.06,0,0,0-.8-.33,1,1,0,0,0-.78.33,1,1,0,0,0-.34.79V12a6.4,6.4,0,0,0,1.59,4.28,5.71,5.71,0,0,0,3.64,2.22v3a1.06,1.06,0,0,0,.32.79,1.13,1.13,0,0,0,1.6,0,1.08,1.08,0,0,0,.34-.79v-3a5.74,5.74,0,0,0,3.64-2.22A6.48,6.48,0,0,0,41.83,12V1.13A1.11,1.11,0,0,0,40.71,0" style="fill: #262626"/>
        <g>
          <path d="M11.9,38.84l-.67-1.71H9.07l-.66,1.71H7.78l2.12-5.4h.53l2.12,5.4ZM11,36.57l-.62-1.67a7.28,7.28,0,0,1-.25-.78c-.06.24-.13.5-.23.78l-.64,1.67ZM9.71,32.94a5.74,5.74,0,0,0,.38-.55c.14-.22.25-.41.33-.56h.74v.07a5.7,5.7,0,0,1-.48.59,6.58,6.58,0,0,1-.56.54H9.71Z" style="fill: #262626"/>
          <path d="M14.81,34.73a2.36,2.36,0,0,1,.48.05l-.09.57a1.85,1.85,0,0,0-.44-.06,1.09,1.09,0,0,0-.84.4,1.44,1.44,0,0,0-.34,1v2.16H13v-4h.5l.07.75h0a1.71,1.71,0,0,1,.54-.61A1.24,1.24,0,0,1,14.81,34.73Z" style="fill: #262626"/>
          <path d="M16.39,34.81v2.61a1.06,1.06,0,0,0,.22.74.94.94,0,0,0,.71.24,1.13,1.13,0,0,0,.92-.34,1.72,1.72,0,0,0,.29-1.13V34.81h.61v4h-.5l-.09-.54h0a1.29,1.29,0,0,1-.52.46,1.84,1.84,0,0,1-.76.15,1.5,1.5,0,0,1-1.1-.35,1.44,1.44,0,0,1-.37-1.11V34.81Z" style="fill: #262626"/>
          <path d="M23,38.84V36.23a1,1,0,0,0-.22-.73.89.89,0,0,0-.7-.25,1.14,1.14,0,0,0-.93.35,1.72,1.72,0,0,0-.3,1.13v2.11h-.61V33.12h.61v1.73a3.74,3.74,0,0,1,0,.52h0a1.2,1.2,0,0,1,.51-.46,1.73,1.73,0,0,1,.76-.17,1.55,1.55,0,0,1,1.11.35,1.48,1.48,0,0,1,.37,1.12v2.63Z" style="fill: #262626"/>
          <path d="M27.09,38.84,27,38.27h0a1.7,1.7,0,0,1-.6.51,1.83,1.83,0,0,1-.75.13,1.33,1.33,0,0,1-.94-.31,1.09,1.09,0,0,1-.34-.87c0-.82.65-1.25,2-1.28l.69,0v-.25a1,1,0,0,0-.21-.7.82.82,0,0,0-.65-.22,2.58,2.58,0,0,0-1.14.31l-.19-.47a3.39,3.39,0,0,1,.65-.26,3,3,0,0,1,.72-.09,1.57,1.57,0,0,1,1.07.32,1.36,1.36,0,0,1,.34,1v2.75Zm-1.38-.43a1.25,1.25,0,0,0,.9-.31,1.19,1.19,0,0,0,.32-.88v-.36l-.61,0a2.33,2.33,0,0,0-1.05.23.68.68,0,0,0-.32.62.66.66,0,0,0,.2.51A.85.85,0,0,0,25.71,38.41Zm-.14-4.23a6.35,6.35,0,0,0,.38-.55c.13-.21.24-.4.32-.56H27v.08a4.65,4.65,0,0,1-.48.58,5.63,5.63,0,0,1-.55.55h-.41Z" style="fill: #262626"/>
          <path d="M31.15,38.84H28.23v-.42l2.2-3.14H28.37v-.47H31.1v.47l-2.17,3.09h2.22Z" style="fill: #262626"/>
          <path d="M36.08,38.84l-1.83-4.77h0a13.4,13.4,0,0,1,.05,1.35v3.42H33.7V33.46h.94l1.7,4.44h0l1.72-4.44H39v5.38H38.4V35.38c0-.4,0-.83.05-1.3h0l-1.84,4.76Z" style="fill: #262626"/>
          <path d="M42.66,38.84l-.12-.57h0a1.7,1.7,0,0,1-.6.51,1.83,1.83,0,0,1-.75.13,1.32,1.32,0,0,1-.94-.31,1.09,1.09,0,0,1-.34-.87c0-.82.65-1.25,1.95-1.28l.68,0v-.25a1,1,0,0,0-.2-.7.84.84,0,0,0-.65-.22,2.58,2.58,0,0,0-1.14.31l-.19-.47a3.39,3.39,0,0,1,.65-.26,2.94,2.94,0,0,1,.71-.09,1.55,1.55,0,0,1,1.07.32,1.36,1.36,0,0,1,.35,1v2.75Zm-1.38-.43a1.21,1.21,0,0,0,.89-.31,1.15,1.15,0,0,0,.33-.88v-.36l-.61,0a2.26,2.26,0,0,0-1,.23.66.66,0,0,0-.32.62.63.63,0,0,0,.2.51A.85.85,0,0,0,41.28,38.41Zm-.14-4.23c.11-.15.24-.33.38-.55s.24-.4.32-.56h.74v.08a5.76,5.76,0,0,1-.48.58,4.68,4.68,0,0,1-.56.55h-.4Z" style="fill: #262626"/>
          <path d="M46.74,37.74a1,1,0,0,1-.42.87,2,2,0,0,1-1.17.3,2.54,2.54,0,0,1-1.25-.25v-.57a3.07,3.07,0,0,0,.62.24,3,3,0,0,0,.64.08,1.49,1.49,0,0,0,.74-.15.51.51,0,0,0,.25-.47.48.48,0,0,0-.2-.4,3.57,3.57,0,0,0-.8-.4,5,5,0,0,1-.8-.36,1.32,1.32,0,0,1-.35-.36.88.88,0,0,1-.11-.47.9.9,0,0,1,.4-.78,1.84,1.84,0,0,1,1.1-.29,3.19,3.19,0,0,1,1.27.27l-.22.5a2.84,2.84,0,0,0-1.1-.25,1.24,1.24,0,0,0-.65.13.42.42,0,0,0-.22.38.4.4,0,0,0,.08.27.69.69,0,0,0,.27.22,5.17,5.17,0,0,0,.7.3,2.69,2.69,0,0,1,1,.52A.93.93,0,0,1,46.74,37.74Z" style="fill: #262626"/>
          <path d="M48.11,36.78a7.1,7.1,0,0,1,.49-.59l1.3-1.38h.72L49,36.53l1.75,2.31H50l-1.43-1.91-.46.4v1.51h-.6V33.12h.6v3c0,.14,0,.34,0,.63Z" style="fill: #262626"/>
          <path d="M52.94,38.91a1.88,1.88,0,0,1-1.41-.54A2.13,2.13,0,0,1,51,36.86a2.34,2.34,0,0,1,.48-1.55,1.61,1.61,0,0,1,1.29-.58,1.52,1.52,0,0,1,1.2.5,1.9,1.9,0,0,1,.44,1.32v.38H51.65A1.56,1.56,0,0,0,52,38a1.2,1.2,0,0,0,1,.37,3.25,3.25,0,0,0,1.29-.27v.54a2.71,2.71,0,0,1-.61.2A3.51,3.51,0,0,1,52.94,38.91Zm-.16-3.66a1,1,0,0,0-.78.31,1.53,1.53,0,0,0-.34.88h2.11a1.37,1.37,0,0,0-.26-.89A.9.9,0,0,0,52.78,35.25Zm-.46-1.07a4.7,4.7,0,0,0,.38-.55,5.32,5.32,0,0,0,.33-.56h.74v.08a5.76,5.76,0,0,1-.48.58,5.57,5.57,0,0,1-.56.55h-.41Z" style="fill: #262626"/>
          <path d="M57.12,38.91a1.65,1.65,0,0,1-.72-.14,1.41,1.41,0,0,1-.55-.45h0c0,.24,0,.46,0,.67v1.66h-.61V34.81h.5l.08.55h0a1.46,1.46,0,0,1,.55-.48,1.66,1.66,0,0,1,.72-.15,1.5,1.5,0,0,1,1.23.55,2.92,2.92,0,0,1,0,3.08A1.49,1.49,0,0,1,57.12,38.91ZM57,35.25a1.09,1.09,0,0,0-.9.35,1.73,1.73,0,0,0-.28,1.08v.14A2,2,0,0,0,56.13,38a1.09,1.09,0,0,0,.91.36,1,1,0,0,0,.82-.42,2,2,0,0,0,.3-1.17,1.88,1.88,0,0,0-.3-1.15A1,1,0,0,0,57,35.25Z" style="fill: #262626"/>
          <path d="M61.51,38.91a1.65,1.65,0,0,1-.72-.14,1.41,1.41,0,0,1-.55-.45h0a5.33,5.33,0,0,1,0,.67v1.66h-.61V34.81h.5l.08.55h0a1.46,1.46,0,0,1,.55-.48,1.66,1.66,0,0,1,.72-.15,1.5,1.5,0,0,1,1.23.55,2.92,2.92,0,0,1,0,3.08A1.49,1.49,0,0,1,61.51,38.91Zm-.09-3.66a1.1,1.1,0,0,0-.9.35,1.79,1.79,0,0,0-.28,1.08v.14A2,2,0,0,0,60.52,38a1.1,1.1,0,0,0,.91.36,1,1,0,0,0,.82-.42,2,2,0,0,0,.3-1.17,1.88,1.88,0,0,0-.3-1.15A1,1,0,0,0,61.42,35.25Z" style="fill: #262626"/>
        </g>
      </g>
    </g>
  </g>
</svg>
