<svg xmlns="http://www.w3.org/2000/svg" viewBox="0 0 124.4 25.98">
  <title>gazduig_fooldal_ekata</title>
  <g id="Layer_2" data-name="Layer 2">
    <g id="Layer_2-2" data-name="Layer 2">
      <path d="M124.4,1.21V24.86a.73.73,0,0,1-.73.73h-5a.73.73,0,0,1-.73-.73v-.57a13,13,0,0,1-19.33-9.94h6a7.06,7.06,0,1,0,0-2.67h-6A13,13,0,0,1,118,1.69V1.21a.73.73,0,0,1,.73-.73h5A.73.73,0,0,1,124.4,1.21ZM75.17,5.88V1.21A.73.73,0,0,1,75.9.48H97.09a.73.73,0,0,1,.73.73V5.88a.73.73,0,0,1-.73.73H90.77a.73.73,0,0,0-.73.72v4.35H83V7.33a.73.73,0,0,0-.73-.72H75.9A.73.73,0,0,1,75.17,5.88ZM90,14.35V24.84a.73.73,0,0,1-.73.73H83.69a.73.73,0,0,1-.73-.73V14.35ZM25.13,11.68V1.2a.73.73,0,0,1,.72-.73h5.34a.73.73,0,0,1,.73.73V8.37c0,.4.21.47.47.17L38.65,1a1.78,1.78,0,0,1,1.2-.56h6.64c.4,0,.52.25.26.56l-9,10.65ZM47.15,25c.26.3.15.54-.25.54H40.08A1.79,1.79,0,0,1,38.87,25L32.4,17.59c-.27-.3-.48-.22-.48.18v7.07a.73.73,0,0,1-.73.72H25.85a.72.72,0,0,1-.72-.72V14.35H37.76Zm-1-13.34a13,13,0,0,1,19.29-10V1.21a.73.73,0,0,1,.73-.73h5a.73.73,0,0,1,.72.73V11.68H66a7.06,7.06,0,0,0-13.88,0Zm25.7,2.67V24.86a.73.73,0,0,1-.72.73h-5a.73.73,0,0,1-.73-.73v-.55a13,13,0,0,1-19.29-10h6a7.06,7.06,0,0,0,13.86,0ZM0,24.84a.73.73,0,0,0,.73.72H20a.73.73,0,0,0,.73-.72V20.2a.73.73,0,0,0-.73-.72H7.44a.73.73,0,0,1-.73-.73V7.32a.73.73,0,0,1,.73-.73H20a.73.73,0,0,0,.73-.72V1.2A.73.73,0,0,0,20,.47H.73A.73.73,0,0,0,0,1.2ZM111.58,10.19A2.83,2.83,0,1,0,114.41,13,2.83,2.83,0,0,0,111.58,10.19ZM18,14.59a1,1,0,0,1-.95.95H9.63a1,1,0,0,1-1-.95V11.45a1,1,0,0,1,1-.95h7.44a1,1,0,0,1,.95.95Z" style="fill: #363990"/>
    </g>
  </g>
</svg>
