<svg xmlns="http://www.w3.org/2000/svg" xmlns:xlink="http://www.w3.org/1999/xlink" viewBox="0 0 112.45 31.03">
  <defs>
    <clipPath id="clip-path" transform="translate(0)">
      <circle cx="15.52" cy="15.52" r="15.52" style="fill: none"/>
    </clipPath>
  </defs>
  <title>gazduig_fooldal_insimu</title>
  <g id="Layer_2" data-name="Layer 2">
    <g id="Layer_2-2" data-name="Layer 2">
      <g>
        <path d="M100.28,29a2.14,2.14,0,0,0-.1-.22l-3.07-5.31-.18-.27c0,.14,0,.22,0,.29V28.8a1.42,1.42,0,0,0,0,.2h-.31a2.45,2.45,0,0,0,0-.27V22.92h.42c1.09,1.87,2.18,3.77,3.29,5.69.12-.1.08-.22.08-.32V22.92h.26v5.9a1.09,1.09,0,0,0,0,.18Z" transform="translate(0)" style="fill: #404041"/>
        <path d="M43.44,29c0-.1,0-.2,0-.29V22.9H45.6a4.63,4.63,0,0,1,.65,0,1.57,1.57,0,0,1,1.31,1.65A1.6,1.6,0,0,1,46,26.1H43.73v2.78s0,.08,0,.12Zm.3-3.16c.8,0,1.59.05,2.38,0a1.32,1.32,0,0,0,1.16-1.59,1.35,1.35,0,0,0-1.38-1.09H44l-.25,0Z" transform="translate(0)" style="fill: #404041"/>
        <path d="M85.22,29c0-.1,0-.2,0-.3V22.92h3.12l0,.22H85.53v2.7h2.39v.25H85.53V28.7h2.81l.09.3h-.06a.9.9,0,0,0-.22-.06H85.51a1.12,1.12,0,0,0-.23.06Z" transform="translate(0)" style="fill: #404041"/>
        <path d="M57.2,29l-.45-1.69H54.51L54.05,29h-.24c.18-.72.37-1.45.56-2.17.32-1.22.65-2.44,1-3.65,0-.09.06-.18.09-.27h.39l.35,1.31,1.23,4.6a1.16,1.16,0,0,1,0,.18Zm-1.55-5.79h0l-1,3.81h2.09Z" transform="translate(0)" style="fill: #404041"/>
        <path d="M110.16,29V23.3a.76.76,0,0,0,0-.14h-1.89v-.25h4.06l0,.24h-1.9c0,.12,0,.21,0,.29v5.34a.87.87,0,0,0,0,.22Z" transform="translate(0)" style="fill: #404041"/>
        <path d="M66.09,29V23.15h-1.9v-.24h4l0,.22H66.34V29Z" transform="translate(0)" style="fill: #404041"/>
        <path d="M76.21,29V23.05s0-.08,0-.13h.24V29Z" transform="translate(0)" style="fill: #404041"/>
        <path d="M85.28,29a1.12,1.12,0,0,1,.23-.06h2.64a.9.9,0,0,1,.22.06Z" transform="translate(0)" style="fill: #404041"/>
        <path d="M90.24,5.37c.35-.26.66-.53,1-.74A5.33,5.33,0,0,1,98.42,6a5.27,5.27,0,0,1,1,3.11v4.69a1.51,1.51,0,0,1-3,.12c0-.41,0-.81,0-1.21,0-1.19,0-2.38,0-3.58a2.3,2.3,0,0,0-4.57-.42,5.87,5.87,0,0,0,0,.59v4.5a1.51,1.51,0,1,1-3,0c0-1.24,0-2.47,0-3.71,0-.37,0-.74,0-1.11a2.29,2.29,0,0,0-2.19-2.2,2.32,2.32,0,0,0-2.42,2.36c0,1.5,0,3,0,4.51a2.28,2.28,0,0,1,0,.52,1.52,1.52,0,0,1-1.5,1.14,1.49,1.49,0,0,1-1.43-1.18,2.31,2.31,0,0,1-.05-.46c0-1.52,0-3,0-4.56a5.32,5.32,0,0,1,4.18-5.24A5.19,5.19,0,0,1,90,5.17Z" transform="translate(0)" style="fill: #2caac5"/>
        <path d="M43.41,10.93c0-.19,0-.38,0-.58V7.65c0-.11,0-.22,0-.33A1.51,1.51,0,0,1,45,6.1a1.54,1.54,0,0,1,1.36,1.51c0,.93,0,1.87,0,2.81a2.19,2.19,0,0,0,1.36,2.07,2.29,2.29,0,0,0,3.21-2c0-.45,0-.91,0-1.36a5.29,5.29,0,0,1,10.5-.92,4.88,4.88,0,0,1,.07.76c0,1.63,0,3.25,0,4.88a1.47,1.47,0,0,1-1,1.38,1.49,1.49,0,0,1-2-1.39c0-1.55,0-3.1,0-4.66a2.21,2.21,0,0,0-.77-1.74A2.28,2.28,0,0,0,54,9c0,.48,0,1,0,1.42a5.18,5.18,0,0,1-2.43,4.41,5.28,5.28,0,0,1-8.08-3.51C43.43,11.2,43.43,11.06,43.41,10.93Z" transform="translate(0)" style="fill: #4dbd9c"/>
        <path d="M112.45,5.24c0,.37,0,.75,0,1.13,0,1.43,0,2.87,0,4.3a5.21,5.21,0,0,1-4.56,5A5.09,5.09,0,0,1,103,13.58a5,5,0,0,1-1.06-3.15c0-1.69,0-3.37,0-5.06a1.54,1.54,0,0,1,1.25-1.51A1.51,1.51,0,0,1,104.85,5a3.05,3.05,0,0,1,.05.52c0,1.64,0,3.27,0,4.91A2.17,2.17,0,0,0,106,12.37a2.28,2.28,0,0,0,3.41-1.56,3.79,3.79,0,0,0,0-.58c0-1.64,0-3.27,0-4.91a1.46,1.46,0,0,1,1.15-1.44A1.49,1.49,0,0,1,112.45,5.24Z" transform="translate(0)" style="fill: #2caac5"/>
        <path d="M68.53,3.79A5.44,5.44,0,0,1,71.8,4.94a1.46,1.46,0,0,1,.57,1.5A1.42,1.42,0,0,1,71.29,7.6,1.34,1.34,0,0,1,70,7.31L69.58,7a1.73,1.73,0,0,0-1.33-.37.59.59,0,0,0-.57.39.58.58,0,0,0,.23.68,2,2,0,0,0,.51.29c.57.22,1.16.41,1.74.63a7.1,7.1,0,0,1,1.49.73,3,3,0,0,1,1.29,2,3.64,3.64,0,0,1-2.08,3.85,5.9,5.9,0,0,1-5.09-.08A4.61,4.61,0,0,1,64,13.47a1.52,1.52,0,0,1,.45-2.05,1.45,1.45,0,0,1,2,.36,2.5,2.5,0,0,0,2.4,1.1,1,1,0,0,0,1-.63.63.63,0,0,0-.14-.71,2.17,2.17,0,0,0-1-.57c-.49-.16-1-.31-1.48-.5a5.23,5.23,0,0,1-1.64-1,3.17,3.17,0,0,1-.18-4.42,3.9,3.9,0,0,1,2.34-1.2C68,3.84,68.25,3.82,68.53,3.79Z" transform="translate(0)" style="fill: #2caac5"/>
        <path d="M78.31,10.7c0,1,0,2.09,0,3.14a1.49,1.49,0,0,1-1,1.4,1.52,1.52,0,0,1-2-1.45c0-.57,0-1.13,0-1.7V7.68a1.51,1.51,0,0,1,3-.13V10.7Z" transform="translate(0)" style="fill: #2fabc5"/>
        <path d="M78.31,3.53a1.51,1.51,0,1,1-3,0,1.51,1.51,0,0,1,3,0Z" transform="translate(0)" style="fill: #2fabc5"/>
        <circle cx="44.88" cy="3.53" r="1.5" style="fill: #50be9d"/>
        <g>
          <g style="clip-path: url(#clip-path)">
            <polygon points="9.5 0 0 9.5 0 0 9.5 0" style="fill: #50be9d"/>
            <polygon points="10.05 0 0 10.05 0 9.5 9.5 0 10.05 0" style="fill: #50be9d"/>
            <polygon points="10.61 0 0 10.61 0 10.05 10.05 0 10.61 0" style="fill: #4ebd9d"/>
            <polygon points="11.16 0 0 11.16 0 10.61 10.61 0 11.16 0" style="fill: #4ebd9e"/>
            <polygon points="11.71 0 0 11.71 0 11.16 11.16 0 11.71 0" style="fill: #4fbc9e"/>
            <polygon points="12.27 0 0 12.27 0 11.71 11.71 0 12.27 0" style="fill: #4fbc9f"/>
            <polygon points="12.82 0 0 12.82 0 12.27 12.27 0 12.82 0" style="fill: #4ebb9f"/>
            <polygon points="13.37 0 0 13.37 0 12.82 12.82 0 13.37 0" style="fill: #4dbba0"/>
            <polygon points="13.92 0 0 13.92 0 13.37 13.37 0 13.92 0" style="fill: #4dbba0"/>
            <polygon points="14.48 0 0 14.48 0 13.92 13.92 0 14.48 0" style="fill: #4ebba0"/>
            <polygon points="15.03 0 0 15.03 0 14.48 14.48 0 15.03 0" style="fill: #4ebba1"/>
            <polygon points="15.58 0 0 15.58 0 15.03 15.03 0 15.58 0" style="fill: #4cbaa1"/>
            <polygon points="16.13 0 0 16.13 0 15.58 15.58 0 16.13 0" style="fill: #4cbaa2"/>
            <polygon points="16.69 0 0 16.69 0 16.13 16.13 0 16.69 0" style="fill: #4cbaa3"/>
            <polygon points="17.24 0 0 17.24 0 16.69 16.69 0 17.24 0" style="fill: #4cb9a3"/>
            <polygon points="17.79 0 0 17.79 0 17.24 17.24 0 17.79 0" style="fill: #4cb9a4"/>
            <polygon points="18.34 0 0 18.34 0 17.79 17.79 0 18.34 0" style="fill: #4bb8a4"/>
            <polygon points="18.9 0 0 18.9 0 18.34 18.34 0 18.9 0" style="fill: #4bb8a5"/>
            <polygon points="19.45 0 0 19.45 0 18.9 18.9 0 19.45 0" style="fill: #4ab8a5"/>
            <polygon points="20 0 0 20 0 19.45 19.45 0 20 0" style="fill: #4bb8a6"/>
            <polygon points="20.56 0 0 20.56 0 20 20 0 20.56 0" style="fill: #4bb8a6"/>
            <polygon points="21.11 0 0 21.11 0 20.56 20.56 0 21.11 0" style="fill: #49b7a7"/>
            <polygon points="21.66 0 0 21.66 0 21.11 21.11 0 21.66 0" style="fill: #49b7a7"/>
            <polygon points="22.21 0 0 22.21 0 21.66 21.66 0 22.21 0" style="fill: #49b7a8"/>
            <polygon points="22.77 0 0 22.77 0 22.21 22.21 0 22.77 0" style="fill: #49b7a8"/>
            <polygon points="23.32 0 0 23.32 0 22.77 22.77 0 23.32 0" style="fill: #47b7a9"/>
            <polygon points="23.87 0 0 23.87 0 23.32 23.32 0 23.87 0" style="fill: #47b6a9"/>
            <polygon points="24.43 0 0 24.43 0 23.87 23.87 0 24.43 0" style="fill: #47b6aa"/>
            <polygon points="24.98 0 0 24.98 0 24.43 24.43 0 24.98 0" style="fill: #47b6ab"/>
            <polygon points="25.53 0 0 25.53 0 24.98 24.98 0 25.53 0" style="fill: #47b6ac"/>
            <polygon points="26.08 0 0 26.08 0 25.53 25.53 0 26.08 0" style="fill: #45b5ac"/>
            <polygon points="26.64 0 0 26.64 0 26.08 26.08 0 26.64 0" style="fill: #45b5ad"/>
            <polygon points="26.76 0 26.97 0.22 0.22 26.97 0 26.76 0 26.64 26.64 0 26.76 0" style="fill: #45b5ad"/>
            <rect x="-5.19" y="13.54" width="37.84" height="0.39" transform="translate(-5.69 13.73) rotate(-45)" style="fill: #45b5ae"/>
            <rect x="-4.91" y="13.81" width="37.84" height="0.39" transform="translate(-5.8 14.01) rotate(-45)" style="fill: #45b5ae"/>
            <rect x="-4.63" y="14.09" width="37.84" height="0.39" transform="translate(-5.92 14.29) rotate(-45)" style="fill: #43b4af"/>
            <rect x="-4.36" y="14.37" width="37.84" height="0.39" transform="translate(-6.03 14.56) rotate(-45)" style="fill: #43b4af"/>
            <rect x="-4.08" y="14.64" width="37.84" height="0.39" transform="translate(-6.15 14.84) rotate(-45)" style="fill: #43b4b0"/>
            <rect x="-3.81" y="14.92" width="37.84" height="0.39" transform="translate(-6.26 15.11) rotate(-45)" style="fill: #43b4b0"/>
            <rect x="-3.53" y="15.2" width="37.84" height="0.39" transform="translate(-6.38 15.39) rotate(-45)" style="fill: #43b3b1"/>
            <rect x="-3.25" y="15.47" width="37.84" height="0.39" transform="translate(-6.49 15.67) rotate(-45)" style="fill: #41b3b1"/>
            <rect x="-2.98" y="15.75" width="37.84" height="0.39" transform="translate(-6.6 15.94) rotate(-45)" style="fill: #41b3b2"/>
            <rect x="-2.7" y="16.02" width="37.84" height="0.39" transform="translate(-6.72 16.22) rotate(-45)" style="fill: #41b3b2"/>
            <rect x="-2.42" y="16.3" width="37.84" height="0.39" transform="translate(-6.83 16.5) rotate(-45)" style="fill: #41b3b3"/>
            <rect x="-2.15" y="16.58" width="37.84" height="0.39" transform="translate(-6.95 16.77) rotate(-45)" style="fill: #3fb2b3"/>
            <rect x="-1.87" y="16.85" width="37.84" height="0.39" transform="translate(-7.06 17.05) rotate(-45)" style="fill: #3fb2b4"/>
            <rect x="-1.59" y="17.13" width="37.84" height="0.39" transform="translate(-7.18 17.33) rotate(-45)" style="fill: #3fb2b4"/>
            <polygon points="30.84 4.08 31.03 4.27 31.03 4.45 4.45 31.03 4.27 31.03 4.08 30.84 30.84 4.08" style="fill: #3fb2b5"/>
            <polygon points="31.03 5 5 31.03 4.45 31.03 31.03 4.45 31.03 5" style="fill: #3fb1b5"/>
            <polygon points="31.03 5.55 5.55 31.03 5 31.03 31.03 5 31.03 5.55" style="fill: #3db1b6"/>
            <polygon points="31.03 6.11 6.11 31.03 5.55 31.03 31.03 5.55 31.03 6.11" style="fill: #3cb1b7"/>
            <polygon points="31.03 6.66 6.66 31.03 6.11 31.03 31.03 6.11 31.03 6.66" style="fill: #3db1b7"/>
            <polygon points="31.03 7.21 7.21 31.03 6.66 31.03 31.03 6.66 31.03 7.21" style="fill: #3cb1b8"/>
            <polygon points="31.03 7.76 7.76 31.03 7.21 31.03 31.03 7.21 31.03 7.76" style="fill: #3db0b8"/>
            <polygon points="31.03 8.32 8.32 31.03 7.76 31.03 31.03 7.76 31.03 8.32" style="fill: #3ab0b8"/>
            <polygon points="31.03 8.87 8.87 31.03 8.32 31.03 31.03 8.32 31.03 8.87" style="fill: #3ab0b9"/>
            <polygon points="31.03 9.42 9.42 31.03 8.87 31.03 31.03 8.87 31.03 9.42" style="fill: #3ab0b9"/>
            <polygon points="31.03 9.98 9.98 31.03 9.42 31.03 31.03 9.42 31.03 9.98" style="fill: #3ab0ba"/>
            <polygon points="31.03 10.53 10.53 31.03 9.98 31.03 31.03 9.98 31.03 10.53" style="fill: #3aafba"/>
            <polygon points="31.03 11.08 11.08 31.03 10.53 31.03 31.03 10.53 31.03 11.08" style="fill: #38afbb"/>
            <polygon points="31.03 11.63 11.63 31.03 11.08 31.03 31.03 11.08 31.03 11.63" style="fill: #38afbc"/>
            <polygon points="31.03 12.19 12.19 31.03 11.63 31.03 31.03 11.63 31.03 12.19" style="fill: #38aebc"/>
            <polygon points="31.03 12.74 12.74 31.03 12.19 31.03 31.03 12.19 31.03 12.74" style="fill: #38aebc"/>
            <polygon points="31.03 13.29 13.29 31.03 12.74 31.03 31.03 12.74 31.03 13.29" style="fill: #36aebd"/>
            <polygon points="31.03 13.85 13.85 31.03 13.29 31.03 31.03 13.29 31.03 13.85" style="fill: #35aebd"/>
            <polygon points="31.03 14.4 14.4 31.03 13.85 31.03 31.03 13.85 31.03 14.4" style="fill: #35aebe"/>
            <polygon points="31.03 14.95 14.95 31.03 14.4 31.03 31.03 14.4 31.03 14.95" style="fill: #36adbe"/>
            <polygon points="31.03 15.5 15.5 31.03 14.95 31.03 31.03 14.95 31.03 15.5" style="fill: #35adbf"/>
            <polygon points="31.03 16.06 16.06 31.03 15.5 31.03 31.03 15.5 31.03 16.06" style="fill: #33adbf"/>
            <polygon points="31.03 16.61 16.61 31.03 16.06 31.03 31.03 16.06 31.03 16.61" style="fill: #33adc0"/>
            <polygon points="31.03 17.16 17.16 31.03 16.61 31.03 31.03 16.61 31.03 17.16" style="fill: #33adc0"/>
            <polygon points="31.03 17.71 17.71 31.03 17.16 31.03 31.03 17.16 31.03 17.71" style="fill: #33acc0"/>
            <polygon points="31.03 18.27 18.27 31.03 17.71 31.03 31.03 17.71 31.03 18.27" style="fill: #33acc1"/>
            <polygon points="31.03 18.82 18.82 31.03 18.27 31.03 31.03 18.27 31.03 18.82" style="fill: #31abc1"/>
            <polygon points="31.03 19.37 19.37 31.03 18.82 31.03 31.03 18.82 31.03 19.37" style="fill: #30abc2"/>
            <polygon points="31.03 19.93 19.93 31.03 19.37 31.03 31.03 19.37 31.03 19.93" style="fill: #30abc3"/>
            <polygon points="31.03 20.48 20.48 31.03 19.93 31.03 31.03 19.93 31.03 20.48" style="fill: #30abc3"/>
            <polygon points="31.03 21.03 21.03 31.03 20.48 31.03 31.03 20.48 31.03 21.03" style="fill: #30abc4"/>
            <polygon points="31.03 21.58 21.58 31.03 21.03 31.03 31.03 21.03 31.03 21.58" style="fill: #2daac4"/>
            <polygon points="31.03 22.14 22.14 31.03 21.58 31.03 31.03 21.58 31.03 22.14" style="fill: #2daac5"/>
            <polygon points="31.03 22.69 22.69 31.03 22.14 31.03 31.03 22.14 31.03 22.69" style="fill: #2caac5"/>
            <polygon points="22.69 31.03 31.03 22.69 31.03 31.03 22.69 31.03" style="fill: #2caac5"/>
          </g>
          <path d="M23.4,14.27l2.41,0h.92v1.42H23.78a.44.44,0,0,0-.46.26q-1.21,2-2.44,4.07l-.16.26-.16-.23c-.42-.7-.85-1.4-1.27-2.11l-.14-.19-1.53-2.59-.15.21-1.15,1.91a2.45,2.45,0,0,1-1.79,1.25,2.51,2.51,0,0,1-2.91-2,6.46,6.46,0,0,1-.06-1.08,1,1,0,0,0-.26-.71,1,1,0,0,0-1.18-.33,1.08,1.08,0,0,0-.75,1c0,.23,0,.46,0,.69a2.53,2.53,0,0,1-1.91,2.39l-.37.07H6.55A2.58,2.58,0,0,1,5,17.8a2.41,2.41,0,0,1-.68-1.65c0-.47,0-.94,0-1.41a.72.72,0,1,1,1.44,0c0,.44,0,.89,0,1.33a1.05,1.05,0,0,0,.72,1,1.09,1.09,0,0,0,1.22-.34A1.23,1.23,0,0,0,7.92,16a3.47,3.47,0,0,0,0-.56,2.55,2.55,0,0,1,2.17-2.53,2.5,2.5,0,0,1,2.14.69l.19.18c.13.21.27.42.38.64A2.68,2.68,0,0,1,13,15.53a5.36,5.36,0,0,0,0,.8,1.08,1.08,0,0,0,2,.25L17,13.35a1.45,1.45,0,0,1,.17-.26.54.54,0,0,1,.84,0,2.46,2.46,0,0,1,.17.27q1.2,2,2.39,4l.13.18,1-1.62,1-1.63Z" transform="translate(0)" style="fill: #fcfdff"/>
          <path d="M5.75,12.78a.72.72,0,0,1-.74.71.72.72,0,0,1,0-1.44A.72.72,0,0,1,5.75,12.78Z" transform="translate(0)" style="fill: #f9fcfb"/>
        </g>
      </g>
    </g>
  </g>
</svg>
