<svg xmlns="http://www.w3.org/2000/svg" viewBox="0 0 142.04 27.4">
  <title>gazduig_fooldal_netmetro</title>
  <g id="Layer_2" data-name="Layer 2">
    <g id="Layer_2-2" data-name="Layer 2">
      <g>
        <g>
          <path d="M25.86,17.35V5.07A1.09,1.09,0,0,0,24.77,4H10.07A1.09,1.09,0,0,0,9,5.07V17.35a1.09,1.09,0,0,0,1.09,1.09h14.7A1.09,1.09,0,0,0,25.86,17.35ZM15.89,5a.27.27,0,0,1,.27-.27h2.52A.27.27,0,0,1,19,5v.55a.28.28,0,0,1-.27.28H16.16a.28.28,0,0,1-.27-.28Zm-3,11.63a1.09,1.09,0,1,1-1.14-1.14A1.09,1.09,0,0,1,12.87,16.64Zm11.27,0A1.08,1.08,0,1,1,23,15.5,1.08,1.08,0,0,1,24.14,16.64Zm.22-3.21a.54.54,0,0,1-.54.54H11a.54.54,0,0,1-.54-.54V7.13A.54.54,0,0,1,11,6.59h12.8a.54.54,0,0,1,.54.54Z" style="fill: #e24752"/>
          <path d="M21.82,19.61H13a.29.29,0,0,0-.27.19L12.28,21a.29.29,0,0,0,.27.39h9.74a.29.29,0,0,0,.27-.39l-.47-1.2A.29.29,0,0,0,21.82,19.61Z" style="fill: #e24752"/>
          <path d="M34.81,26.61,32,19.2V1.31A1.09,1.09,0,0,0,30.87.22H4A1.09,1.09,0,0,0,2.88,1.31V19.2L0,26.61a.54.54,0,0,0,.51.74H7.94A.54.54,0,0,0,8.45,27l2.71-7a.55.55,0,0,0-.51-.75H4.93a.54.54,0,0,1-.55-.54V2.26a.55.55,0,0,1,.55-.55h25a.55.55,0,0,1,.54.55v16.4a.54.54,0,0,1-.54.54H24.19a.55.55,0,0,0-.51.75L26.39,27a.54.54,0,0,0,.51.35h7.4A.55.55,0,0,0,34.81,26.61Z" style="fill: #e24752"/>
          <path d="M11.29,24.37H23.55a.3.3,0,0,0,.27-.4l-.46-1.21a.29.29,0,0,0-.27-.18H11.76a.28.28,0,0,0-.27.18L11,24A.3.3,0,0,0,11.29,24.37Z" style="fill: #e24752"/>
          <path d="M24.54,25.74a.28.28,0,0,0-.27-.18H10.57a.29.29,0,0,0-.27.18L9.83,27a.29.29,0,0,0,.27.39H24.74A.29.29,0,0,0,25,27Z" style="fill: #e24752"/>
        </g>
        <g>
          <path d="M51.38,8.11v7.48H47.72V8.65A2,2,0,0,0,45.6,6.43c-1.34,0-2.26.78-2.26,2.51v6.65H39.69V3.41h3.65V4.55a4.16,4.16,0,0,1,3.48-1.48C49.28,3.07,51.38,4.82,51.38,8.11Z" style="fill: #e24752"/>
          <path d="M60.07,12.67a3.17,3.17,0,0,0,2.34-.93l2.92,1.68A6.16,6.16,0,0,1,60,15.93c-4.16,0-6.74-2.8-6.74-6.43a6.24,6.24,0,0,1,6.48-6.43A6.15,6.15,0,0,1,65.94,9.5,7.61,7.61,0,0,1,65.8,11H57.15A2.77,2.77,0,0,0,60.07,12.67Zm2.24-4.44a2.74,2.74,0,0,0-5.23,0Z" style="fill: #e24752"/>
          <path d="M72.28,6.92v4.31c0,1,.9,1.14,2.5,1v3.31c-4.77.49-6.16-.95-6.16-4.36V6.92h-2V3.41h2V1.1L72.28,0V3.41h2.5V6.92Z" style="fill: #e24752"/>
          <path d="M95.37,8.11v7.48H91.71V8.43c0-1.22-.58-2-1.75-2s-1.9.85-1.9,2.29v6.87H84.41V8.43c0-1.22-.59-2-1.76-2s-1.9.85-1.9,2.29v6.87H77.1V3.41h3.65V4.53A3.73,3.73,0,0,1,84,3.07a3.63,3.63,0,0,1,3.19,1.61,4,4,0,0,1,3.53-1.61C93.54,3.07,95.37,5.07,95.37,8.11Z" style="fill: #e24752"/>
          <path d="M104.06,12.67a3.17,3.17,0,0,0,2.34-.93l2.92,1.68A6.16,6.16,0,0,1,104,15.93c-4.16,0-6.74-2.8-6.74-6.43a6.24,6.24,0,0,1,6.48-6.43,6.15,6.15,0,0,1,6.18,6.43,7.61,7.61,0,0,1-.14,1.46h-8.65A2.77,2.77,0,0,0,104.06,12.67Zm2.24-4.44a2.74,2.74,0,0,0-5.23,0Z" style="fill: #e24752"/>
          <path d="M116.27,6.92v4.31c0,1,.9,1.14,2.5,1v3.31c-4.77.49-6.16-.95-6.16-4.36V6.92h-2V3.41h2V1.1L116.27,0V3.41h2.5V6.92Z" style="fill: #e24752"/>
          <path d="M128.4,3.17V7.31c-1.51-.25-3.66.36-3.66,2.77v5.51h-3.65V3.41h3.65V5.58A3.67,3.67,0,0,1,128.4,3.17Z" style="fill: #e24752"/>
          <path d="M129.13,9.5a6.46,6.46,0,1,1,6.45,6.43A6.38,6.38,0,0,1,129.13,9.5Zm9.25,0a2.8,2.8,0,1,0-5.6,0,2.8,2.8,0,1,0,5.6,0Z" style="fill: #e24752"/>
        </g>
        <g>
          <path d="M44.27,23.6c0,.91-.8,1.58-2,1.58A2.08,2.08,0,0,1,40.18,24l.47-.28a1.59,1.59,0,0,0,1.63,1c.78,0,1.43-.35,1.43-1,0-1.5-3.35-.64-3.35-2.64a1.69,1.69,0,0,1,1.88-1.57,2,2,0,0,1,1.89,1.11l-.47.26a1.45,1.45,0,0,0-1.42-.84c-.72,0-1.33.38-1.33,1C40.91,22.45,44.27,21.57,44.27,23.6Z" style="fill: #e24752"/>
          <path d="M45.39,17.73a.45.45,0,1,1,.44.44A.44.44,0,0,1,45.39,17.73Zm.17,1.78h.55v5.55h-.55Z" style="fill: #e24752"/>
          <path d="M51.31,25.06l-2.94-2.73v2.73h-.55V17.29h.55V22l2.81-2.52H52l-3,2.66,3.1,2.89Z" style="fill: #e24752"/>
          <path d="M57.85,22.31c0,.08,0,.17,0,.26h-5a2.26,2.26,0,0,0,2.35,2.08,2.13,2.13,0,0,0,1.92-1l.49.29a2.75,2.75,0,0,1-2.42,1.25,2.9,2.9,0,1,1,0-5.79A2.78,2.78,0,0,1,57.85,22.31Zm-5-.28h4.46a2.16,2.16,0,0,0-2.16-2.11A2.24,2.24,0,0,0,52.82,22Z" style="fill: #e24752"/>
          <path d="M61.56,19.43V20a1.78,1.78,0,0,0-1.85,2v3.09h-.56V19.51h.56V20.6A1.85,1.85,0,0,1,61.56,19.43Z" style="fill: #e24752"/>
          <path d="M65.08,19.43V20a1.79,1.79,0,0,0-1.85,2v3.09h-.55V19.51h.55V20.6A1.87,1.87,0,0,1,65.08,19.43Z" style="fill: #e24752"/>
          <path d="M71.11,22.31c0,.08,0,.17,0,.26h-5a2.26,2.26,0,0,0,2.35,2.08,2.13,2.13,0,0,0,1.92-1l.49.29a2.75,2.75,0,0,1-2.42,1.25,2.9,2.9,0,1,1,2.7-2.87Zm-5-.28h4.46a2.16,2.16,0,0,0-2.16-2.11A2.24,2.24,0,0,0,66.07,22Z" style="fill: #e24752"/>
          <path d="M81.18,22.28a2.86,2.86,0,0,1-2.88,2.9,2.63,2.63,0,0,1-2.38-1.41v3.5h-.55V19.51h.55V20.8a2.61,2.61,0,0,1,2.38-1.41A2.86,2.86,0,0,1,81.18,22.28Zm-.56,0a2.35,2.35,0,1,0-2.35,2.37A2.33,2.33,0,0,0,80.62,22.28Z" style="fill: #e24752"/>
          <path d="M84.92,19.43V20a1.79,1.79,0,0,0-1.85,2v3.09h-.55V19.51h.55V20.6A1.87,1.87,0,0,1,84.92,19.43Z" style="fill: #e24752"/>
          <path d="M85.33,22.28a2.92,2.92,0,1,1,2.92,2.9A2.87,2.87,0,0,1,85.33,22.28Zm5.26,0a2.35,2.35,0,1,0-2.34,2.37A2.32,2.32,0,0,0,90.59,22.28Z" style="fill: #e24752"/>
          <path d="M98,19.51v5.28A2.56,2.56,0,0,1,95.2,27.4a2.74,2.74,0,0,1-2.61-1.33l.49-.28a2.1,2.1,0,0,0,2.12,1.07,2,2,0,0,0,2.21-2.07v-1A2.63,2.63,0,0,1,95,25.18a2.9,2.9,0,0,1,0-5.79,2.61,2.61,0,0,1,2.38,1.41V19.51Zm-.56,2.77a2.35,2.35,0,1,0-2.35,2.37A2.33,2.33,0,0,0,97.41,22.28Z" style="fill: #e24752"/>
          <path d="M102.08,19.43V20a1.79,1.79,0,0,0-1.85,2v3.09h-.56V19.51h.56V20.6A1.87,1.87,0,0,1,102.08,19.43Z" style="fill: #e24752"/>
          <path d="M108.31,19.51v5.55h-.56V23.8a2.68,2.68,0,0,1-2.39,1.38,2.9,2.9,0,0,1,0-5.79,2.67,2.67,0,0,1,2.39,1.37V19.51Zm-.56,2.77a2.35,2.35,0,1,0-2.34,2.37A2.32,2.32,0,0,0,107.75,22.28Z" style="fill: #e24752"/>
          <path d="M118,21.54v3.52h-.55V21.54a1.44,1.44,0,0,0-1.48-1.62c-.93,0-1.66.62-1.66,2v3.1h-.56V21.54c0-1.05-.56-1.62-1.42-1.62s-1.72.62-1.72,2v3.1H110V19.51h.55v1a2,2,0,0,1,1.79-1.08,1.76,1.76,0,0,1,1.73,1.13,2,2,0,0,1,1.85-1.13A1.94,1.94,0,0,1,118,21.54Z" style="fill: #e24752"/>
          <path d="M119.15,22.28a2.91,2.91,0,1,1,2.91,2.9A2.86,2.86,0,0,1,119.15,22.28Zm5.25,0a2.35,2.35,0,1,0-2.34,2.37A2.32,2.32,0,0,0,124.4,22.28Z" style="fill: #e24752"/>
          <path d="M129.92,24.51v.55H125.7v-.37L129,20.05h-3.22v-.54h4v.37l-3.31,4.63Z" style="fill: #e24752"/>
          <path d="M135.8,19.51l-2.34,5.55h-.67l-2.35-5.55h.6l2.08,5,2.1-5Z" style="fill: #e24752"/>
          <path d="M142,19.51v5.55h-.57V23.8a2.68,2.68,0,0,1-2.38,1.38,2.9,2.9,0,0,1,0-5.79,2.67,2.67,0,0,1,2.38,1.37V19.51Zm-.57,2.77a2.35,2.35,0,1,0-2.34,2.37A2.32,2.32,0,0,0,141.47,22.28Z" style="fill: #e24752"/>
        </g>
      </g>
    </g>
  </g>
</svg>
