<svg xmlns="http://www.w3.org/2000/svg" xmlns:xlink="http://www.w3.org/1999/xlink" viewBox="0 0 104.86 38.79">
  <defs>
    <clipPath id="clip-path">
      <path d="M32.42,16.21A16.21,16.21,0,1,1,16.21,0,16.21,16.21,0,0,1,32.42,16.21Z" style="fill: none"/>
    </clipPath>
  </defs>
  <title>gazduig_fooldal_pensum</title>
  <g id="Layer_2" data-name="Layer 2">
    <g id="Layer_2-2" data-name="Layer 2">
      <g>
        <path d="M32.42,16.21A16.21,16.21,0,1,1,16.21,0,16.21,16.21,0,0,1,32.42,16.21Z" style="fill: #25a8dc"/>
        <path d="M42.69,22.77H45.1a5.25,5.25,0,0,1-2,3.1A6.17,6.17,0,0,1,39.3,27,5.39,5.39,0,0,1,35,25.19a7.26,7.26,0,0,1-1.54-5A7.19,7.19,0,0,1,35,15.37a5.38,5.38,0,0,1,4.3-1.79,5.79,5.79,0,0,1,4.5,1.74,7.41,7.41,0,0,1,1.55,5v.53a.9.9,0,0,1,0,.34H36.88a3.26,3.26,0,0,0,.73,2.22,2.25,2.25,0,0,0,1.88.78,2.83,2.83,0,0,0,1.41-.34.69.69,0,0,0,.26-.17l.27-.27a1.05,1.05,0,0,1,.36-.38A1.46,1.46,0,0,1,42.69,22.77ZM36.88,19h4.93a3.14,3.14,0,0,0-.67-1.93,2.63,2.63,0,0,0-3.53,0A2.71,2.71,0,0,0,36.88,19Z" style="fill: #747577"/>
        <path d="M58.19,26.74H56.5a1.58,1.58,0,0,1-1.65-1.64V18.52a2,2,0,0,0-.7-1.7,2.56,2.56,0,0,0-1.57-.53,2.47,2.47,0,0,0-1.55.53,2,2,0,0,0-.68,1.7v8.22H47V19.19q0-3.29,1.72-4.4a7.55,7.55,0,0,1,3.79-1.21A7.21,7.21,0,0,1,56.4,14.7q1.79,1.11,1.79,4.49Z" style="fill: #747577"/>
        <path d="M59.83,22.48h3.29a1.8,1.8,0,0,0,.72,1.46,3.48,3.48,0,0,0,1.94.48,3.08,3.08,0,0,0,1.5-.34,1,1,0,0,0,.58-.92c0-.58-.68-1-2-1.3a10.61,10.61,0,0,1-1.31-.29,7.67,7.67,0,0,1-3.44-1.5,3,3,0,0,1-1-2.33,3.82,3.82,0,0,1,1.4-3,6,6,0,0,1,3.77-1.12,6.54,6.54,0,0,1,4,1.12,4.27,4.27,0,0,1,1.5,3.14H68.73A1.54,1.54,0,0,1,67.32,17l-.38-.39a2.62,2.62,0,0,0-1.6-.43,2.81,2.81,0,0,0-1.45.29,1,1,0,0,0-.44.87c0,.51.84.95,2.52,1.3a3.47,3.47,0,0,0,.51.15,2,2,0,0,0,.41.05,8.9,8.9,0,0,1,3.43,1.45,3,3,0,0,1,.92,2.32,3.86,3.86,0,0,1-1.55,3.29A7.3,7.3,0,0,1,65.34,27a6.38,6.38,0,0,1-4.11-1.11,3.87,3.87,0,0,1-1.4-3.24Z" style="fill: #747577"/>
        <path d="M84.05,13.87v7.55c0,2.29-.59,3.79-1.79,4.5A7.5,7.5,0,0,1,78.35,27a7.7,7.7,0,0,1-3.8-1.16c-1.15-.71-1.72-2.17-1.72-4.4V13.87h3.39V22.1a2,2,0,0,0,.67,1.69,2.43,2.43,0,0,0,1.55.53A2.48,2.48,0,0,0,80,23.79a2,2,0,0,0,.71-1.69V15.52a1.61,1.61,0,0,1,.46-1.16,1.56,1.56,0,0,1,1.18-.49Z" style="fill: #747577"/>
        <path d="M97,26.74H93.64V18.52a2,2,0,0,0-.7-1.7,2.56,2.56,0,0,0-1.57-.53,2.47,2.47,0,0,0-1.55.53,2,2,0,0,0-.68,1.7v8.22H85.76V19.19q0-3.29,1.71-4.4a7.62,7.62,0,0,1,3.8-1.21,9.35,9.35,0,0,1,2.18.25,4.56,4.56,0,0,1,1.93,1,4.35,4.35,0,0,1,1.72-.89,10,10,0,0,1,2.06-.32,7.18,7.18,0,0,1,3.91,1.12c1.2.74,1.79,2.24,1.79,4.49v7.55h-1.69a1.58,1.58,0,0,1-1.64-1.64V18.52a2,2,0,0,0-.7-1.7,2.59,2.59,0,0,0-1.58-.53,2.56,2.56,0,0,0-1.57.53,2,2,0,0,0-.7,1.7v8.22Z" style="fill: #747577"/>
        <path d="M28.5,20.36a5,5,0,0,0-.72-2.91,2.42,2.42,0,0,0-2.08-1,2.36,2.36,0,0,0-2,1A4.9,4.9,0,0,0,23,20.36a4.41,4.41,0,0,0,.72,2.75,2.41,2.41,0,0,0,2.09,1,2.32,2.32,0,0,0,2-1A4.65,4.65,0,0,0,28.5,20.36Z" style="fill: #0099d6"/>
        <g style="clip-path: url(#clip-path)">
          <path d="M23,31.51a1.66,1.66,0,0,1-1.65,1.65H19.7V19.44q0-3.39,2-4.62A8,8,0,0,1,26,13.58a7.11,7.11,0,0,1,2.44.46,4.58,4.58,0,0,1,2,1.33,7.7,7.7,0,0,1,1.45,4.84,7.83,7.83,0,0,1-1.45,4.93A4.53,4.53,0,0,1,26.67,27a4.91,4.91,0,0,1-2.13-.43A3.61,3.61,0,0,1,23,25.05ZM28.5,20.36a5,5,0,0,0-.72-2.91,2.42,2.42,0,0,0-2.08-1,2.36,2.36,0,0,0-2,1A4.9,4.9,0,0,0,23,20.36a4.41,4.41,0,0,0,.72,2.75,2.41,2.41,0,0,0,2.09,1,2.32,2.32,0,0,0,2-1A4.65,4.65,0,0,0,28.5,20.36Z" style="fill: #fff"/>
        </g>
        <path d="M74,37.75c-.11.11-.18.17-.24.24a2.23,2.23,0,0,1-1.78.79,6.73,6.73,0,0,1-1.19-.05,3.3,3.3,0,0,1-2.41-1.92A4.46,4.46,0,0,1,68,35.1a6.11,6.11,0,0,1,.2-2.13,3.39,3.39,0,0,1,2.58-2.52,4.21,4.21,0,0,1,3.23.47,2.9,2.9,0,0,1,1.33,1.87c.06.23,0,.28-.22.28h-.88a.71.71,0,0,1-.64-.33l-.13-.19a1.47,1.47,0,0,0-.9-.65,2.23,2.23,0,0,0-2.13.43,2.15,2.15,0,0,0-.55.88,4.12,4.12,0,0,0-.06,2.55,2,2,0,0,0,1.47,1.51A2.08,2.08,0,0,0,73.05,37a2,2,0,0,0,.76-1.17c0-.15,0-.21-.19-.21h-.73a.82.82,0,0,1-.6-.25,1.1,1.1,0,0,1-.24-1c0-.05.08-.1.14-.13a.47.47,0,0,1,.17,0H75c.31,0,.35,0,.35.35,0,1.24,0,2.49,0,3.73,0,.27-.06.33-.32.32a2.45,2.45,0,0,1-.38,0,.75.75,0,0,1-.55-.54C74.1,38,74.08,37.89,74,37.75Z" style="fill: #0099d6"/>
        <path d="M82.59,38.6l-.12,0H81.16c-.26,0-.35,0-.38-.3s0-.75-.08-1.13a6.54,6.54,0,0,0-.09-.89.82.82,0,0,0-1-.78H78c-.29,0-.3,0-.3.32V38.3c0,.27,0,.31-.33.31h-.93c-.39,0-.4,0-.4-.38V36c0-.77,0-1.55,0-2.33s0-1.39,0-2.09a.87.87,0,0,1,1-1c1,0,2,0,3.06,0a4.06,4.06,0,0,1,1,.13,1.86,1.86,0,0,1,1.48,1.67,2.43,2.43,0,0,1-.28,1.69,1.34,1.34,0,0,1-.59.54c-.06,0-.14.11-.14.16s.08.12.14.15a1.1,1.1,0,0,1,.56.72,5.07,5.07,0,0,1,.11.68c0,.44,0,.88.06,1.31a1.78,1.78,0,0,0,.17.82A.61.61,0,0,1,82.59,38.6ZM79,32H77.91a.19.19,0,0,0-.19.21c0,.55,0,1.11,0,1.66,0,.2.05.25.24.25.69,0,1.39,0,2.09-.05a.81.81,0,0,0,.78-.61,1.06,1.06,0,0,0-1-1.47Z" style="fill: #0099d6"/>
        <path d="M91,34.69a4.09,4.09,0,0,1-.39,2,3.4,3.4,0,0,1-3.11,2.08,4.66,4.66,0,0,1-1.62-.11,3.34,3.34,0,0,1-2.4-2.26,5.47,5.47,0,0,1,.14-4,3.38,3.38,0,0,1,2.74-2,4.49,4.49,0,0,1,1.93.11,3.42,3.42,0,0,1,2.41,2.21A4.26,4.26,0,0,1,91,34.69Zm-6.14-.08a8,8,0,0,0,.08.84,2.15,2.15,0,0,0,3,1.79,2,2,0,0,0,1.32-1.55,4.18,4.18,0,0,0,0-2.22A2.18,2.18,0,0,0,88.11,32a2.32,2.32,0,0,0-1.16-.2A1.91,1.91,0,0,0,85.16,33,3.61,3.61,0,0,0,84.84,34.61Z" style="fill: #0099d6"/>
        <path d="M98.14,33.45c0,.8,0,1.61,0,2.41A3.22,3.22,0,0,1,98,37a2.45,2.45,0,0,1-1.65,1.6,4.18,4.18,0,0,1-1.06.16,5.94,5.94,0,0,1-1.33-.07A2.49,2.49,0,0,1,92,37.24a3.19,3.19,0,0,1-.28-1.36c0-1.46,0-2.91,0-4.37a.93.93,0,0,1,.4-.8.62.62,0,0,1,.31-.14c.26,0,.52,0,.79,0a.16.16,0,0,1,.18.18,1.85,1.85,0,0,1,0,.23c0,1.52,0,3,0,4.55a4.53,4.53,0,0,0,.13,1,1.1,1.1,0,0,0,1,.84,2.29,2.29,0,0,0,1,0,1.18,1.18,0,0,0,.9-1,6.69,6.69,0,0,0,.08-1.18c0-1.38,0-2.76,0-4.14v-.17c0-.21.06-.26.27-.26h1.08c.27,0,.32.05.32.32v2.57Z" style="fill: #0099d6"/>
        <path d="M98.72,34.84c0-1.13,0-2.27,0-3.41a.8.8,0,0,1,.53-.79,1.1,1.1,0,0,1,.36-.07h2.83a3.13,3.13,0,0,1,1.13.24,1.85,1.85,0,0,1,1.07,1.1,3.59,3.59,0,0,1,0,2.48,1.91,1.91,0,0,1-1.55,1.29,5.45,5.45,0,0,1-.9.06h-1.46c-.34,0-.37,0-.37.39,0,.71,0,1.42,0,2.13,0,.32,0,.34-.34.35h-.93c-.35,0-.37,0-.37-.36V34.84Zm1.64-1.7h0V34c0,.2,0,.26.23.26.56,0,1.11,0,1.66,0a1,1,0,0,0,1-1.07c0-.1,0-.21,0-.32a.93.93,0,0,0-1-.87h-1.6c-.23,0-.28.06-.29.29Z" style="fill: #0099d6"/>
      </g>
    </g>
  </g>
</svg>
