<svg xmlns="http://www.w3.org/2000/svg" viewBox="0 0 200.04 31.47">
  <title>gazduig_fooldal_shoprenter</title>
  <g id="Layer_2" data-name="Layer 2">
    <g id="Layer_2-2" data-name="Layer 2">
      <g>
        <g>
          <path d="M46.61,14.29c0,.43.28.77.84,1a12.62,12.62,0,0,0,2.06.7,20.31,20.31,0,0,1,2.41.76,4.67,4.67,0,0,1,2,1.54,4.21,4.21,0,0,1,.85,2.7A4.36,4.36,0,0,1,53,24.8a7.6,7.6,0,0,1-4.57,1.32q-4.39,0-6.27-3A.81.81,0,0,1,42.43,22l2.1-1.18a.82.82,0,0,1,1.1.27,3,3,0,0,0,2.79,1.36c1.47,0,2.2-.45,2.2-1.37,0-.42-.28-.76-.84-1a12.77,12.77,0,0,0-2.05-.71,22.09,22.09,0,0,1-2.42-.8A4.93,4.93,0,0,1,43.26,17a4,4,0,0,1-.85-2.59,4.44,4.44,0,0,1,1.74-3.71,6.79,6.79,0,0,1,4.31-1.35,7.14,7.14,0,0,1,3.53.88,6.25,6.25,0,0,1,2,1.72.8.8,0,0,1-.26,1.19l-2.06,1.12a.79.79,0,0,1-1-.24,2.61,2.61,0,0,0-2.18-1,2.36,2.36,0,0,0-1.32.35A1.09,1.09,0,0,0,46.61,14.29Z" style="fill: #282828"/>
          <path d="M65.93,9.33a5.79,5.79,0,0,1,4.31,1.75,6.66,6.66,0,0,1,1.7,4.83v9a.8.8,0,0,1-.8.81h-2.5a.8.8,0,0,1-.8-.81V16.42A3.26,3.26,0,0,0,67,14a3.14,3.14,0,0,0-2.29-.84,3.38,3.38,0,0,0-2.54,1,4.1,4.1,0,0,0-1,3v7.78a.8.8,0,0,1-.8.81h-2.5a.8.8,0,0,1-.8-.81V5.59a.8.8,0,0,1,.8-.8h2.5a.8.8,0,0,1,.8.8v6A5.3,5.3,0,0,1,65.93,9.33Z" style="fill: #282828"/>
          <path d="M88.59,23.69a8.41,8.41,0,0,1-14.38-6,8.41,8.41,0,1,1,16.82,0A8.08,8.08,0,0,1,88.59,23.69Zm-9-2.81a4.15,4.15,0,0,0,3.07,1.24,4.21,4.21,0,0,0,3.08-1.24,4.27,4.27,0,0,0,1.24-3.15,4.27,4.27,0,0,0-1.24-3.15,4.17,4.17,0,0,0-3.08-1.24,4.12,4.12,0,0,0-3.07,1.24,4.3,4.3,0,0,0-1.23,3.15A4.3,4.3,0,0,0,79.54,20.88Z" style="fill: #282828"/>
          <path d="M102.56,9.33a7.26,7.26,0,0,1,5.49,2.43,8.45,8.45,0,0,1,2.27,6,8.43,8.43,0,0,1-2.27,6,7.26,7.26,0,0,1-5.49,2.43,6.14,6.14,0,0,1-5.15-2.32v6.06a.8.8,0,0,1-.8.81h-2.5a.8.8,0,0,1-.8-.81V10.58a.8.8,0,0,1,.8-.8h2.5a.8.8,0,0,1,.8.8v1.07A6.17,6.17,0,0,1,102.56,9.33ZM98.65,21a4.23,4.23,0,0,0,3.15,1.26A4.28,4.28,0,0,0,105,21a4.34,4.34,0,0,0,1.26-3.22A4.36,4.36,0,0,0,105,14.5a4.28,4.28,0,0,0-3.16-1.26,4.23,4.23,0,0,0-3.15,1.26,4.39,4.39,0,0,0-1.24,3.23A4.36,4.36,0,0,0,98.65,21Z" style="fill: #282828"/>
          <path d="M116.69,12.51a4.33,4.33,0,0,1,1.9-2.29,5.71,5.71,0,0,1,2-.7.81.81,0,0,1,.92.8V13.2a.8.8,0,0,1-.79.8,4.78,4.78,0,0,0-2.57.8,3.66,3.66,0,0,0-1.48,3.28v6.79a.8.8,0,0,1-.8.81h-2.5a.8.8,0,0,1-.8-.81V10.58a.8.8,0,0,1,.8-.8h2.5a.8.8,0,0,1,.8.8Z" style="fill: #282828"/>
          <path d="M128.11,19.41c.55,2,2,3,4.48,3a4.33,4.33,0,0,0,3.19-1.16.78.78,0,0,1,.94-.1l1.94,1.12a.81.81,0,0,1,.21,1.23,8,8,0,0,1-6.34,2.63,8.55,8.55,0,0,1-6.33-2.38,8.15,8.15,0,0,1-2.38-6,8.22,8.22,0,0,1,2.35-6,8.09,8.09,0,0,1,6-2.4A7.58,7.58,0,0,1,138,11.75a8.37,8.37,0,0,1,2.28,6,8,8,0,0,1-.06,1,.8.8,0,0,1-.8.72Zm-.06-3.18h8.11a3.87,3.87,0,0,0-1.45-2.41,4.14,4.14,0,0,0-2.5-.8,4.31,4.31,0,0,0-2.73.84A4,4,0,0,0,128.05,16.23Z" style="fill: #282828"/>
          <path d="M151.37,9.33a5.77,5.77,0,0,1,4.31,1.75,6.66,6.66,0,0,1,1.7,4.83v9a.8.8,0,0,1-.8.81h-2.5a.8.8,0,0,1-.8-.81V16.42a3.26,3.26,0,0,0-.86-2.43,3.14,3.14,0,0,0-2.29-.84,3.38,3.38,0,0,0-2.54,1,4.1,4.1,0,0,0-1,3v7.78a.8.8,0,0,1-.8.81h-2.5a.8.8,0,0,1-.8-.81V10.58a.8.8,0,0,1,.8-.8h2.5a.8.8,0,0,1,.8.8v1A5.3,5.3,0,0,1,151.37,9.33Z" style="fill: #282828"/>
          <path d="M169.31,13.72h-2.79v6.61a1.54,1.54,0,0,0,.42,1.21,1.82,1.82,0,0,0,1.2.43c.34,0,.72,0,1.16,0a.8.8,0,0,1,.82.8V25a.81.81,0,0,1-.74.8c-2.43.19-4.18-.1-5.23-.87s-1.73-2.36-1.73-4.55V13.72h-2a.8.8,0,0,1-.81-.8V10.58a.8.8,0,0,1,.81-.8h2V5.59a.8.8,0,0,1,.8-.8h2.5a.8.8,0,0,1,.8.8V9.78h2.79a.8.8,0,0,1,.81.8v2.34A.8.8,0,0,1,169.31,13.72Z" style="fill: #282828"/>
          <path d="M176.68,19.41c.55,2,2,3,4.48,3a4.33,4.33,0,0,0,3.19-1.16.78.78,0,0,1,.94-.1l2,1.12a.82.82,0,0,1,.2,1.23,8,8,0,0,1-6.34,2.63,8.55,8.55,0,0,1-6.33-2.38,8.15,8.15,0,0,1-2.38-6,8.22,8.22,0,0,1,2.35-6,8.09,8.09,0,0,1,6-2.4,7.58,7.58,0,0,1,5.77,2.42,8.37,8.37,0,0,1,2.28,6,8,8,0,0,1-.06,1,.79.79,0,0,1-.79.72Zm-.06-3.18h8.11a3.87,3.87,0,0,0-1.45-2.41,4.14,4.14,0,0,0-2.5-.8,4.31,4.31,0,0,0-2.73.84A4,4,0,0,0,176.62,16.23Z" style="fill: #282828"/>
          <path d="M195.2,12.51a4.29,4.29,0,0,1,1.9-2.29,5.71,5.71,0,0,1,2-.7.81.81,0,0,1,.92.8V13.2a.81.81,0,0,1-.79.8,4.78,4.78,0,0,0-2.57.8,3.66,3.66,0,0,0-1.48,3.28v6.79a.8.8,0,0,1-.8.81h-2.5a.8.8,0,0,1-.8-.81V10.58a.8.8,0,0,1,.8-.8h2.5a.8.8,0,0,1,.8.8Z" style="fill: #282828"/>
        </g>
        <g>
          <path d="M12.24,23.11A25.87,25.87,0,0,0,7,21l-3-1A21,21,0,0,1,1.5,18.87q-.44-.23-.81-.45L0,25.13a8,8,0,0,0,7.41,6.34h.76a7.55,7.55,0,0,0,4.48-1.29,4.19,4.19,0,0,0,1.69-3.48A4.43,4.43,0,0,0,12.24,23.11Z" style="fill: #6eb400"/>
          <path d="M23.18,28.35,21.27,9.85a2.82,2.82,0,0,0-2.81-2.53H7c-2.12,0-2.7,0-4.11,1.11A4.55,4.55,0,0,0,1.44,11.7,4.41,4.41,0,0,0,2.93,15c.88.83,2.64,1.41,5,2.24l1.8.64,1.68.6a23.75,23.75,0,0,1,3.09,1.35,8.58,8.58,0,0,1,1.37,1,13.51,13.51,0,0,1,1,1.11,6,6,0,0,1,.8,1.32,6.9,6.9,0,0,1,.55,1.52,9.54,9.54,0,0,1,.23,1.83,8,8,0,0,1-1.55,4.86h3.5A2.83,2.83,0,0,0,23.18,28.35Z" style="fill: #6eb400"/>
          <path d="M6.2,5.2A.86.86,0,0,0,7,4.76a5.26,5.26,0,0,1,9.13,0,.86.86,0,0,0,.75.44h.44A.86.86,0,0,0,18,3.94a7.37,7.37,0,0,0-13,0A.86.86,0,0,0,5.76,5.2Z" style="fill: #6eb400"/>
        </g>
      </g>
    </g>
  </g>
</svg>
