<svg xmlns="http://www.w3.org/2000/svg" viewBox="0 0 98.32 32.73">
  <title>gazduig_fooldal_szabokandallo</title>
  <g id="Layer_2" data-name="Layer 2">
    <g id="Layer_2-2" data-name="Layer 2">
      <g>
        <path d="M53.12,9.66a8.51,8.51,0,0,0-2.64-1.77,8,8,0,0,0-3.22-.66,7.88,7.88,0,0,0-3.21.66,8.23,8.23,0,0,0-2.63,1.77,8.55,8.55,0,0,0-1.77,2.65A8.17,8.17,0,0,0,39,15.54a8.09,8.09,0,0,0,.65,3.22,8.39,8.39,0,0,0,4.41,4.41,8.09,8.09,0,0,0,3.22.65A8.21,8.21,0,0,0,50,23.36a8.63,8.63,0,0,0,2.33-1.27V23.6h3.21V15.54a8,8,0,0,0-.66-3.23,8.24,8.24,0,0,0-1.78-2.65M52,17.5a5.45,5.45,0,0,1-1.09,1.61,5.17,5.17,0,0,1-1.61,1.1,5.08,5.08,0,0,1-4,0,5.23,5.23,0,0,1-2.69-2.71,4.84,4.84,0,0,1-.4-2,4.91,4.91,0,0,1,.4-2,5.17,5.17,0,0,1,2.69-2.7,5,5,0,0,1,4,0,5.15,5.15,0,0,1,1.61,1.09A5.45,5.45,0,0,1,52,13.55a4.91,4.91,0,0,1,.4,2,4.84,4.84,0,0,1-.4,2"/>
        <path d="M90.07,23.61h0"/>
        <path d="M90,23.61h0"/>
        <path d="M95.89,21.19a8.35,8.35,0,0,0,1.77-2.63,8,8,0,0,0,.66-3.22,8.26,8.26,0,0,0-.65-3.24,8.4,8.4,0,0,0-1.78-2.65,8.53,8.53,0,0,0-2.62-1.77,8.25,8.25,0,0,0-6.42,0,8.53,8.53,0,0,0-2.62,1.77,8.21,8.21,0,0,0-1.77,2.65,8.09,8.09,0,0,0-.66,3.24,8,8,0,0,0,.66,3.22,8.35,8.35,0,0,0,1.77,2.63A8.57,8.57,0,0,0,86.86,23a7.85,7.85,0,0,0,2.64.63l.48,0h.16l.48,0A7.85,7.85,0,0,0,93.26,23a8.57,8.57,0,0,0,2.63-1.77m-5.81-.78h0a4.87,4.87,0,0,1-2-.41,5.14,5.14,0,0,1-2.69-2.71,4.76,4.76,0,0,1-.4-1.95,4.88,4.88,0,0,1,.4-2,5.15,5.15,0,0,1,1.09-1.61,5.25,5.25,0,0,1,1.6-1.1,4.87,4.87,0,0,1,2-.41h0a4.84,4.84,0,0,1,2,.41,3.52,3.52,0,0,1,1.6,1.1,10.15,10.15,0,0,1,.91,1.67,9.8,9.8,0,0,1,.54,1.93,3.17,3.17,0,0,1-.36,1.95A5.14,5.14,0,0,1,92.06,20a4.84,4.84,0,0,1-2,.41"/>
        <path d="M76.3,12.24a8.52,8.52,0,0,0-1.76-2.61,8.27,8.27,0,0,0-2.62-1.76A8.35,8.35,0,0,0,66,7.68a8.33,8.33,0,0,0-2.33,1.26l0-8.94H60.5V15.45a8.13,8.13,0,0,0,.64,3.2A8.15,8.15,0,0,0,65.51,23a8,8,0,0,0,3.21.64,8,8,0,0,0,3.2-.64,8.25,8.25,0,0,0,2.62-1.75,8.44,8.44,0,0,0,1.76-2.62,8.12,8.12,0,0,0,.63-3.2,8.2,8.2,0,0,0-.63-3.21m-3,5.15a4.92,4.92,0,0,1-2.67,2.68,5,5,0,0,1-3.87,0A4.94,4.94,0,0,1,65.2,19a5.26,5.26,0,0,1-1.09-1.61,4.75,4.75,0,0,1-.4-1.94v0a4.63,4.63,0,0,1,.4-1.93A5.3,5.3,0,0,1,65.2,11.9a5,5,0,0,1,3.53-1.46,5,5,0,0,1,3.54,1.46,5,5,0,0,1,1.07,1.6,5,5,0,0,1,0,3.89"/>
        <path d="M33.8,7.23v0H22.89a.86.86,0,0,0,0-.16,7.87,7.87,0,0,0-.71-2.79,7.4,7.4,0,0,0-1.78-2.37A7.29,7.29,0,0,0,17.83.39,7.68,7.68,0,0,0,15,0a7.5,7.5,0,0,0-2.78.73A7.25,7.25,0,0,0,9.83,2.53a7.17,7.17,0,0,0-1.5,2.56A7.71,7.71,0,0,0,8,7.93S8,8,8,8A2.94,2.94,0,0,0,8,8.78a5.4,5.4,0,0,0,.18.89h0a5.91,5.91,0,0,0,.34.88,5.33,5.33,0,0,0,.54.88l0,.07h0c.18.22.38.44.59.65l.09.07L11,13.29a3.21,3.21,0,0,1,.45.58c.06.1.11.2.16.3s.1.24.14.36a4.69,4.69,0,0,1,.05,3.09,4.45,4.45,0,0,1-.9,1.56,4.58,4.58,0,0,1-1.47,1.1A4.72,4.72,0,0,1,6,20.49a4.09,4.09,0,0,1-.42-.16,6.79,6.79,0,0,1-.91-.62l-.59-.59c-.14-.12-.43-.5-.55-.63l-.2-.37a4.67,4.67,0,0,1-.42-1.71,4,4,0,0,1,0-.6H0c0,.25,0,.52,0,.78a7.89,7.89,0,0,0,.72,2.78,7.18,7.18,0,0,0,1.78,2.37,7.2,7.2,0,0,0,2.56,1.49,7.45,7.45,0,0,0,2.83.38,7.73,7.73,0,0,0,2.79-.72,7.54,7.54,0,0,0,2.38-1.79,7.18,7.18,0,0,0,1.49-2.57A7.72,7.72,0,0,0,15,15.7s0,0,0-.07a2.94,2.94,0,0,0-.06-.78A6.68,6.68,0,0,0,14.7,14h0a5.8,5.8,0,0,0-.34-.87,5,5,0,0,0-.54-.89l-.05-.07h0a5.17,5.17,0,0,0-.59-.66l-.08-.07-1.2-1.07a2.51,2.51,0,0,1-.45-.58c-.06-.1-.11-.2-.16-.3s-.1-.24-.15-.36a4.78,4.78,0,0,1-.28-1.34A4.7,4.7,0,0,1,11.09,6a4.5,4.5,0,0,1,2.37-2.67,4.9,4.9,0,0,1,1.7-.43,4.74,4.74,0,0,1,1.74.22l.42.16c.11.09.67.46.77.55l.69.61a3.47,3.47,0,0,1,.59.68c.07.12.14.25.2.38A4.94,4.94,0,0,1,20,7.2v3.24h8.12L22,20.5l-2,3.16H33.8v-3.2H25.68L31.84,10.4Z"/>
        <polygon points="10.74 30.62 9.94 31.5 9.94 32.69 9.15 32.69 9.15 28 9.94 28 9.94 30.43 12.18 28 13.11 28 11.3 30 13.23 32.69 12.28 32.69 10.74 30.62"/>
        <path d="M21.33,31.63l-.44,1.06h-.83L22.13,28h.81L25,32.69h-.85l-.45-1.06Zm1.19-2.79-.89,2.09H23.4Z"/>
        <polygon points="35.62 32.69 33.12 29.33 33.12 32.69 32.33 32.69 32.33 28 33.1 28 35.62 31.37 35.62 28 36.4 28 36.4 32.69 35.62 32.69"/>
        <path d="M46.27,28a2.35,2.35,0,1,1,0,4.69H44.34V28Zm-1.13,4h1.15a1.57,1.57,0,0,0,1.61-1.63,1.6,1.6,0,0,0-1.64-1.64H45.14Z"/>
        <path d="M56.79,31.63l-.45,1.06h-.82L57.59,28h.81l2.05,4.69h-.84l-.45-1.06ZM58,28.84l-.88,2.09h1.77Z"/>
        <polygon points="70.61 31.98 70.61 32.7 67.78 32.7 67.78 28 68.57 28 68.57 31.98 70.61 31.98"/>
        <polygon points="80.89 31.98 80.89 32.7 78.07 32.7 78.07 28 78.86 28 78.86 31.98 80.89 31.98"/>
        <path d="M93,30.35A2.49,2.49,0,1,1,90.46,28,2.41,2.41,0,0,1,93,30.35m-4.18,0A1.68,1.68,0,0,0,90.46,32a1.67,1.67,0,1,0-1.69-1.67m1.89-2.86H90l.72-1,.79.33Z"/>
        <path d="M92.35,15.06A5.94,5.94,0,0,1,92,17.31a5.88,5.88,0,0,1,2,1.43,4.78,4.78,0,0,0,1.16-3.08c0-3.4-3.62-5.86-4-9.24a4.33,4.33,0,0,1,0-1.14,4.46,4.46,0,0,0-.7,1.9c-.35,2.7,1.69,5.17,1.84,7.88" style="fill: #f49c13"/>
        <path d="M85.84,18.17a5.49,5.49,0,0,0,3.55,2.25A5.73,5.73,0,0,0,92,17.31a7.4,7.4,0,0,0-.89-.34c-1.47-.47-3.24-.68-4-2a5.16,5.16,0,0,1-.41-2.87,6,6,0,0,0-.13-1.69,11.16,11.16,0,0,1-.92,1.65,5.91,5.91,0,0,0,.2,6.11" style="fill: #a93226"/>
        <path d="M92,17.31a5.73,5.73,0,0,1-2.63,3.11,4.87,4.87,0,0,0,2.08-.07A4.92,4.92,0,0,0,94,18.74a5.88,5.88,0,0,0-2-1.43" style="fill: #e74b3c"/>
        <path d="M88.12,13.65a2.27,2.27,0,0,1-.24-.69c-.13-.87.1-1.77,0-2.64s-.74-1.83-1.62-1.75a1.68,1.68,0,0,1,.32,1.8s0,0,0,0a6,6,0,0,1,.13,1.69A5.16,5.16,0,0,0,87.1,15c.79,1.32,2.56,1.53,4,2a7.4,7.4,0,0,1,.89.34,5.94,5.94,0,0,0,.33-2.25c-.15-2.71-2.19-5.18-1.84-7.88a4.46,4.46,0,0,1,.7-1.9A7.05,7.05,0,0,1,94.6,1,10.06,10.06,0,0,0,90,4.58a5.5,5.5,0,0,0-.84,5.49,24.7,24.7,0,0,1,1.28,2.23.14.14,0,0,0,0,.06c.28.83,0,2-.86,2.17a1.42,1.42,0,0,1-1.51-.88" style="fill: #f4d03e"/>
      </g>
    </g>
  </g>
</svg>
