<svg xmlns="http://www.w3.org/2000/svg" viewBox="0 0 217.46 33.55">
  <title>gazduig_fooldal_tsystems</title>
  <g id="Layer_2" data-name="Layer 2">
    <g id="Layer_2-2" data-name="Layer 2">
      <g>
        <path d="M0,17.65v-5.4H5.41v5.4Z" style="fill: #eb008b"/>
        <path d="M16.22,17.65v-5.4h5.41v5.4Z" style="fill: #eb008b"/>
        <g>
          <path d="M32.47,17.65v-5.4h5.4v5.4Z" style="fill: #eb008b"/>
          <path d="M45.35,20.92c0,1.72.25,2.83.75,3.34a3.44,3.44,0,0,0,2.17.81c.3,0,.81,0,1.54,0v1.5h-13v-1.5A12.94,12.94,0,0,0,39.1,25,2.31,2.31,0,0,0,41,23.19a9,9,0,0,0,.21-2.27V1.28A6.84,6.84,0,0,0,36,3.48a10.69,10.69,0,0,0-2.17,6.16l-1.41-.25L32.7,0H53.88l.27,9.39-1.41.25c-.27-2.77-1-4.82-2.18-6.16a6.88,6.88,0,0,0-5.21-2.2Z" style="fill: #eb008b"/>
          <path d="M48.79,17.65v-5.4H54.2v5.4Z" style="fill: #eb008b"/>
        </g>
        <path d="M65,17.65v-5.4h5.41v5.4Z" style="fill: #eb008b"/>
        <g>
          <path d="M105,9.43a14.51,14.51,0,0,0-1.81-5.07,5.31,5.31,0,0,0-4.53-2.6A4.1,4.1,0,0,0,94.43,6a4.16,4.16,0,0,0,1.51,3.38,12.44,12.44,0,0,0,3.57,1.67,22.28,22.28,0,0,1,5.18,2.31,6.73,6.73,0,0,1,2.81,5.76A8.09,8.09,0,0,1,105.2,25a7,7,0,0,1-5.22,2.2,7.73,7.73,0,0,1-3.06-.6,14,14,0,0,1-2-1.11,1.7,1.7,0,0,0-.85-.28,1.22,1.22,0,0,0-1,.53c-.12.17-.29.46-.51.84H91.44V17.33h1.22a15.59,15.59,0,0,0,1.86,5.39,6,6,0,0,0,5.25,3.14,4.6,4.6,0,0,0,3.16-1.11,5,5,0,0,0,1.6-3.91,4.72,4.72,0,0,0-2.48-4.39,31.38,31.38,0,0,0-4.35-1.66,11.51,11.51,0,0,1-4-2.12,6.41,6.41,0,0,1-2.11-5.08,7,7,0,0,1,2.3-5.53A6.58,6.58,0,0,1,98.47.39a7.56,7.56,0,0,1,2.86.57,14.5,14.5,0,0,1,1.83,1,1.41,1.41,0,0,0,.7.22c.4,0,.79-.4,1.18-1.2h1V9.43Z" style="fill: #eb008b"/>
          <path d="M108.5,8.92h8v1.21h-.69c-1,0-1.56.27-1.56.82a3.39,3.39,0,0,0,.26,1.05l3.85,10.05,3.35-9.31a4.74,4.74,0,0,0,.36-1.51c0-.73-.57-1.1-1.7-1.1h-.84V8.92h6.31v1.21h-.42a1.4,1.4,0,0,0-1.13.52,4.5,4.5,0,0,0-.64,1.26L117.3,29a9.37,9.37,0,0,1-2,3.44,3.83,3.83,0,0,1-2.78,1.09,3.59,3.59,0,0,1-2.37-.81A3.14,3.14,0,0,1,109,30.25a2.3,2.3,0,0,1,.53-1.54,1.86,1.86,0,0,1,1.54-.7,1.89,1.89,0,0,1,1.63.79,1.82,1.82,0,0,1,.34,1.1,1.9,1.9,0,0,1-.61,1.43,1.75,1.75,0,0,1-1,.45,1.49,1.49,0,0,0,1.18.5,2.58,2.58,0,0,0,1.94-.89,10.57,10.57,0,0,0,1.67-3.4l.41-1.21-5.27-14.17a5.75,5.75,0,0,0-1.06-2,2.16,2.16,0,0,0-1.48-.45h-.32Z" style="fill: #eb008b"/>
          <path d="M137.38,8.92v5.6h-1.16c-.63-3.23-2.11-4.85-4.47-4.85a2.82,2.82,0,0,0-2.05.77,2.57,2.57,0,0,0-.82,1.93A2.41,2.41,0,0,0,130,14.46a8.65,8.65,0,0,0,2,.84,16.25,16.25,0,0,1,4.27,1.84,5,5,0,0,1,2.09,4.18,5.56,5.56,0,0,1-1.82,4.29A5.65,5.65,0,0,1,132.65,27a6.44,6.44,0,0,1-2.55-.49,14.19,14.19,0,0,1-1.75-.93.93.93,0,0,0-.49-.17q-.36,0-.69,1.2h-1.09V20.1h1.09a11.77,11.77,0,0,0,1.43,3.49,4.91,4.91,0,0,0,1.71,1.56,4.71,4.71,0,0,0,2.32.61,2.9,2.9,0,0,0,2.31-1,3.23,3.23,0,0,0,.81-2.16,3,3,0,0,0-1.58-2.73,18.37,18.37,0,0,0-3.4-1.37A8.91,8.91,0,0,1,128,17.12a4.48,4.48,0,0,1-1.69-3.74,4.57,4.57,0,0,1,1.58-3.61,5.32,5.32,0,0,1,3.6-1.24,7,7,0,0,1,3.64,1,1.35,1.35,0,0,0,.56.2c.25,0,.44-.28.57-.85Z" style="fill: #eb008b"/>
          <path d="M145,10.23V20.89a12.12,12.12,0,0,0,.28,3,1.79,1.79,0,0,0,1.83,1.47,1.88,1.88,0,0,0,1.83-1.28,7.72,7.72,0,0,0,.53-3v-.53h1.27v.72a7.1,7.1,0,0,1-1.11,4.21A3.92,3.92,0,0,1,146.14,27a4.13,4.13,0,0,1-3.35-1.29,4.41,4.41,0,0,1-1-2.35,21.67,21.67,0,0,1-.12-2.47V10.23h-2.77V9.15a5.84,5.84,0,0,0,3.62-2.1,10.94,10.94,0,0,0,1.3-4.79H145V8.92h5.18v1.31Z" style="fill: #eb008b"/>
          <path d="M166,17.65H155.43a15.2,15.2,0,0,0,.77,5.5,3.67,3.67,0,0,0,3.61,2.52,4.18,4.18,0,0,0,3.32-1.58,11.31,11.31,0,0,0,1.47-2.39l1.14.6c-1.61,3.25-3.8,4.87-6.54,4.87a6.52,6.52,0,0,1-5-2.07q-2.4-2.58-2.4-7.45a10.37,10.37,0,0,1,2.4-7.16,5.94,5.94,0,0,1,4.57-2.12q4,0,6,4A12.91,12.91,0,0,1,166,17.65Zm-3.55-1.36a12.34,12.34,0,0,0-.51-3.87c-.61-1.79-1.58-2.68-2.89-2.68-1.48,0-2.52,1.1-3.14,3.3a12.51,12.51,0,0,0-.39,3.25Z" style="fill: #eb008b"/>
          <path d="M188.16,26.61V15.8a12.45,12.45,0,0,0-.47-4.35,2.09,2.09,0,0,0-2-1.29A3,3,0,0,0,183.1,12a6.34,6.34,0,0,0-.71,2.19,28.28,28.28,0,0,0-.13,3.31v4.82a4.7,4.7,0,0,0,.47,2.65,1.85,1.85,0,0,0,1.46.47h.56v1.18H179V16.4a30.13,30.13,0,0,0-.12-3.44c-.26-1.87-1.07-2.8-2.42-2.8A2.87,2.87,0,0,0,173.9,12a6.81,6.81,0,0,0-.64,1.89,24,24,0,0,0-.18,3.57v4.82a4.88,4.88,0,0,0,.43,2.65,2,2,0,0,0,1.52.47h.54v1.18h-8.32V25.43h.62a1.88,1.88,0,0,0,1.46-.47,4.49,4.49,0,0,0,.49-2.65V13.19a4.37,4.37,0,0,0-.49-2.61,1.92,1.92,0,0,0-1.46-.45h-.44V8.92l5.39-.26V11.8a5.39,5.39,0,0,1,1.05-1.7,4.58,4.58,0,0,1,3.46-1.57q3.1,0,4.5,3.51c1.12-2.34,2.71-3.51,4.74-3.51a4.3,4.3,0,0,1,3.89,2,5.49,5.49,0,0,1,.82,2.4,19.35,19.35,0,0,1,.14,2.39v7a4.73,4.73,0,0,0,.46,2.65,1.91,1.91,0,0,0,1.49.47h.43v1.18Z" style="fill: #eb008b"/>
          <path d="M206.9,8.92v5.6h-1.16q-.93-4.85-4.46-4.85a2.84,2.84,0,0,0-2.06.77,2.57,2.57,0,0,0-.82,1.93,2.41,2.41,0,0,0,1.14,2.09,9.05,9.05,0,0,0,2,.84,16.09,16.09,0,0,1,4.27,1.84,5,5,0,0,1,2.1,4.18,5.54,5.54,0,0,1-1.83,4.29A5.63,5.63,0,0,1,202.18,27a6.49,6.49,0,0,1-2.56-.49,15.85,15.85,0,0,1-1.75-.93.9.9,0,0,0-.49-.17c-.23,0-.47.4-.69,1.2H195.6V20.1h1.09a12,12,0,0,0,1.43,3.49,4.91,4.91,0,0,0,1.71,1.56,4.73,4.73,0,0,0,2.32.61,2.88,2.88,0,0,0,2.31-1,3.23,3.23,0,0,0,.81-2.16,3,3,0,0,0-1.58-2.73,18.37,18.37,0,0,0-3.4-1.37,8.85,8.85,0,0,1-2.8-1.41,4.45,4.45,0,0,1-1.69-3.74,4.56,4.56,0,0,1,1.57-3.61A5.32,5.32,0,0,1,201,8.53a7,7,0,0,1,3.64,1,1.34,1.34,0,0,0,.57.2c.25,0,.43-.28.56-.85Z" style="fill: #eb008b"/>
          <path d="M81.23,17.65v-5.4h5.41v5.4Z" style="fill: #eb008b"/>
          <path d="M212.05,17.65v-5.4h5.41v5.4Z" style="fill: #eb008b"/>
        </g>
      </g>
    </g>
  </g>
</svg>
