<svg xmlns="http://www.w3.org/2000/svg" viewBox="0 0 72.88 49.9">
  <title>gazduig_fooldal_welove</title>
  <g id="Layer_2" data-name="Layer 2">
    <g id="Layer_2-2" data-name="Layer 2">
      <g>
        <polygon points="17.39 5.04 22.71 0.24 32.22 0.24 37.47 5.65 37.47 35.27 17.39 15.88 17.39 5.04" style="fill: #f27a95"/>
        <polyline points="37.41 35.27 57.49 15.88 57.49 5.04 52.17 0.24 42.66 0.24 37.41 5.65" style="fill: #e61b72"/>
        <polygon points="42.64 0.24 52.14 0.24 47.39 5.36 42.64 0.24" style="fill: #f27a95"/>
        <path d="M37.3,35.44,17.23,16.05l-.07-.17V5l.08-.18L22.56.06,22.71,0h9.51l.17.07,5.25,5.42.06.16V35.27ZM17.63,15.78l19.6,18.93v-29L32.12.47H22.81L17.63,5.14Z" style="fill: #1d1d1b"/>
        <path d="M37.41,35.51a.28.28,0,0,1-.17-.07.25.25,0,0,1,0-.34l20-19.32V5.14L52.08.47H42.76L37.59,5.82a.25.25,0,0,1-.34,0,.24.24,0,0,1,0-.33L42.56,0h9.7l5.46,4.93V16l-.07.07L37.58,35.44A.23.23,0,0,1,37.41,35.51Z" style="fill: #1d1d1b"/>
        <path d="M27.48,5.62a.25.25,0,0,1-.17-.08L22.54.4a.25.25,0,0,1,0-.34.24.24,0,0,1,.34,0l4.77,5.14a.23.23,0,0,1,0,.33A.2.2,0,0,1,27.48,5.62Z" style="fill: #1d1d1b"/>
        <path d="M27.48,5.62a.23.23,0,0,1-.16-.07.24.24,0,0,1,0-.33L32.05.08a.23.23,0,0,1,.33,0,.25.25,0,0,1,0,.34L27.66,5.54A.25.25,0,0,1,27.48,5.62Z" style="fill: #1d1d1b"/>
        <path d="M47.38,5.62a.24.24,0,0,1-.18-.4L52,.08a.24.24,0,0,1,.34,0,.25.25,0,0,1,0,.34L47.55,5.54A.25.25,0,0,1,47.38,5.62Z" style="fill: #1d1d1b"/>
        <g>
          <line x1="47.38" y1="5.38" x2="42.64" y2="0.24" style="fill: #e5332a"/>
          <path d="M47.38,5.62a.25.25,0,0,1-.18-.08L42.46.4a.24.24,0,0,1,0-.34.23.23,0,0,1,.33,0l4.74,5.14a.24.24,0,0,1,0,.33A.23.23,0,0,1,47.38,5.62Z" style="fill: #1d1d1b"/>
        </g>
        <g>
          <path d="M.87,41.09,1.81,46h0l1.07-4.88h.87L4.87,46h0l.87-4.88h.87L5.26,47.73H4.49L3.34,42.57h0L2.17,47.73H1.4L0,41.09Z" style="fill: #1d1d1b"/>
          <path d="M9.19,44.57v.37c0,1.62.37,2.15,1.24,2.15.7,0,1-.65,1.11-1.25l.87.1a2.12,2.12,0,0,1-2.11,1.92c-1.39,0-2-1-2-3.45S8.91,41,10.3,41s2,1.25,2,3.16v.44Zm2.22-.77c0-1.43-.28-2.07-1.11-2.07-.66,0-1.09.49-1.11,2.07Z" style="fill: #1d1d1b"/>
          <path d="M15.65,35.68V46.89h3v.84h-4v-12Z" style="fill: #e61b72"/>
          <path d="M22.86,47.86c-1.56,0-2.6-1.3-2.6-4.74s1-4.73,2.6-4.73,2.61,1.3,2.61,4.73S24.42,47.86,22.86,47.86Zm0-8.63c-.89,0-1.61.77-1.61,3.89S22,47,22.86,47s1.61-.77,1.61-3.9S23.76,39.23,22.86,39.23Z" style="fill: #e61b72"/>
          <path d="M28.12,38.52l1.62,7.3h0l1.62-7.3h1l-2.17,9.21h-.92l-2.17-9.21Z" style="fill: #e61b72"/>
          <path d="M38.74,38.52v.84H35.53V42.5H37.9v.84H35.53v3.55h3.36v.84H34.53V38.52Z" style="fill: #e61b72"/>
          <path d="M44.1,47.09h0a1.62,1.62,0,0,1-1.37.77c-1,0-1.91-.9-1.91-3.45S41.66,41,42.7,41a1.8,1.8,0,0,1,1.23.61V38.52h.92v7.42A7.37,7.37,0,0,0,45,47.73h-.87Zm-.17-4.77a1.54,1.54,0,0,0-1-.59c-.77,0-1.22.64-1.22,2.68s.48,2.68,1.25,2.68a1.42,1.42,0,0,0,1-.64Z" style="fill: #1d1d1b"/>
          <path d="M47.48,38.52h.92v1.07h-.92Zm0,2.57h.92v6.64h-.92Z" style="fill: #1d1d1b"/>
          <path d="M55.17,41.81a.8.8,0,0,0-.26,0,.83.83,0,0,0-.58.26,3.77,3.77,0,0,1,.21,1.28c0,1.65-.77,2.37-1.79,2.37-.21,0-.41,0-.61,0s-.46.18-.46.43c0,.47.75.5,1.61.68s1.81.51,1.81,1.59c0,.87-.85,1.56-2.25,1.56s-2.27-.56-2.27-1.43a1.46,1.46,0,0,1,1-1.33.94.94,0,0,1-.72-.89,1,1,0,0,1,.87-.88,2.45,2.45,0,0,1-.79-1.9c0-1.58.77-2.5,1.93-2.5a1.39,1.39,0,0,1,1.21.61A1.2,1.2,0,0,1,55.17,41Zm-2.85,5.56c-.54.23-.9.54-.9.91,0,.55.46.93,1.46.93s1.37-.41,1.37-.94S53.11,47.55,52.32,47.37Zm.4-2.37c.54,0,1-.41,1-1.67s-.43-1.67-1-1.67-1,.4-1,1.67S52.19,45,52.72,45Z" style="fill: #1d1d1b"/>
          <path d="M57.37,38.52h.92v1.07h-.92Zm0,2.57h.92v6.64h-.92Z" style="fill: #1d1d1b"/>
          <path d="M60.31,41.09h.9V38.87h.92v2.22h1.22v.77H62.13v4.65a.6.6,0,0,0,.66.66,2,2,0,0,0,.56-.13v.69a2.57,2.57,0,0,1-.87.13c-.86,0-1.27-.41-1.27-1.43V41.86h-.9Z" style="fill: #1d1d1b"/>
          <path d="M65.48,42.91a2,2,0,0,1,2-1.94,1.72,1.72,0,0,1,1.9,1.89v3.7a2.74,2.74,0,0,0,.17,1.17h-1l-.11-.56a2.43,2.43,0,0,1-1.42.69,1.61,1.61,0,0,1-1.72-1.71c0-1.64,1.8-2.46,3.13-2.76v-.47c0-.73-.37-1.19-1-1.19s-1,.7-1.15,1.3Zm3,1.25c-.85.25-2.21.87-2.21,1.91,0,.63.28,1,.94,1a1.89,1.89,0,0,0,1.27-.69Z" style="fill: #1d1d1b"/>
          <path d="M72,38.52h.91v9.21H72Z" style="fill: #1d1d1b"/>
        </g>
      </g>
    </g>
  </g>
</svg>
