<svg width="37" height="42" viewBox="0 0 37 42" fill="none" xmlns="http://www.w3.org/2000/svg">
<circle cx="23" cy="20" r="13" fill="#FFCF24"/>
<path d="M12.0289 8.06067C11.7799 8.30972 11.5744 8.59099 11.4109 8.89996C11.3005 9.10855 9.45176 13.6798 9.45176 13.6798C8.0356 17.1403 5.97692 20.2355 3.33304 22.8794L2.04132 24.1711C-0.649361 26.8618 -0.684791 31.2168 1.9623 33.8793C3.25367 35.1781 4.97255 35.8932 6.80224 35.8932C6.80406 35.8932 6.80597 35.8932 6.80788 35.8932C7.8218 35.8932 8.80177 35.6727 9.69413 35.2557L12.0922 37.6538C12.2193 37.781 12.386 37.8446 12.5527 37.8446C12.7058 37.8446 12.8584 37.7902 12.981 37.683L16.3576 41.0596C16.9845 41.6866 17.8081 42 18.6317 42C19.4553 42 20.2788 41.6866 20.9058 41.0596C22.1598 39.8056 22.1598 37.7654 20.9058 36.5114L17.5308 33.1364L17.987 32.6801C18.1092 32.558 18.1778 32.3923 18.1778 32.2196C18.1778 32.0469 18.1092 31.8812 17.987 31.7591L16.0881 29.8602C17.9619 28.466 20.0029 27.3134 22.1903 26.4182C22.1903 26.4182 26.7497 24.5841 27.1102 24.3825C27.488 24.1714 27.8098 23.8415 27.8098 23.8415C30.2784 21.5408 28.5991 16.1204 24.1746 11.6959C19.75 7.27131 14.415 5.67452 12.0289 8.06067ZM10.8492 34.5688C11.1248 34.3654 11.3873 34.1402 11.6341 33.8934L12.9906 32.5369C13.1966 32.3309 13.4062 32.1299 13.6176 31.931L15.2557 33.5693L12.5527 36.2723L10.8492 34.5688ZM17.2787 40.1386L13.9036 36.7635L15.1864 35.4807L18.5617 38.8561C18.923 39.2175 19.122 39.6979 19.122 40.2089C19.122 40.2104 19.122 40.2119 19.122 40.2133C19.1213 40.4851 18.8904 40.6978 18.6186 40.6963C18.1329 40.6936 17.6484 40.5083 17.2787 40.1386ZM19.9847 37.4325C20.5675 38.0153 20.6929 38.8829 20.3652 39.5906C20.2445 38.9673 19.9417 38.394 19.4828 37.9351L16.1074 34.5597L16.6097 34.0575L19.9847 37.4325ZM16.6054 32.2196L16.1768 32.6482L14.5876 31.0591C14.7418 30.927 14.8966 30.7961 15.0534 30.6676L16.6054 32.2196ZM21.6968 25.2126C18.0754 26.6947 14.8363 28.8491 12.0696 31.6159L10.7131 32.9724C9.66946 34.016 8.28274 34.5906 6.80736 34.5906C6.8058 34.5906 6.80423 34.5906 6.80276 34.5906C5.32199 34.5906 3.93093 34.0119 2.886 32.9609C0.743873 30.8063 0.778087 27.2764 2.96233 25.0922L4.25405 23.8005C7.02089 21.0336 9.17518 17.7946 10.6572 14.1732L11.1698 12.9209C11.7426 15.2167 13.2992 17.8415 15.6641 20.2063C17.7202 22.2624 20.0729 23.79 22.2891 24.5077C22.514 24.5805 22.7351 24.6441 22.9523 24.6988L21.6968 25.2126ZM16.5893 15.1832C16.5992 15.2167 16.6085 15.2498 16.6194 15.2836C16.8824 16.0957 17.4357 16.9514 18.1774 17.693C18.9872 18.5029 19.8726 19.0444 20.6852 19.2821L18.7841 21.1832C18.0299 20.6267 17.2901 19.9901 16.5852 19.2851C15.8801 18.5801 15.2434 17.8402 14.6868 17.0858L16.5893 15.1832ZM21.9679 17.9997L21.9678 17.9996L21.9664 18.001C21.6373 18.3254 20.3283 18.0018 19.0984 16.772C18.5083 16.182 18.0564 15.4932 17.8586 14.8823C17.7126 14.4315 17.7173 14.0561 17.8708 13.9025C17.9498 13.8236 18.0872 13.784 18.2636 13.784C18.4302 13.784 18.6315 13.8194 18.8506 13.8904C19.4614 14.0882 20.1502 14.5401 20.7403 15.1302C21.9718 16.3616 22.2946 17.6728 21.9679 17.9997ZM26.8886 22.9204C26.7384 23.0707 26.6675 23.1357 26.4128 23.2763C26.1581 23.4169 25.9064 23.4897 25.9064 23.4897C25.0659 23.7471 23.9525 23.6772 22.6904 23.2684C21.7712 22.9707 20.8223 22.5149 19.881 21.9284L22.8869 18.9225C22.8876 18.9219 22.8883 18.9213 22.8889 18.9207C23.882 17.9275 23.3542 15.902 21.6613 14.2091C20.9196 13.4674 20.064 12.9142 19.2519 12.6511C18.2915 12.3401 17.4737 12.4574 16.9496 12.9815L16.9493 12.9811L13.9416 15.9888C13.3552 15.0476 12.8996 14.0989 12.6019 13.1798C12.1925 11.9156 12.1229 10.8006 12.3818 9.95956C12.3818 9.95956 12.4664 9.67925 12.5676 9.50548C12.6689 9.33172 12.7987 9.13277 12.9499 8.98159C13.447 8.48444 14.1643 8.25006 15.0219 8.25006C17.2818 8.25006 20.5148 9.87828 23.2534 12.6168C27.0312 16.3947 28.6959 21.1132 26.8886 22.9204Z" fill="#1F1F1F"/>
<path d="M35.3498 15.3333H29.3927C29.033 15.3333 28.7414 15.6249 28.7414 15.9846C28.7414 16.3443 29.033 16.6359 29.3927 16.6359H35.3498C35.7095 16.6359 36.0011 16.3443 36.0011 15.9846C36.0011 15.6249 35.7095 15.3333 35.3498 15.3333Z" fill="#1F1F1F"/>
<path d="M26.68 12.6257C26.7905 12.8627 27.0255 13.0019 27.2707 13.0019C27.3629 13.0019 27.4565 12.9822 27.5456 12.9407L34.1374 9.86659C34.4634 9.71453 34.6045 9.32706 34.4524 9.00107C34.3004 8.67508 33.9129 8.53414 33.5869 8.6861L26.995 11.7602C26.6691 11.9122 26.5281 12.2997 26.68 12.6257Z" fill="#1F1F1F"/>
<path d="M24.3673 10.1547C24.4893 10.2571 24.6379 10.3071 24.7856 10.3071C24.9714 10.3071 25.156 10.228 25.2848 10.0745L30.1782 4.24329C30.4094 3.96775 30.3735 3.55692 30.0979 3.32576C29.8223 3.09451 29.4115 3.13046 29.1804 3.406L24.287 9.23719C24.0558 9.51273 24.0917 9.92347 24.3673 10.1547Z" fill="#1F1F1F"/>
<path d="M21.6041 8.04535C21.6605 8.06046 21.7172 8.06766 21.7731 8.06766C22.0606 8.06766 22.3238 7.87575 22.4018 7.58476L24.2141 0.82005C24.3072 0.47261 24.1009 0.115444 23.7535 0.0223533C23.4063 -0.0707373 23.049 0.135417 22.9558 0.482944L21.1435 7.24765C21.0504 7.59518 21.2566 7.95226 21.6041 8.04535Z" fill="#1F1F1F"/>
</svg>
