<svg width="45" height="42" viewBox="0 0 45 42" fill="none" xmlns="http://www.w3.org/2000/svg">
<circle cx="13" cy="13" r="13" fill="#FFCF24"/>
<path d="M44.1754 30.2234L39.919 28.0952L37.2101 21.0488C37.1782 20.9655 37.1295 20.8896 37.067 20.826C37.0044 20.7623 36.9295 20.7123 36.8467 20.6789L20.0385 13.9602C19.921 13.9134 19.7923 13.902 19.6684 13.9273C19.5445 13.9527 19.4307 14.0137 19.341 14.1029L17.0992 16.3447C17.0112 16.4344 16.9512 16.5478 16.9264 16.6711C16.9016 16.7943 16.9132 16.9221 16.9597 17.0389L23.6785 33.8472C23.7118 33.9299 23.7619 34.0049 23.8255 34.0674C23.8892 34.1299 23.965 34.1786 24.0483 34.2105L31.0948 36.9195L33.223 41.1759C33.2678 41.2697 33.3345 41.3514 33.4175 41.4141C33.5005 41.4768 33.5973 41.5186 33.6999 41.536C33.7344 41.5392 33.7691 41.5392 33.8037 41.536C33.9755 41.5352 34.14 41.4664 34.2611 41.3446L44.3441 31.2615C44.4183 31.1899 44.4744 31.1017 44.5077 31.0041C44.541 30.9065 44.5505 30.8023 44.5355 30.7003C44.5181 30.5978 44.4763 30.5009 44.4136 30.4179C44.351 30.3349 44.2693 30.2682 44.1754 30.2234ZM18.319 16.9546L18.6792 16.5977L27.046 24.9645C26.4946 25.7459 26.2564 26.7057 26.3786 27.6542C26.5008 28.6026 26.9745 29.4707 27.7059 30.0868C28.4374 30.7028 29.3734 31.022 30.3288 30.9812C31.2843 30.9403 32.1896 30.5425 32.8658 29.8663C33.542 29.19 33.9399 28.2847 33.9807 27.3293C34.0216 26.3738 33.7024 25.4378 33.0863 24.7064C32.4703 23.9749 31.6022 23.5013 30.6537 23.3791C29.7052 23.2569 28.7454 23.495 27.9641 24.0464L19.5973 15.6796L19.9541 15.3195L36.1006 21.7787L38.6473 28.4034L31.403 35.6477L24.7783 33.101L18.319 16.9546ZM30.1637 24.6434C30.7468 24.6442 31.3116 24.8472 31.7619 25.2178C32.2121 25.5884 32.5199 26.1036 32.6329 26.6757C32.7459 27.2478 32.657 27.8414 32.3814 28.3553C32.1059 28.8692 31.6606 29.2717 31.1216 29.4942C30.5826 29.7167 29.9831 29.7454 29.4252 29.5754C28.8674 29.4055 28.3858 29.0474 28.0624 28.5621C27.7389 28.0769 27.5938 27.4945 27.6516 26.9143C27.7094 26.334 27.9666 25.7917 28.3793 25.3798C28.853 24.9076 29.4948 24.6427 30.1637 24.6434ZM33.9821 39.7906L32.36 36.5464L39.5394 29.3669L42.7836 30.989L33.9821 39.7906Z" fill="#1F1F1F"/>
<path d="M15.4187 34.7231C15.2946 34.6059 15.1304 34.5405 14.9597 34.5405C14.7889 34.5405 14.6247 34.6059 14.5006 34.7231L13.6766 35.5472C11.4776 32.5626 10.2645 28.9664 10.2063 25.2598C10.1482 21.5531 11.2479 17.9206 13.3521 14.8686C13.9826 15.2155 14.7085 15.3487 15.421 15.2484C16.1336 15.148 16.7944 14.8194 17.3045 14.3119C17.8146 13.8043 18.1465 13.1452 18.2505 12.4331C18.3544 11.7211 18.2248 10.9945 17.8811 10.3623C20.9331 8.25806 24.5656 7.15836 28.2723 7.21651C31.9789 7.27467 35.5752 8.48777 38.5597 10.6868L37.7227 11.5011C37.602 11.6227 37.5344 11.7872 37.5345 11.9585C37.534 12.0439 37.5504 12.1285 37.5827 12.2076C37.6149 12.2866 37.6625 12.3585 37.7227 12.4192L40.5841 15.2579C40.7056 15.3787 40.8701 15.4465 41.0415 15.4465C41.2129 15.4465 41.3774 15.3787 41.4989 15.2579L44.3441 12.4127C44.4044 12.3524 44.4523 12.2809 44.4849 12.2021C44.5176 12.1233 44.5344 12.0389 44.5344 11.9536C44.5344 11.8684 44.5176 11.7839 44.4849 11.7052C44.4523 11.6264 44.4044 11.5548 44.3441 11.4946L41.4989 8.6494C41.3774 8.52856 41.2129 8.46072 41.0415 8.46072C40.8701 8.46072 40.7056 8.52856 40.5841 8.6494L39.4843 9.7427C36.7737 7.70305 33.5692 6.42159 30.1997 6.02991C26.8301 5.63822 23.4171 6.15043 20.311 7.51393L24.0516 3.78309C24.4757 3.98574 24.9579 4.03162 25.4126 3.91257C25.8674 3.79352 26.2652 3.51724 26.5356 3.13275C26.806 2.74826 26.9315 2.28041 26.8898 1.81221C26.8481 1.344 26.6419 0.905711 26.3077 0.575085C25.9736 0.24446 25.5332 0.0428776 25.0646 0.00609927C24.5959 -0.030679 24.1294 0.0997248 23.7478 0.374176C23.3662 0.648628 23.0941 1.04938 22.9799 1.50535C22.8656 1.96131 22.9166 2.44301 23.1237 2.86497L16.8105 9.18794C16.1695 8.75796 15.3991 8.56387 14.6308 8.63883C13.8626 8.71379 13.1443 9.05315 12.5985 9.59894C12.0527 10.1447 11.7133 10.8631 11.6384 11.6313C11.5634 12.3995 11.7575 13.1699 12.1875 13.8109L5.86451 20.1242C5.44088 19.9178 4.9578 19.8682 4.5011 19.9843C4.04439 20.1004 3.64364 20.3747 3.37006 20.7584C3.09648 21.1421 2.96779 21.6104 3.00686 22.08C3.04592 22.5496 3.25022 22.9902 3.58343 23.3234C3.91665 23.6566 4.3572 23.8609 4.82682 23.8999C5.29643 23.939 5.76469 23.8103 6.14838 23.5367C6.53207 23.2632 6.80635 22.8624 6.92247 22.4057C7.03859 21.949 6.98904 21.4659 6.78262 21.0423L10.5232 17.3114C9.15833 20.4167 8.64451 23.8293 9.03448 27.1988C9.42445 30.5683 10.7042 33.7733 12.7422 36.4847L11.6457 37.5845C11.5248 37.7061 11.457 37.8705 11.457 38.042C11.457 38.2134 11.5248 38.3778 11.6457 38.4994L14.4909 41.3446C14.612 41.4664 14.7765 41.5353 14.9483 41.536C15.0339 41.536 15.1187 41.5192 15.1978 41.4863C15.2768 41.4535 15.3486 41.4053 15.409 41.3446L18.2574 38.4994C18.3782 38.3778 18.4461 38.2134 18.4461 38.042C18.4461 37.8705 18.3782 37.7061 18.2574 37.5845L15.4187 34.7231ZM41.048 10.0185L42.975 11.9455L41.048 13.8726L39.1209 11.9455L41.048 10.0185ZM24.4214 1.51214C24.5178 1.41494 24.6409 1.34856 24.7751 1.32144C24.9093 1.29433 25.0485 1.30768 25.1751 1.35982C25.3017 1.41195 25.41 1.50052 25.4862 1.61428C25.5623 1.72804 25.603 1.86186 25.603 1.99877C25.603 2.13568 25.5623 2.2695 25.4862 2.38326C25.41 2.49702 25.3017 2.58559 25.1751 2.63772C25.0485 2.68986 24.9093 2.70321 24.7751 2.67609C24.6409 2.64898 24.5178 2.5826 24.4214 2.4854C24.3574 2.42152 24.3067 2.34567 24.2721 2.26217C24.2375 2.17867 24.2196 2.08916 24.2196 1.99877C24.2196 1.90838 24.2375 1.81887 24.2721 1.73537C24.3067 1.65187 24.3574 1.57601 24.4214 1.51214ZM13.5208 10.5213C13.7093 10.332 13.9332 10.1818 14.1798 10.0793C14.4265 9.97676 14.6909 9.92399 14.958 9.92399C15.2251 9.92399 15.4896 9.97676 15.7362 10.0793C15.9829 10.1818 16.2068 10.332 16.3952 10.5213C16.68 10.8057 16.8741 11.1681 16.9528 11.5628C17.0316 11.9574 16.9915 12.3666 16.8376 12.7385C16.6838 13.1104 16.423 13.4282 16.0885 13.6519C15.7539 13.8755 15.3605 13.9949 14.958 13.9949C14.5556 13.9949 14.1622 13.8755 13.8276 13.6519C13.493 13.4282 13.2323 13.1104 13.0784 12.7385C12.9246 12.3666 12.8845 11.9574 12.9632 11.5628C13.042 11.1681 13.236 10.8057 13.5208 10.5213ZM5.48818 22.3951C5.35571 22.5056 5.18672 22.5625 5.01442 22.5547C4.84212 22.547 4.67895 22.475 4.55699 22.3531C4.43503 22.2311 4.36308 22.0679 4.3553 21.8956C4.34751 21.7233 4.40445 21.5543 4.51491 21.4219C4.64475 21.2943 4.81951 21.2228 5.00154 21.2228C5.18358 21.2228 5.35834 21.2943 5.48818 21.4219C5.55213 21.4857 5.60287 21.5616 5.63749 21.6451C5.67211 21.7286 5.68992 21.8181 5.68992 21.9085C5.68992 21.9989 5.67211 22.0884 5.63749 22.1719C5.60287 22.2554 5.55213 22.3313 5.48818 22.3951ZM14.958 39.956L13.031 38.029L14.958 36.1019L16.8851 38.029L14.958 39.956Z" fill="#1F1F1F"/>
</svg>
