<svg width="58" height="35" viewBox="0 0 58 35" fill="none" xmlns="http://www.w3.org/2000/svg">
<circle cx="45" cy="19" r="13" fill="#FFCF24"/>
<path d="M27.2934 21.0608C26.282 21.0608 25.5242 20.3212 25.0353 18.8574L22.5364 11.3371C22.3969 10.8874 22.2382 10.3758 21.9829 10.2563C21.9473 10.239 21.9072 10.218 21.8078 10.2855C21.6764 10.3758 21.5305 10.6339 21.401 10.8628L19.5414 13.9673C19.0198 15.0234 17.898 15.7749 16.6504 15.8642L10.032 15.867C9.52767 15.867 9.12001 15.4593 9.12001 14.955C9.12001 14.4506 9.52767 14.043 10.032 14.043H16.5847C17.1265 14.0019 17.6709 13.6371 17.9418 13.0917L19.8132 9.96358C20.0284 9.58328 20.2966 9.10904 20.7745 8.78163C21.3846 8.36302 22.1069 8.29918 22.759 8.6047C23.7421 9.06709 24.0522 10.0666 24.2793 10.7953L24.365 11.0644L26.7681 18.281C27.0098 19.0052 27.2332 19.2678 27.3463 19.2322C27.3792 19.2277 27.4713 19.1748 27.6053 18.9997C28.127 18.3212 28.5812 17.5013 29.0208 16.7087C29.2479 16.2983 29.474 15.8907 29.7093 15.4985C30.231 14.4424 31.3527 13.6918 32.6004 13.6025L39.216 13.6006C39.7204 13.6006 40.128 14.0083 40.128 14.5126C40.128 15.017 39.7204 15.4246 39.216 15.4246H32.6633C32.1216 15.4657 31.5771 15.8305 31.3062 16.3749C31.0472 16.8118 30.8311 17.2012 30.614 17.5934C30.1425 18.4452 29.6546 19.3253 29.0481 20.1141C28.6277 20.6604 28.1307 20.9723 27.5725 21.0435C27.4777 21.0544 27.3846 21.0608 27.2934 21.0608Z" fill="#1F1F1F"/>
<path d="M42.864 1.824H6.38402C5.87968 1.824 5.47202 1.41634 5.47202 0.912C5.47202 0.407664 5.87968 0 6.38402 0H42.864C43.3684 0 43.776 0.407664 43.776 0.912C43.776 1.41634 43.3684 1.824 42.864 1.824Z" fill="#1F1F1F"/>
<path d="M44.688 3.648C44.1837 3.648 43.776 3.24034 43.776 2.736C43.776 2.23258 43.3674 1.824 42.864 1.824C42.3597 1.824 41.952 1.41634 41.952 0.912C41.952 0.407664 42.3597 0 42.864 0C44.3724 0 45.6 1.22755 45.6 2.736C45.6 3.24034 45.1923 3.648 44.688 3.648Z" fill="#1F1F1F"/>
<path d="M44.688 29.184C44.1837 29.184 43.776 28.7763 43.776 28.272V2.73597C43.776 2.23164 44.1837 1.82397 44.688 1.82397C45.1924 1.82397 45.6 2.23164 45.6 2.73597V28.272C45.6 28.7763 45.1924 29.184 44.688 29.184Z" fill="#1F1F1F"/>
<path d="M4.56 3.648C4.05566 3.648 3.64799 3.24034 3.64799 2.736C3.64799 1.22755 4.87555 0 6.384 0C6.88833 0 7.296 0.407664 7.296 0.912C7.296 1.41634 6.88833 1.824 6.384 1.824C5.88057 1.824 5.472 2.23258 5.472 2.736C5.472 3.24034 5.06433 3.648 4.56 3.648Z" fill="#1F1F1F"/>
<path d="M4.56 29.184C4.05566 29.184 3.64799 28.7763 3.64799 28.272V2.73597C3.64799 2.23164 4.05566 1.82397 4.56 1.82397C5.06433 1.82397 5.472 2.23164 5.472 2.73597V28.272C5.472 28.7763 5.06433 29.184 4.56 29.184Z" fill="#1F1F1F"/>
<path d="M48.336 29.184H32.832C32.3276 29.184 31.92 28.7764 31.92 28.272C31.92 27.7677 32.3276 27.36 32.832 27.36H48.336C48.8403 27.36 49.248 27.7677 49.248 28.272C49.248 28.7764 48.8403 29.184 48.336 29.184Z" fill="#1F1F1F"/>
<path d="M4.56 34.656C2.04562 34.656 0 32.6104 0 30.096C0 29.5917 0.407664 29.184 0.912 29.184C1.41634 29.184 1.824 29.5917 1.824 30.096C1.824 31.6045 3.05155 32.832 4.56 32.832C5.06434 32.832 5.472 33.2397 5.472 33.744C5.472 34.2484 5.06434 34.656 4.56 34.656Z" fill="#1F1F1F"/>
<path d="M44.688 34.656H4.56C4.05566 34.656 3.64799 34.2484 3.64799 33.744C3.64799 33.2397 4.05566 32.832 4.56 32.832H44.688C45.1923 32.832 45.6 33.2397 45.6 33.744C45.6 34.2484 45.1923 34.656 44.688 34.656Z" fill="#1F1F1F"/>
<path d="M44.688 34.656C44.1837 34.656 43.776 34.2484 43.776 33.744C43.776 33.2397 44.1837 32.832 44.688 32.832C46.1965 32.832 47.424 31.6045 47.424 30.096C47.424 29.5917 47.8317 29.184 48.336 29.184C48.8404 29.184 49.248 29.5917 49.248 30.096C49.248 32.6104 47.2024 34.656 44.688 34.656Z" fill="#1F1F1F"/>
<path d="M48.336 31.008C47.8317 31.008 47.424 30.6004 47.424 30.096V28.272C47.424 27.7677 47.8317 27.36 48.336 27.36C48.8403 27.36 49.248 27.7677 49.248 28.272V30.096C49.248 30.6004 48.8403 31.008 48.336 31.008Z" fill="#1F1F1F"/>
<path d="M0.912 31.008C0.407664 31.008 0 30.6004 0 30.096V28.272C0 27.7677 0.407664 27.36 0.912 27.36C1.41634 27.36 1.824 27.7677 1.824 28.272V30.096C1.824 30.6004 1.41634 31.008 0.912 31.008Z" fill="#1F1F1F"/>
<path d="M30.096 31.008H19.152C18.6477 31.008 18.24 30.6004 18.24 30.096C18.24 29.5917 18.6477 29.184 19.152 29.184H30.096C30.6003 29.184 31.008 29.5917 31.008 30.096C31.008 30.6004 30.6003 31.008 30.096 31.008Z" fill="#1F1F1F"/>
<path d="M30.0969 31.008C29.8023 31.008 29.5123 30.8658 29.3372 30.6022C29.0572 30.1827 29.1703 29.6172 29.5898 29.3372L32.3258 27.5132C32.7454 27.2342 33.3117 27.3473 33.5908 27.7659C33.8708 28.1854 33.7577 28.7508 33.3382 29.0308L30.6022 30.8548C30.4462 30.9579 30.2702 31.008 30.0969 31.008Z" fill="#1F1F1F"/>
<path d="M19.1511 31.008C18.9778 31.008 18.8018 30.9579 18.6458 30.8548L15.9098 29.0308C15.4903 28.7508 15.3772 28.1854 15.6572 27.7659C15.9363 27.3473 16.5008 27.2342 16.9221 27.5132L19.6581 29.3372C20.0777 29.6172 20.1908 30.1827 19.9108 30.6022C19.7357 30.8658 19.4457 31.008 19.1511 31.008Z" fill="#1F1F1F"/>
<path d="M16.416 29.184H0.912C0.407664 29.184 0 28.7764 0 28.272C0 27.7677 0.407664 27.36 0.912 27.36H16.416C16.9203 27.36 17.328 27.7677 17.328 28.272C17.328 28.7764 16.9203 29.184 16.416 29.184Z" fill="#1F1F1F"/>
</svg>
