<svg width="35" height="39" viewBox="0 0 35 39" fill="none" xmlns="http://www.w3.org/2000/svg">
<circle cx="20" cy="25" r="13" fill="#FFCF24"/>
<path d="M7.801 8.44996H22.101C22.2734 8.44996 22.4387 8.38148 22.5606 8.25958C22.6825 8.13768 22.751 7.97235 22.751 7.79996C22.751 7.62757 22.6825 7.46224 22.5606 7.34034C22.4387 7.21845 22.2734 7.14996 22.101 7.14996H7.801C7.62861 7.14996 7.46328 7.21845 7.34138 7.34034C7.21948 7.46224 7.151 7.62757 7.151 7.79996C7.151 7.97235 7.21948 8.13768 7.34138 8.25958C7.46328 8.38148 7.62861 8.44996 7.801 8.44996Z" fill="#1F1F1F"/>
<path d="M7.801 12.35H22.101C22.2734 12.35 22.4387 12.2815 22.5606 12.1596C22.6825 12.0377 22.751 11.8724 22.751 11.7C22.751 11.5276 22.6825 11.3623 22.5606 11.2404C22.4387 11.1185 22.2734 11.05 22.101 11.05H7.801C7.62861 11.05 7.46328 11.1185 7.34138 11.2404C7.21948 11.3623 7.151 11.5276 7.151 11.7C7.151 11.8724 7.21948 12.0377 7.34138 12.1596C7.46328 12.2815 7.62861 12.35 7.801 12.35Z" fill="#1F1F1F"/>
<path d="M7.801 16.25H22.101C22.2734 16.25 22.4387 16.1815 22.5606 16.0596C22.6825 15.9377 22.751 15.7724 22.751 15.6C22.751 15.4276 22.6825 15.2623 22.5606 15.1404C22.4387 15.0185 22.2734 14.95 22.101 14.95H7.801C7.62861 14.95 7.46328 15.0185 7.34138 15.1404C7.21948 15.2623 7.151 15.4276 7.151 15.6C7.151 15.7724 7.21948 15.9377 7.34138 16.0596C7.46328 16.1815 7.62861 16.25 7.801 16.25Z" fill="#1F1F1F"/>
<path d="M7.801 20.15H22.101C22.2734 20.15 22.4387 20.0815 22.5606 19.9596C22.6825 19.8377 22.751 19.6724 22.751 19.5C22.751 19.3276 22.6825 19.1623 22.5606 19.0404C22.4387 18.9185 22.2734 18.85 22.101 18.85H7.801C7.62861 18.85 7.46328 18.9185 7.34138 19.0404C7.21948 19.1623 7.151 19.3276 7.151 19.5C7.151 19.6724 7.21948 19.8377 7.34138 19.9596C7.46328 20.0815 7.62861 20.15 7.801 20.15Z" fill="#1F1F1F"/>
<path d="M7.801 24.05H13.001C13.1734 24.05 13.3387 23.9815 13.4606 23.8596C13.5825 23.7377 13.651 23.5724 13.651 23.4C13.651 23.2276 13.5825 23.0623 13.4606 22.9404C13.3387 22.8185 13.1734 22.75 13.001 22.75H7.801C7.62861 22.75 7.46328 22.8185 7.34138 22.9404C7.21948 23.0623 7.151 23.2276 7.151 23.4C7.151 23.5724 7.21948 23.7377 7.34138 23.8596C7.46328 23.9815 7.62861 24.05 7.801 24.05Z" fill="#1F1F1F"/>
<path d="M33.4867 15.3575C33.0404 15.0965 32.5088 15.0233 32.0085 15.1538C31.5083 15.2844 31.0802 15.6081 30.8184 16.0539L29.251 18.7281V2.6C29.251 2.42761 29.1825 2.26228 29.0606 2.14038C28.9387 2.01848 28.7734 1.95 28.601 1.95H23.6702C23.6702 1.95 21.7172 -0.039 21.639 0.02795C21.578 0.00944305 21.5147 2.51199e-05 21.451 0H2.60099C2.4286 0 2.26327 0.0684819 2.14137 0.19038C2.01947 0.312279 1.95099 0.477609 1.95099 0.65V2.68231C1.39266 2.82623 0.898005 3.15167 0.544832 3.60743C0.191658 4.06319 0 4.62341 0 5.2C0 5.77658 0.191658 6.33681 0.544832 6.79257C0.898005 7.24833 1.39266 7.57376 1.95099 7.71769V9.1823C1.39266 9.32623 0.898005 9.65167 0.544832 10.1074C0.191658 10.5632 0 11.1234 0 11.7C0 12.2766 0.191658 12.8368 0.544832 13.2926C0.898005 13.7483 1.39266 14.0738 1.95099 14.2177V15.6823C1.39266 15.8262 0.898005 16.1517 0.544832 16.6074C0.191658 17.0632 0 17.6234 0 18.2C0 18.7766 0.191658 19.3368 0.544832 19.7926C0.898005 20.2483 1.39266 20.5738 1.95099 20.7177V21.5323C1.39266 21.6762 0.898005 22.0017 0.544832 22.4574C0.191658 22.9132 0 23.4734 0 24.05C0 24.6266 0.191658 25.1868 0.544832 25.6426C0.898005 26.0983 1.39266 26.4238 1.95099 26.5677V30.55C1.95099 30.7224 2.01947 30.8877 2.14137 31.0096C2.26327 31.1315 2.4286 31.2 2.60099 31.2H3.25099V33.15C3.25099 33.3224 3.31947 33.4877 3.44137 33.6096C3.56327 33.7315 3.7286 33.8 3.90099 33.8H20.4185L19.973 34.56C19.9332 34.6282 19.9061 34.7031 19.8933 34.7811C19.8927 34.7848 19.8916 34.788 19.8911 34.7918L19.8894 34.8025V34.8049L19.3694 38.2531C19.3501 38.3816 19.3697 38.5129 19.4256 38.6301C19.4816 38.7474 19.5715 38.8451 19.6835 38.9108C19.7956 38.9765 19.9248 39.0071 20.0544 38.9986C20.1841 38.9902 20.3082 38.9431 20.4108 38.8634L23.1756 36.7169C23.3527 36.5793 23.4393 36.4951 23.4255 36.3822L24.9387 33.8H28.601C28.7734 33.8 28.9387 33.7315 29.0606 33.6096C29.1825 33.4877 29.251 33.3224 29.251 33.15V26.4418L34.1829 18.0257C34.4438 17.5794 34.517 17.0479 34.3865 16.5477C34.256 16.0474 33.9324 15.6194 33.4867 15.3575ZM32.3366 16.4109C32.461 16.3784 32.5922 16.3836 32.7137 16.4257C32.8352 16.4678 32.9414 16.545 33.019 16.6475C33.0966 16.75 33.142 16.8732 33.1496 17.0015C33.1572 17.1299 33.1265 17.2576 33.0615 17.3685L32.7329 17.9291L31.6116 17.2718L31.9404 16.7112C31.9833 16.6374 32.0404 16.5729 32.1084 16.5213C32.1764 16.4698 32.254 16.4322 32.3366 16.4109ZM22.5448 35.3138L21.4235 34.6565L29.9681 20.076L31.0893 20.7333L22.5448 35.3138ZM22.101 2.21926L24.4317 4.55H22.101V2.21926ZM30.6254 18.9543L30.954 18.3937L32.0756 19.051L31.747 19.6116L30.6254 18.9543ZM27.951 3.25V20.8C27.951 20.8422 27.9552 20.8842 27.9633 20.9256L26.651 23.165V5.2C26.6511 5.11477 26.6344 5.03037 26.6018 4.95161C26.5692 4.87285 26.5214 4.80129 26.4612 4.74102L26.4606 4.74037L24.9702 3.25H27.951ZM3.25099 1.3H20.801V5.2C20.801 5.37239 20.8695 5.53772 20.9914 5.65962C21.1133 5.78152 21.2786 5.85 21.451 5.85H25.351V25.3833L22.704 29.9H3.25099V26.5678C3.70098 26.4519 4.11166 26.2174 4.44022 25.8888C4.76877 25.5602 5.00318 25.1495 5.119 24.6995C5.16197 24.5325 5.13684 24.3553 5.04913 24.2068C4.96143 24.0583 4.81833 23.9508 4.65133 23.9078C4.56864 23.8865 4.48256 23.8818 4.39803 23.8937C4.31349 23.9057 4.23214 23.9342 4.15862 23.9777C4.01015 24.0654 3.9026 24.2085 3.85963 24.3755C3.81656 24.5426 3.74053 24.6995 3.63601 24.8368C3.5315 24.9742 3.40059 25.0892 3.25099 25.1753V20.7178C3.70098 20.6019 4.11166 20.3674 4.44022 20.0388C4.76877 19.7102 5.00318 19.2995 5.119 18.8495C5.16197 18.6825 5.13684 18.5053 5.04913 18.3568C4.96143 18.2083 4.81833 18.1008 4.65133 18.0578C4.48433 18.0148 4.30709 18.04 4.15862 18.1277C4.01015 18.2154 3.9026 18.3585 3.85963 18.5255C3.81656 18.6926 3.74053 18.8495 3.63601 18.9868C3.5315 19.1242 3.40059 19.2392 3.25099 19.3253V14.2178C3.70098 14.1019 4.11166 13.8674 4.44022 13.5388C4.76877 13.2102 5.00318 12.7995 5.119 12.3495C5.16197 12.1825 5.13684 12.0053 5.04913 11.8568C4.96143 11.7083 4.81833 11.6008 4.65133 11.5578C4.48433 11.5148 4.30709 11.54 4.15862 11.6277C4.01015 11.7154 3.9026 11.8585 3.85963 12.0255C3.81656 12.1926 3.74053 12.3495 3.63601 12.4868C3.5315 12.6242 3.40059 12.7392 3.25099 12.8253V7.71777C3.70098 7.60189 4.11166 7.36743 4.44022 7.03883C4.76877 6.71023 5.00318 6.29952 5.119 5.84951C5.16197 5.68251 5.13684 5.50527 5.04913 5.3568C4.96143 5.20833 4.81833 5.10078 4.65133 5.05781C4.48433 5.01484 4.30709 5.03998 4.15862 5.12768C4.01015 5.21539 3.9026 5.35848 3.85963 5.52549C3.81656 5.69262 3.74053 5.84946 3.63601 5.98681C3.5315 6.12416 3.40059 6.23925 3.25099 6.32531V1.3ZM1.30099 5.2C1.30129 4.9721 1.3615 4.74828 1.47559 4.55098C1.58967 4.35369 1.75362 4.18986 1.95099 4.0759V6.32409C1.75362 6.21014 1.58967 6.04631 1.47559 5.84901C1.3615 5.65172 1.30129 5.4279 1.30099 5.2ZM1.30099 11.7C1.30129 11.4721 1.3615 11.2483 1.47559 11.051C1.58967 10.8537 1.75362 10.6899 1.95099 10.5759V12.8241C1.75362 12.7101 1.58967 12.5463 1.47559 12.349C1.3615 12.1517 1.30129 11.9279 1.30099 11.7ZM1.30099 18.2C1.30129 17.9721 1.3615 17.7483 1.47559 17.551C1.58967 17.3537 1.75362 17.1899 1.95099 17.0759V19.3241C1.75362 19.2101 1.58967 19.0463 1.47559 18.849C1.3615 18.6517 1.30129 18.4279 1.30099 18.2ZM1.30099 24.05C1.30129 23.8221 1.3615 23.5983 1.47559 23.401C1.58967 23.2037 1.75362 23.0399 1.95099 22.9259V25.1741C1.75362 25.0601 1.58967 24.8963 1.47559 24.699C1.3615 24.5017 1.30129 24.2779 1.30099 24.05ZM4.55099 32.5V31.2H21.9421L21.1803 32.5H4.55099ZM21.0334 35.9349L21.62 36.2787L20.8969 36.84L21.0334 35.9349ZM27.951 32.5H25.7004L27.951 28.66V32.5Z" fill="#1F1F1F"/>
</svg>
