<svg width="47" height="39" viewBox="0 0 47 39" fill="none" xmlns="http://www.w3.org/2000/svg">
<circle cx="18" cy="26" r="13" fill="#FFCF24"/>
<path d="M41.153 10.1106C41.1594 10.1106 41.1652 10.107 41.171 10.107C43.9492 10.0969 46.2068 7.83422 46.2068 5.05387C46.2068 2.26774 43.9391 0 41.153 0H5.05387C2.26774 0 0 2.26774 0 5.05387C0 7.83422 2.25764 10.0962 5.03582 10.107C5.04232 10.107 5.0481 10.1106 5.05387 10.1106H10.1099V11.5531H5.05459H5.05387C2.26774 11.5531 0 13.8209 0 16.607C0 19.3874 2.25836 21.6501 5.03654 21.6602C5.04304 21.6602 5.04882 21.6638 5.05459 21.6638H10.1099V38.278C10.1099 38.6773 10.4326 39 10.8319 39H33.9324C34.0176 39 34.097 38.9791 34.1728 38.9516C34.1829 38.948 34.193 38.9495 34.2032 38.9459C34.297 38.9076 34.38 38.8505 34.4501 38.7791L38.7755 34.4537C38.8426 34.3873 38.8953 34.3071 38.9321 34.2183C38.969 34.1302 38.9877 34.0364 38.9877 33.9425V21.6616H41.153C43.9391 21.6616 46.2068 19.3939 46.2068 16.6077C46.2068 13.8216 43.9391 11.5539 41.153 11.5539H38.9877V10.1114H41.153V10.1106ZM37.5438 33.2198H33.931C33.5317 33.2198 33.209 33.5425 33.209 33.9418V37.556H11.5539V10.115H37.5438V33.2198ZM34.653 34.6638H36.5229L34.653 36.5337V34.6638ZM1.44396 16.607C1.44396 14.6165 3.06337 12.9971 5.05387 12.9971C7.04437 12.9971 8.66378 14.6165 8.66378 16.607C8.66378 18.5975 7.04437 20.2169 5.05387 20.2169C3.06337 20.2169 1.44396 18.5975 1.44396 16.607ZM8.58075 20.2198C9.52149 19.3015 10.1077 18.0221 10.1077 16.607C10.1077 15.1934 9.52222 13.9148 8.58436 12.9971H10.1099V20.2198H8.58075ZM41.153 12.9971C43.1435 12.9971 44.7629 14.6165 44.7629 16.607C44.7629 18.5975 43.1435 20.2169 41.153 20.2169H38.9877V12.9971H41.153ZM41.153 1.44396C43.1435 1.44396 44.7629 3.06337 44.7629 5.05387C44.7629 7.04437 43.1435 8.66378 41.153 8.66378C41.1479 8.66378 41.1436 8.66667 41.1385 8.66667H8.58075C9.52149 7.74831 10.1077 6.46896 10.1077 5.05387C10.1077 3.64023 9.52222 2.3616 8.58436 1.44396H41.153ZM1.44396 5.05387C1.44396 3.06337 3.06337 1.44396 5.05387 1.44396C7.04437 1.44396 8.66378 3.06337 8.66378 5.05387C8.66378 7.04437 7.04437 8.66378 5.05387 8.66378C3.06337 8.66378 1.44396 7.04437 1.44396 5.05387Z" fill="#1F1F1F"/>
<path d="M7.21983 16.607C7.21983 15.4128 6.24804 14.441 5.05388 14.441C3.85973 14.441 2.88794 15.4128 2.88794 16.607C2.88794 17.8011 3.85973 18.7729 5.05388 18.7729C6.24804 18.7729 7.21983 17.8011 7.21983 16.607ZM4.3319 16.607C4.3319 16.2085 4.65535 15.885 5.05388 15.885C5.45242 15.885 5.77587 16.2085 5.77587 16.607C5.77587 17.0055 5.45242 17.329 5.05388 17.329C4.65535 17.329 4.3319 17.0055 4.3319 16.607Z" fill="#1F1F1F"/>
<path d="M7.21983 5.05675C7.21983 3.8626 6.24804 2.89081 5.05388 2.89081C3.85973 2.89081 2.88794 3.8626 2.88794 5.05675C2.88794 6.25091 3.85973 7.2227 5.05388 7.2227C6.24804 7.2227 7.21983 6.25091 7.21983 5.05675ZM4.3319 5.05675C4.3319 4.65822 4.65535 4.33477 5.05388 4.33477C5.45242 4.33477 5.77587 4.65822 5.77587 5.05675C5.77587 5.45529 5.45242 5.77873 5.05388 5.77873C4.65535 5.77873 4.3319 5.45529 4.3319 5.05675Z" fill="#1F1F1F"/>
<path d="M15.9074 28.371C15.9219 28.4158 15.9392 28.4555 15.9608 28.4966C15.9818 28.5363 16.0063 28.5717 16.0359 28.6071C16.0677 28.6461 16.1023 28.6793 16.1413 28.711C16.1608 28.7262 16.1724 28.7479 16.1933 28.7616C16.2164 28.7767 16.2431 28.7832 16.2684 28.7955C16.2915 28.8078 16.3132 28.8186 16.3377 28.828C16.4186 28.8576 16.503 28.8778 16.5868 28.8778H16.5875H33.9151C33.944 28.8778 33.9678 28.8641 33.9959 28.8619C34.0458 28.8562 34.0956 28.8482 34.1439 28.8323C34.1844 28.8179 34.2198 28.8006 34.2566 28.7804C34.2725 28.7717 34.2898 28.7681 34.3049 28.7587C34.3201 28.7493 34.3266 28.7342 34.341 28.724C34.3909 28.6858 34.4349 28.6446 34.4746 28.5941C34.4963 28.5659 34.5158 28.5378 34.5331 28.5067C34.5591 28.4612 34.5793 28.4143 34.5952 28.3631C34.6089 28.319 34.6168 28.2757 34.6219 28.2295C34.6248 28.2042 34.6371 28.1826 34.6371 28.1558C34.6371 28.1349 34.6262 28.1169 34.6248 28.0966C34.6212 28.0454 34.6096 27.9963 34.5945 27.9457C34.5815 27.9039 34.5677 27.8656 34.5483 27.8266C34.5367 27.8057 34.5353 27.7811 34.5223 27.7602L28.0244 17.6633C28.023 17.6604 28.0201 17.6597 28.0179 17.6568C27.9912 17.6156 27.9493 17.5846 27.9132 17.5499C27.8808 17.5174 27.8526 17.4792 27.8143 17.4539C27.8114 17.4517 27.81 17.4489 27.8071 17.4467C27.7753 17.4265 27.7385 17.4221 27.7053 17.407C27.6555 17.3846 27.6078 17.3586 27.5551 17.3485C27.5075 17.3384 27.4598 17.3449 27.4122 17.3449C27.3674 17.3449 27.3234 17.3391 27.2786 17.3478C27.2223 17.3593 27.1718 17.386 27.1191 17.4099C27.088 17.4243 27.0548 17.4272 27.0252 17.4467C27.0223 17.4481 27.0209 17.4517 27.018 17.4532C26.979 17.4792 26.9501 17.5189 26.9155 17.5528C26.8808 17.5875 26.8404 17.6171 26.8144 17.6575C26.8129 17.6597 26.8093 17.6611 26.8079 17.664L23.4269 22.9171L21.8833 20.5433C21.8818 20.5411 21.8796 20.5404 21.8782 20.5382C21.8529 20.4992 21.8125 20.4711 21.7793 20.4371C21.7446 20.4025 21.715 20.3621 21.6753 20.3353C21.6732 20.3339 21.6724 20.3317 21.6703 20.3303C21.6399 20.3108 21.6053 20.3065 21.5735 20.292C21.5215 20.2682 21.471 20.24 21.4154 20.2292C21.3692 20.2198 21.323 20.2263 21.2768 20.2263C21.2306 20.2263 21.1844 20.2198 21.1382 20.2292C21.0833 20.24 21.0328 20.2682 20.9815 20.2913C20.949 20.3065 20.9136 20.3101 20.8833 20.3303C20.8811 20.3317 20.8804 20.3339 20.8783 20.3353C20.8385 20.3613 20.8104 20.4018 20.7757 20.4357C20.7418 20.4704 20.7014 20.4985 20.6754 20.5382C20.6739 20.5404 20.6718 20.5411 20.6703 20.5433L15.9774 27.7631C15.9652 27.7811 15.9645 27.8021 15.9551 27.8208C15.932 27.8634 15.9161 27.9068 15.9024 27.9537C15.8879 28.0013 15.8778 28.0483 15.8735 28.0966C15.872 28.1176 15.8612 28.1356 15.8612 28.1566C15.8612 28.1818 15.8735 28.2028 15.8756 28.228C15.8836 28.2764 15.893 28.3233 15.9074 28.371ZM24.0196 24.6665C24.0275 24.6557 24.034 24.6448 24.0405 24.6333L27.4165 19.3874L32.5946 27.4339H22.2385L24.0196 24.6665ZM20.5216 27.4339H17.9174L21.2797 22.2616L22.5713 24.2485L20.5216 27.4339Z" fill="#1F1F1F"/>
<path d="M18.0322 18.7578C19.2264 18.7578 20.1982 17.786 20.1982 16.5918C20.1982 15.3977 19.2264 14.4259 18.0322 14.4259C16.8381 14.4259 15.8663 15.3977 15.8663 16.5918C15.8663 17.786 16.8373 18.7578 18.0322 18.7578ZM18.0322 15.8699C18.4308 15.8699 18.7542 16.1933 18.7542 16.5918C18.7542 16.9904 18.4308 17.3138 18.0322 17.3138C17.6337 17.3138 17.3102 16.9904 17.3102 16.5918C17.3102 16.1933 17.6337 15.8699 18.0322 15.8699Z" fill="#1F1F1F"/>
</svg>
