<svg width="42" height="42" viewBox="0 0 42 42" fill="none" xmlns="http://www.w3.org/2000/svg">
<circle cx="18" cy="26" r="13" fill="#FFCF24"/>
<path d="M34.3 4.9H30.7958C29.2929 1.7815 27.1439 0 24.85 0C22.5442 0 20.3847 1.8004 18.8811 4.9497C14.9716 5.446 11.9 9.94 11.9 15.4C11.8551 17.9726 12.5984 20.4973 14.0301 22.6352C13.2332 23.7187 12.6465 24.9419 12.3004 26.2416C12.1387 26.8625 12.0204 27.4967 11.9007 28.1106C11.7607 28.8526 11.6207 29.5603 11.4184 30.2442C5.6581 30.758 0 32.7194 0 36.05C0 39.4422 6.3196 42 14.7 42C23.0804 42 29.4 39.4422 29.4 36.05C29.4 33.1303 24.6253 30.7776 17.71 30.226C17.7751 29.7514 17.8626 29.2726 17.9508 28.8001L18.0117 28.4753C18.1724 27.5743 18.4034 26.6872 18.7026 25.8223C18.9992 25.8716 19.2993 25.8976 19.6 25.9H34.3C38.5455 25.9 42 21.1897 42 15.4C42 9.6103 38.5455 4.9 34.3 4.9ZM24.85 1.4C26.446 1.4 28.007 2.66 29.2257 4.9H20.4757C21.693 2.66 23.254 1.4 24.85 1.4ZM19.6 6.3C23.0741 6.3 25.9 10.3824 25.9 15.4C25.9 20.4176 23.0741 24.5 19.6 24.5C19.488 24.5 19.376 24.4958 19.2647 24.4867C19.2794 24.4573 19.2941 24.4279 19.3095 24.3985C19.7381 23.6539 20.3791 23.0541 21.1505 22.6758C21.6573 22.3851 22.1078 22.0058 22.4805 21.5558C22.5035 21.5339 22.525 21.5105 22.5449 21.4858C22.669 21.3365 22.7878 21.1799 22.9012 21.0161C23.7397 19.7545 24.2576 18.3072 24.4097 16.8V16.7888C24.4705 16.3284 24.5006 15.8644 24.5 15.4C24.5 10.794 21.9667 7.7 19.6 7.7C17.2333 7.7 14.7 10.794 14.7 15.4C14.6705 17.1774 15.1066 18.9316 15.9649 20.4883C15.886 20.5597 15.8081 20.6313 15.7311 20.7032C15.6667 20.7634 15.6051 20.8236 15.5421 20.8845C15.372 21.0497 15.2082 21.2163 15.0521 21.3864C15.0171 21.4235 14.9779 21.4564 14.9436 21.497C13.8416 19.6561 13.2725 17.5453 13.3 15.4C13.3 10.3824 16.1259 6.3 19.6 6.3ZM17.0758 19.6C16.4113 18.3011 16.0762 16.8588 16.1 15.4C16.1 11.4968 18.1384 9.1 19.6 9.1C21.0616 9.1 23.1 11.4968 23.1 15.4C23.1011 15.811 23.0747 16.2217 23.0209 16.6292C23.0041 16.7755 22.9684 16.9127 22.9453 17.0555C22.7248 17.1297 22.5099 17.2025 22.2726 17.2795C20.434 17.7888 18.6823 18.571 17.0758 19.6ZM28 36.05C28 38.2018 22.54 40.6 14.7 40.6C6.86 40.6 1.4 38.2018 1.4 36.05C1.4 34.3609 4.9049 32.354 10.8367 31.7044C10.7933 31.7849 10.7555 31.871 10.7093 31.9487C10.1526 33.0403 8.99637 33.6924 7.7742 33.6042C7.58923 33.5823 7.40323 33.6358 7.2583 33.7528C7.11337 33.8699 7.02176 34.0404 7.0042 34.2258C6.96337 34.61 7.24159 34.9547 7.6258 34.9958C7.78131 35.0128 7.93765 35.0213 8.0941 35.021C9.70258 34.9904 11.1668 34.0863 11.9147 32.662C12.2003 32.176 12.4338 31.6612 12.6112 31.1262V31.1213C12.8967 30.223 13.1182 29.3055 13.2741 28.3759C13.3917 27.7571 13.503 27.1733 13.6535 26.5972C13.9933 25.3108 14.6006 24.1106 15.4357 23.0748C15.9954 22.3747 16.6268 21.7349 17.3194 21.1659C18.8909 20.0181 20.6607 19.1702 22.54 18.6648C22.5246 18.7061 22.5155 18.753 22.4994 18.7936C22.4833 18.8342 22.4602 18.8734 22.4427 18.9161C22.3329 19.1947 22.2057 19.4661 22.0619 19.7288C21.9961 19.8457 21.9149 19.9437 21.8428 20.0536C21.7364 20.2174 21.6328 20.3889 21.518 20.5359L21.5096 20.5443L21.5019 20.5527C21.4877 20.5662 21.4741 20.5805 21.4613 20.5954C21.187 20.9396 20.8511 21.2299 20.4708 21.4515C19.4569 21.9601 18.6196 22.7621 18.0677 23.7531C17.906 24.0625 17.752 24.3992 17.6078 24.7541C17.1677 25.8734 16.8427 27.0347 16.6376 28.2198L16.5774 28.5418C16.1774 30.0575 16.125 31.644 16.4241 33.1828C16.7145 34.3344 17.5606 35.2651 18.6795 35.6636C19.0468 35.7858 19.4435 35.5871 19.5657 35.2198C19.6879 34.8525 19.4892 34.4558 19.1219 34.3336C18.45 34.0781 17.9463 33.5091 17.7744 32.8111C17.6733 32.4224 17.6211 32.0227 17.619 31.6211C24.0457 32.1426 28 34.2818 28 36.05ZM34.3 24.5H23.4248C25.7369 22.6863 27.3 19.2906 27.3 15.4C27.3 11.5094 25.7369 8.1137 23.4248 6.3H29.8851C30.7904 8.58173 31.3147 10.9967 31.437 13.4484C30.4783 13.8166 29.9245 14.8222 30.1258 15.8292C30.3272 16.8363 31.225 17.5516 32.2516 17.5229C33.2782 17.4941 34.1346 16.7297 34.2793 15.7129C34.424 14.6962 33.8148 13.7232 32.837 13.4092C32.7146 10.9809 32.2293 8.58456 31.3971 6.3H34.3C37.7741 6.3 40.6 10.3824 40.6 15.4C40.6 20.4176 37.7741 24.5 34.3 24.5ZM32.2 14.7C32.5866 14.7 32.9 15.0134 32.9 15.4C32.9 15.7866 32.5866 16.1 32.2 16.1C31.8134 16.1 31.5 15.7866 31.5 15.4C31.5 15.0134 31.8134 14.7 32.2 14.7Z" fill="#1F1F1F"/>
<path d="M15.323 37.8042C9.36882 38.4657 5.99202 36.5183 5.95842 36.4987C5.62718 36.306 5.20257 36.4155 5.00577 36.7443C4.80898 37.0731 4.91316 37.4991 5.23952 37.6999C5.36902 37.7776 8.04302 39.3435 12.8611 39.3435C13.7351 39.3427 14.6085 39.2934 15.477 39.1958C15.7256 39.1683 15.9406 39.0103 16.0411 38.7813C16.1416 38.5522 16.1122 38.287 15.9641 38.0855C15.816 37.8839 15.5716 37.7767 15.323 37.8042Z" fill="#1F1F1F"/>
</svg>
