<svg xmlns="http://www.w3.org/2000/svg" viewBox="0 0 27.87 39.21"><defs><style>.cls-1{fill:#ffd634;}</style></defs><g id="Layer_2" data-name="Layer 2"><g id="Layer_2-2" data-name="Layer 2"><path class="cls-1" d="M5.66,8.65a.94.94,0,0,0,.72.92L23.3,13.5a.92.92,0,0,0,1-.5l3.44-6.95a.94.94,0,0,0-.63-1.32L6.89,0A.92.92,0,0,0,6.11.2a.9.9,0,0,0-.36.72ZM26.23,6l-3,6L7.09,8.27l.08-6.72Z"/><path class="cls-1" d="M23.44,27.36,22.29,15a.91.91,0,0,0-.71-.82L7.63,10.92a.94.94,0,0,0-1,.42L.14,21.94a.93.93,0,0,0-.05.9L7.78,38.69a1,1,0,0,0,.63.5A.94.94,0,0,0,9.19,39L23.08,28.18A.91.91,0,0,0,23.44,27.36ZM9.69,36.82l1.88-8.09A4.82,4.82,0,0,0,16.69,25a.71.71,0,0,0-.53-.86l-1.55-.36-.32,1.39.78.18a3.43,3.43,0,0,1-3.8,1.89l-.06,0a3.41,3.41,0,1,1,3.76-5l1.25-.68a4.81,4.81,0,0,0-2.81-2.29,4.84,4.84,0,0,0-3.22,9.11L8.3,36.5l-6.81-14L7.65,12.39l13.26,3.08L22,27.22Z"/></g></g></svg>