<svg version="1" xmlns="http://www.w3.org/2000/svg" width="1664" height="1664" viewBox="0 0 1248.000000 1248.000000"><path d="M382 2.3c-9.2 4.4-16.3 13.5-17.4 22.2-.2 2.2-.5 4-.6 4 0 0-.2 17.3-.5 38.5-.2 21.2-.7 63.2-1.1 93.5-.4 30.2-.7 70.3-.8 89-.1 33.1 0 34.1 2.1 38.6 1.8 3.6 11.2 13.9 12.8 13.9.2 0 1.6.5 3.2 1.2 1.5.6 3.7 1.3 4.8 1.4 1.6.3 4.2 1 7.5 1.9.3.1 2.5.5 5 1 5 1 4.9 1 7 1.7.8.3 4.2 1.2 7.5 1.9s6.5 1.4 7 1.5c2 .5 6.1 1.5 10.5 2.4 2.5.6 8 1.8 12.2 2.9 4.3 1 8 1.6 8.3 1.3.3-.3.5 0 .5.7s.4 1 .9.7c.4-.3 3.5.1 6.7 1 3.3.9 6.8 1.7 7.9 1.9 1.1.3 4 .9 6.5 1.5s5.6 1.3 7 1.6c1.4.2 3.3.7 4.2 1 1 .3 2.8.7 4 1 2.2.4 3.5.7 10.8 2.4 1.9.5 7.6 1.8 12.5 2.9 5 1.1 12.8 3 17.5 4.1 18.2 4.3 26.6 6.2 28.5 6.5 1.1.2 2.2.4 2.5.6.3.1 1 .3 1.5.4l1.5.5c.3.1 1.3.3 2.2.5.9.2 5.9 1.3 11 2.5 9.5 2.2 11.5 2.7 14.6 3.4.9.2 15.7 3.6 32.7 7.6 17.1 3.9 31.7 7.3 32.5 7.5.8.1 3.4.8 5.8 1.4 2.3.7 4.7.9 5.2.6.6-.3 1-.2 1 .3 0 .6 1.7 1.3 3.8 1.6 5.5.9 7.1 1.2 14.2 3.1 3.6.9 7.6 1.9 9 2.2 1.4.2 4.3.9 6.5 1.4 2.2.5 5.1 1.2 6.5 1.5 1.4.3 5 1.1 8 1.9 3 .8 6.6 1.6 8 1.9 4.9 1 10.6 2.2 13.8 3 4.7 1.2 24 5.7 26.2 6.2 1.4.3 5.2 1.2 8.5 2.1 3.3.8 6.9 1.7 8 1.8 1.1.2 3.1.6 4.5 1 1.4.3 3.6.8 5 1.1 1.4.3 3.3.7 4.2 1 .9.3 2.5.7 3.5.9 1 .2 5.6 1.3 10.3 2.4 4.7 1.1 9.7 2.2 11 2.4 1.4.3 6.3 1.5 11 2.7 4.7 1.2 9.9 2.4 11.5 2.7 2.5.4 25.8 5.8 34.5 8 1.4.3 3.4.8 4.5 1 1.1.2 3.8.8 6 1.4 4.2 1.2 6.5 1.7 10.5 2.5 1.4.3 8.4 1.9 15.5 3.6 7.2 1.7 14.4 3 16 2.9 9.8-.4 15.5-2.8 21.6-9.2 2.5-2.6 8.4-13.4 18.3-33.4 8-16.3 14.6-30 14.6-30.5 0-.6.5-1 1-1 .6 0 1-.4 1-1 0-.5 9.7-20.5 21.5-44.5 11.8-23.9 21.4-43.6 21.2-43.8-.1-.1.7-1.6 1.8-3.2 1.2-1.7 3.4-5.9 5-9.5 1.6-3.6 3.5-7.2 4.2-8.1.7-.8 1.3-2 1.3-2.5 0-1.2 5.3-11.7 6.3-12.5.5-.3.9-1 .9-1.5s4.1-9.2 9.1-19.4 9.2-18.8 9.3-19.3c.1-.4.2-.8.4-1 .8-1 1.3-5.2 1.3-10.8.1-14.6-10.7-26.6-26.3-29.3-1.4-.2-5.4-1.2-9-2.1-3.6-1-7.3-1.8-8.2-1.7-1 0-1.8-.2-1.8-.6 0-.4-1-.8-2.2-.8-1.3-.1-3.2-.4-4.3-.7-3.3-.9-22.1-5.4-39-9.2-3.8-.9-7.9-1.9-9-2.1-1.1-.3-3.1-.7-4.5-1-2.2-.5-16.1-3.8-37.5-8.9-3.3-.8-7.1-1.6-8.5-1.9-1.4-.2-4.5-.9-7-1.6-2.5-.7-5.6-1.4-7-1.7-1.4-.2-4.3-.9-6.5-1.5-3.7-.9-4.9-1.2-10-2.3-1.1-.3-3.1-.7-4.5-1.1-1.4-.3-3.4-.7-4.5-.9-1.1-.2-5.3-1.3-9.3-2.4-4-1-7.5-2-7.7-2-.3-.1-.6-.1-.7-.2-.2 0-1.2-.2-2.3-.4-1.9-.3-4-.8-9-2-1.1-.2-6-1.3-11-2.5-4.9-1.1-9.7-2.2-10.5-2.4-3.2-.9-15.6-3.8-17.5-4.1-1.1-.1-2.7-.5-3.5-.8-1.6-.6-5.9-1.6-9.8-2.3-1.3-.3-6-1.4-10.5-2.5s-8.9-2.2-9.7-2.4c-1.5-.3-30-6.9-37-8.5-4.7-1.1-20.9-4.9-24-5.6-1.4-.3-3.2-.7-4-.9-.8-.2-1.5-.4-1.5-.5 0-.2-1.6-.5-5.8-1.3-1.5-.3-3.5-.8-4.5-1.1-.9-.3-2.8-.7-4.2-1-1.4-.3-3.4-.7-4.5-1-1.1-.2-5.1-1.2-9-2.1-8.3-2-11.5-2.7-13.5-2.9-.8 0-1.7-.4-2-.7-.3-.4-2.3-.9-4.5-1.2-2.2-.3-7.8-1.5-12.5-2.7-4.7-1.2-9.6-2.4-11-2.6-1.4-.3-6.8-1.6-12-2.9-5.2-1.3-10.8-2.6-12.5-2.9-1.6-.3-7.5-1.7-13-3-10.1-2.5-14.7-3.6-17.5-4-.8-.1-2.4-.5-3.5-.9-1.1-.3-3.1-.8-4.5-1.1-1.4-.2-9.2-2.1-17.5-4.1-23.4-5.6-26.8-6.4-30-7-6.1-1.2-7.9-1.6-8.5-2-.4-.2-2.2-.7-4.1-1-1.9-.3-4.2-.8-5.1-1.1-1.7-.5-4.7-1.2-8.3-2-1.1-.2-4.9-1.1-8.5-1.9-3.6-.9-7.8-1.8-9.5-2.1-1.6-.3-3.8-1-4.7-1.5-1-.5-1.8-.8-1.8-.5 0 .3-1.5 0-3.2-.5-1.8-.5-4.4-1.1-5.8-1.4-4.8-.9-6.5-1.3-12.5-2.8-3.3-.9-7.1-1.8-8.5-2.1-1.4-.2-7.4-1.6-13.5-3.1-6-1.5-12-2.9-13.3-3.1-1.3-.3-6-1.3-10.5-2.4-11-2.7-20.8-2.6-26.7.3zm35.5 49c1.7.3 5.7 1.3 9 2.1 5.5 1.4 40.1 9.4 43.5 10.1 2 .4 26.1 6 39 9.1 5.8 1.4 11.3 2.6 12.3 2.7.9.1 1.7.5 1.7 1 0 .4.4.6.8.3.5-.3 2.4-.1 4.3.4s4.5 1.1 5.9 1.4c1.4.3 3.4.7 4.5 1 5.3 1.4 11.2 2.8 13.5 3.2 1.4.3 3.9.9 5.5 1.4 1.7.5 4.1 1.1 5.5 1.3 1.4.2 3.2.6 4 .9 1.3.5 12.6 3.1 18.5 4.2 1.1.3 7.6 1.8 14.5 3.4 12.8 3.1 18.6 4.4 19.5 4.3.2 0 1.9.5 3.7 1 1.8.6 4.4 1.2 5.8 1.5 2.3.4 23.9 5.5 30 7.1 1.4.3 3 .7 3.6.9.7.1 4.5 1 8.5 1.9 4.1 1 8.3 1.9 9.4 2 1.1.2 2.1.4 2.3.5.3.3.7.4 7.7 1.9 3.3.7 7.4 1.7 9.1 2.2 1.7.5 4.2 1.2 5.5 1.4 4.4.9 7.5 1.6 18.9 4.3 4.7 1.1 10.1 2.4 12 2.8 4.7 1.1 5 1.1 5.3 1.4.1.1 1.1.3 2.2.5 3.5.5 16.9 3.6 19.5 4.5 1.4.5 3.9 1.1 5.5 1.4 3.5.5 25.3 5.5 27.5 6.3.8.3 2.4.7 3.5.9 1.1.1 7 1.4 13 2.9 6.1 1.5 12.1 2.9 13.5 3.1 1.4.3 7.9 1.9 14.5 3.5s13.1 3.2 14.5 3.4c1.4.2 4.3.9 6.5 1.4 2.2.5 8.2 1.9 13.3 3 5.1 1.1 9.7 2.3 10.1 2.5.4.3 2.3.8 4.2 1.1 1.9.3 4.2.8 5.1 1.1 2.2.6 5.8 1.5 8.3 1.9 1.8.3 16.6 3.7 22.5 5.2 1.4.4 3.2.8 4 .9 1.3.2 19.7 4.5 31.5 7.5 2.2.5 5.1 1.2 6.5 1.5 2.4.5 8.7 2 12 2.8 1.3.4 17.6 4.1 22.3 5.1 1 .2 2.6.6 3.5.9 2.3.7 7.4 1.7 9 1.8 1.5.1.7 4.9-1 5.9-.5.3-.9.9-.8 1.3.2 1-14.2 30-15.3 30.7-.5.3-.8.9-.7 1.3.2.9-39 79.7-40.6 81.6-.7.8-1.2 1.9-1.2 2.3 0 .5-7.5 16-16.8 34.5-9.2 18.5-16.8 33.8-16.9 33.9 0 .1-3.9-.7-8.5-1.8-4.7-1.1-9.6-2.2-11-2.5-1.4-.3-6.1-1.4-10.5-2.4-4.4-1.1-9.1-2.1-10.5-2.4-2.3-.4-7.8-1.7-33.5-7.8-4.9-1.2-9.4-2.3-10-2.3-.5-.1-2.1-.4-3.5-.8-1.4-.5-3.8-1-5.5-1.2-1.6-.2-3-.4-3-.5 0-.1-.7-.3-1.5-.5-.8-.1-3.3-.8-5.5-1.3-2.2-.6-5.5-1.4-7.4-1.7-1.9-.3-3.8-.8-4.2-1.1-.4-.2-2.9-.9-5.6-1.4-4.7-.9-7.5-1.5-11-2.4-2.1-.6-14.7-3.4-18.2-4.2-1.3-.3-5.1-1.2-8.5-2-3.4-.8-7.2-1.7-8.6-2-1.4-.3-6.1-1.4-10.5-2.4-4.4-1.1-9.1-2.1-10.5-2.4-1.4-.2-2.5-.5-2.5-.6 0-.1-1.1-.4-2.4-.6-1.4-.2-5-1.1-8-1.9-3.1-.7-7.3-1.6-9.5-1.9-2.1-.4-4.1-.8-4.5-1.1-.4-.2-1.8-.6-3.2-.8-1.3-.3-4.2-1-6.4-1.5-2.2-.6-5.2-1.4-6.7-1.7-6.7-1.3-8.2-1.6-8.9-2-.4-.3-2.4-.7-4.5-1-2.2-.3-4.6-.8-5.4-1.2-.8-.3-5.3-1.4-10-2.4-4.7-1.1-9.4-2.2-10.5-2.5-1.1-.3-2.9-.6-4-.8-1.1-.2-3.8-.8-6-1.4-2.2-.6-5.1-1.3-6.5-1.6-1.4-.2-5.4-1.1-9-2-3.6-.8-7.6-1.7-9-2-1.4-.2-3.2-.7-4-1-.8-.3-2.6-.7-4-1-1.4-.2-4.4-.9-6.8-1.5-2.4-.7-5.5-1.4-7-1.6-1.5-.2-6.5-1.4-11.2-2.6-4.7-1.1-9.6-2.2-11-2.4-1.4-.2-2.6-.4-2.7-.5-.2-.1-.7-.4-1.3-.5-.5-.1-1.1-.4-1.2-.5-.2-.1-1.4-.3-2.8-.5-1.4-.1-4.5-.8-7-1.5s-5.2-1.4-6.1-1.5c-.9-.2-3.4-.8-5.5-1.4-2.1-.6-4-.8-4.2-.6-.3.2-1.2 0-2.1-.4-.9-.5-2.9-1.1-4.6-1.5-1.6-.3-5.7-1.2-9.1-2-3.4-.8-7.2-1.7-8.5-2-1.3-.2-3.1-.7-3.9-1-.8-.3-2.8-.7-4.5-1-1.6-.3-3.9-.7-5-1-1.1-.2-5.1-1.2-9-2.1-3.8-.9-12.6-2.9-19.4-4.6-6.8-1.6-13.4-3.1-14.5-3.4-1.2-.2-2.1-.4-2.1-.5 0-.1-1.2-.3-2.6-.5-1.4-.2-4.5-.9-7-1.5-2.4-.7-5.2-1.4-6.2-1.6-1-.2-2.6-.5-3.5-.8-.9-.3-3-.8-4.7-1.1-3.8-.8-6-1.3-6-1.5 0-.1-1.1-.3-2.5-.5s-6.3-1.3-10.9-2.4c-4.6-1.2-8.4-2.1-8.5-2.1 0 0 0-3 .1-6.7.2-7.5 1-75.8 1.9-154.8.4-36 .9-51.2 1.7-51.7.6-.3 1.8-.3 2.6.2.9.4 3 1 4.6 1.3zM409.5 347.9c-9.1 2.3-13.8 6.9-24 23.7-4.3 7.1-8.1 13.1-8.5 13.4-.3.3-1.1 1.6-1.8 3s-2.3 4.3-3.7 6.5c-1.4 2.2-3.1 5-3.7 6.2-.6 1.3-1.5 2.3-2 2.3-.4 0-.8.6-.8 1.4 0 .8-.6 2.1-1.2 2.8-.7.7-2 2.6-2.8 4.3-.8 1.6-1.7 3.2-2 3.5-.3.3-3.6 5.4-7.2 11.5-12 20-31.7 52-32.6 53-.5.6-1.1 1.5-1.3 2-.5 1.3-6 10.4-11.1 18.5-2.2 3.6-4.9 8.1-6 10-1.1 1.9-3.2 5.3-4.7 7.5-1.4 2.2-3.5 5.7-4.6 7.7-1.1 2.1-2.3 3.8-2.7 3.8-.5 0-.8.4-.8.9 0 .8-15.5 26.5-23.5 39.1-1.2 1.9-7.5 12.3-14 23-14.2 23.4-17.1 28.1-18.5 29.7-.5.7-1 1.5-1 1.8 0 .3-1.6 3.1-3.5 6.1-1.9 3-3.5 5.8-3.5 6.3s-.7 1.4-1.6 2.1c-.8.8-2.2 2.7-3 4.4-.8 1.7-2.7 5.1-4.4 7.6-1.6 2.5-3.5 5.6-4.2 7-.7 1.4-1.5 2.7-1.9 3-.3.3-.9 1.2-1.2 2-.4.8-2.7 4.5-5 8.2-21 33.6-23.2 38.7-21 49.2 1.2 5.5 2.8 9.1 22.1 48.6 6 12.4 13.6 28.1 16.9 35 3.4 6.9 10.2 21 15.3 31.5 5.1 10.4 13 26.9 17.7 36.5 4.7 9.6 11.3 23.1 14.6 30 3.4 6.9 6.1 12.8 5.9 13.2-.1.5.3.8.8.8.6 0 1 .5 1 1 0 .6 3.8 8.8 8.4 18.3 14.3 29.3 29.5 60.7 29.6 61.2.1.2 4 8.1 8.6 17.5s8.4 17.5 8.4 18c0 .6.5 1 1 1 .6 0 .9.3.8.8-.2.4 2.6 6.5 6.1 13.7 3.6 7.1 6.5 13.2 6.6 13.5.1.6 6.1 12.9 17.4 36 4.5 9.1 8.1 17 8.1 17.7 0 .7.5 1.3 1 1.3.6 0 1 .5 1 1 0 .9 4.6 10.6 26.3 55 2.3 4.7 4.2 8.7 4.2 9 .1.3.7 1.6 1.5 3s1.5 2.7 1.5 3c.1.3 5.3 11.2 11.7 24.2 12.5 25.5 16.1 30.5 24.5 34.8 6.1 3.2 17.6 3.4 23.8.5 3.5-1.7 24.4-17 27-19.9.6-.6 2.6-2.2 4.5-3.5 1.9-1.3 4.2-3 5-3.8.8-.8 6-4.8 11.5-9s10.2-8 10.3-8.5c.2-.4.8-.8 1.4-.8.5 0 1.5-.6 2.2-1.3.7-.6 2.8-2.3 4.6-3.7 5.2-3.9 11.3-8.8 13.7-11 1.2-1.1 2.7-2 3.2-2s1.1-.4 1.3-.8c.2-.5 3.3-3.1 7-5.9 3.7-2.8 7.3-5.6 8-6.2.7-.6 3.8-3 6.8-5.3 3-2.4 5.7-4.5 6-4.8.3-.3 3.2-2.5 6.5-5 3.3-2.4 6.6-5 7.5-5.7.8-.7 6.5-5.1 12.5-9.8 6.1-4.6 12.1-9.4 13.5-10.5 4.6-3.7 19.6-15.5 23-18 4.1-3.1 33-25.6 35-27.3.8-.7 3.3-2.6 5.5-4.2s4.2-3.2 4.5-3.5c.3-.4 6.6-5.3 14-11s14.1-11 14.8-11.7c.7-.7 1.7-1.3 2-1.3.4 0 1.8-1 3.2-2.3 1.4-1.2 8.6-7 16-12.7 7.4-5.7 14.1-10.9 14.8-11.5.7-.5 2.2-1.8 3.3-2.7 1-1 2.3-1.8 2.8-1.8s1.1-.4 1.3-.8c.2-.4 6.4-5.5 13.8-11.2 7.4-5.8 14.2-11 15-11.7 3-2.4 13.8-10.9 17-13.3 8.4-6.4 10.6-8 12-9.3.8-.7 6.5-5.1 12.5-9.7 6.1-4.6 11.2-8.7 11.5-9 1.3-1.3 9.9-8 10.4-8 .3 0 1.4-.8 2.4-1.8 3.8-3.6 7.2-6.2 7.2-5.4 0 .4.4.2.8-.4.6-1 15.3-12.5 47.2-37.3 2.4-1.9 5.4-4.3 9.6-7.9 1.2-1 3.4-4 5-6.7 2.6-4.6 2.9-5.8 2.9-15 0-5.5-.4-13.4-.9-17.5-.4-4.1-1-10.2-1.2-13.5-.1-3.3-.4-6-.5-6-.1 0-.3-1.6-.4-3.5-.2-1.9-.5-6-.9-9-.3-3-.8-8.4-1.1-12-.6-6.4-.8-9.1-1.9-20-.3-3-.8-8.2-1.1-11.5-.3-3.3-.7-7.8-1-10-.3-2.2-.7-7.2-1-11-.3-3.9-.7-8.8-.9-11-.2-2.2-.7-6.9-1-10.5-.9-10.1-2.6-27.3-3.2-33.5-.2-2.2-.6-6.7-.9-10-.2-3.3-.7-8.4-1-11.3-1.3-13.1-1.6-16.1-2-22.2-.3-3.6-.7-7.9-.9-9.5-.3-1.7-.7-6.4-1.1-10.5-.3-4.1-.9-9.8-1.2-12.5-.3-2.8-.6-6.6-.8-8.5-.9-11.5-1.6-19.1-2.1-23.5-.2-2.8-.6-7.5-.9-10.5-.2-3-.6-7.1-.9-9-.3-1.9-.8-6.9-1.1-11-.3-4.1-.8-9.4-1.1-11.8-.3-2.3-.7-6.8-.9-10-.3-3.1-.7-7.7-.9-10.2-.3-2.5-.7-7.4-1-11-.3-3.6-.7-8.1-1-10-.3-1.9-.8-6.9-1.1-11-.3-4.1-.7-9.5-1-12-.2-2.5-.7-6.8-.9-9.5-.8-8.9-3.4-15.1-8.8-20.4-2.8-2.8-9.8-6.9-13.3-7.7-1.9-.5-14-3.3-21-4.9-3.8-.9-7.9-1.8-9-2.1-1.1-.3-3.1-.7-4.4-1-1.3-.3-5.1-1.2-8.5-2-3.4-.8-6.9-1.7-7.8-1.9-.9-.2-9.7-2.2-19.5-4.5s-18.5-4.3-19.3-4.5c-2.5-.5-23.3-5.5-26-6.2-3.5-.9-4.1-1-7.5-1.6-1.6-.3-5.7-1.2-9-2.1-3.3-.8-7.3-1.8-9-2.2-1.6-.4-3.4-.8-4-1-1.5-.3-6.8-1.5-9-1.9-1.1-.3-4.7-1.1-8-1.9-3.3-.8-8.9-2.1-12.5-2.9-3.6-.9-10.3-2.5-15-3.6-4.7-1.1-9.6-2.3-11-2.5-1.4-.3-2.5-.5-2.5-.6 0-.1-1-.3-2.2-.6-1.2-.2-7.1-1.6-13-3s-11.7-2.8-12.8-3c-2.2-.4-5.5-1.2-8.2-1.8-1-.3-4.9-1.2-8.8-2.2-3.8-.9-7.9-1.8-9-2-1.1-.1-2.2-.3-2.5-.5-.3-.1-.9-.3-1.5-.4-.5-.2-1.2-.4-1.5-.5-.3-.1-1.6-.3-2.9-.6-1.3-.2-5.8-1.3-10-2.4-4.2-1-8.7-2.1-10.1-2.4-4.1-.8-6.3-1.3-10.5-2.4-2.2-.6-5.1-1.3-6.5-1.6-1.4-.3-3.4-.7-4.5-1-1.1-.2-4.2-1-7-1.6-2.7-.6-6.1-1.4-7.5-1.6-1.4-.3-4.1-.9-6-1.4-1.9-.5-3.7-1-4-1-.3-.1-2.3-.5-4.5-1.1-2.2-.5-5.1-1.2-6.5-1.5-1.4-.3-4.3-1-6.5-1.6-4.2-1.1-6.5-1.6-10.5-2.4-1.4-.3-5-1.1-8-1.9-3-.8-6.6-1.6-8-1.9-1.4-.3-5.4-1.3-9-2.1-3.6-.9-7.8-1.8-9.5-2.1-1.6-.3-5.1-1.2-7.7-1.9-2.7-.8-4.8-1.2-4.8-1 0 .3-1.1 0-2.6-.5-1.4-.6-3.7-1.2-5.2-1.5-4.8-.9-6.6-1.3-10.7-2.3-2.2-.6-5.1-1.3-6.5-1.6-1.4-.2-3.2-.7-4-1-5.2-1.9-18.6-2.9-23.5-1.7zm19.6 47.7c1.9.3 4.3.8 5.4.9 1.1.2 2 .4 2 .5 0 .2.9.4 2 .6 3.6.5 7.8 1.5 8.6 1.9.4.3 4 1.2 8 2.1 4.1.8 8.1 1.7 8.9 1.9 1.3.4 12 2.8 17.3 4 1 .2 2.6.6 3.5.9.9.3 2.8.8 4.2 1 1.4.3 4.5 1 7 1.6 2.5.6 5.6 1.3 7 1.6 1.4.3 6.1 1.4 10.5 2.4 4.4 1.1 9.1 2.2 10.5 2.5 1.4.2 5.2 1.1 8.5 1.9 3.3.7 13.9 3.2 23.5 5.5 9.6 2.2 18.4 4.2 19.5 4.4 1.1.2 2.7.6 3.5.9 1.3.5 17.6 4.3 22.1 5.2.8.2 2.8.6 4.4 1 9.9 2.3 16.2 3.8 18 4.2 1.1.2 2.9.6 4 .9 5.9 1.4 11.2 2.6 13 2.9 2 .4 16.5 3.8 24 5.7 2.2.5 4.9 1.2 6 1.4 1.1.2 4.9 1.2 8.5 2 3.6.9 7.6 1.9 9 2.1 5.4 1 6.5 1.2 6.5 1.4 0 .2 3.4 1 5.5 1.4 1.4.2 5.1 1.1 30.5 7.1 10.5 2.6 12.4 3 17 3.9 2.8.6 16 3.7 37 8.6 9.9 2.4 19.8 4.7 22 5.1 7.1 1.6 8.7 2 14.9 3.5 10.1 2.5 11.2 2.7 18.9 4.2 2.6.5 5 1.2 5.3 1.5.6.6 1.2 3.9 1.9 11.2.3 3.3.7 7.6.9 9.5.3 1.9.7 6.4 1 10 .3 3.6.8 9.9 1.1 14 .3 4.1.8 9.1 1.1 11 .3 1.9.7 6.4.9 10 .3 3.6.7 8.3 1 10.5.3 2.2.8 7.1 1.1 11 .3 3.8.7 8.8.9 11 .2 2.2.6 6.9 1 10.5.3 3.6.8 8.5 1.1 11 .5 4.5 1.1 11.1 1.9 20.5.2 2.7.6 7.5.9 10.5l1.1 11c.3 3 .8 8.3 1 11.7.3 3.5.7 8 1 10 .3 2.1.8 7.2 1 11.3.4 6.8.8 10.7 2 21 .4 3.5 1.5 15.3 2 22 .1 1.9.5 6.4.9 10 .7 6.5 1.1 11.4 2.1 22.5.3 3.3.7 7.6 1 9.5.2 1.9.7 7.1 1 11.5.3 4.4.9 9.5 1.2 11.4.2 1.9.6 6.7.8 10.5.2 3.9.5 7.1.6 7.1.1 0 .3 2.2.4 5 .2 2.7.4 5 .5 5 .1 0 .3 1.8.4 4 .2 2.2.7 7.4 1.1 11.5.4 4.1.9 9.1 1.1 11 .1 1.9.5 6.7.8 10.5l.6 7-14.2 11c-7.8 6.1-15.3 12-16.7 13.2-4.5 4-5.1 4.4-5.1 3.9 0-.3-1.7 1.1-3.7 2.9-2.1 1.9-4.1 3.5-4.6 3.5-.4 0-1.5.8-2.5 1.8-4.1 3.9-7.1 6-7.6 5.5-.3-.4-.6-.2-.6.4 0 .5-2.1 2.4-4.6 4.2-2.5 1.8-5.7 4.4-7.2 5.7-4.5 4-5.2 4.5-5.2 3.9 0-.3-1.7 1.1-3.7 3s-4.1 3.5-4.5 3.5c-.4 0-1.8 1.1-3.2 2.5-1.4 1.4-2.9 2.5-3.5 2.5-.5 0-1.1.4-1.3.8-.1.4-6.4 5.5-13.8 11.2-7.4 5.7-14 10.9-14.6 11.5-3.1 2.8-5.5 4.5-6.3 4.5-.5 0-1.1.4-1.3.8-.1.5-4.3 4-9.3 7.8-4.9 3.7-9.2 7.1-9.5 7.4-.3.3-2.1 1.7-4.2 3.2-2 1.5-4.3 3.5-5.2 4.4-.9.8-1.6 1.3-1.6 1 0-.3-.8.2-1.8 1.1-3.7 3.6-7.2 6.3-8.1 6.3-.5 0-1.1.3-1.3.8-.1.4-2.3 2.3-4.8 4.2-2.5 1.9-5.2 4-6 4.7-1.7 1.4-30 23.4-31.5 24.5-.9.7-11.2 8.8-14 11.1-.5.4-5.9 4.6-12 9.2-6 4.7-12.2 9.6-13.8 11-1.5 1.4-3.1 2.5-3.6 2.5-.4 0-1.9 1-3.2 2.3-1.3 1.3-6.4 5.5-11.4 9.2-4.9 3.8-9.2 7.2-9.5 7.5-.3.3-2.1 1.7-4 3s-4.2 3.2-5.1 4.2c-.9 1-2 1.8-2.3 1.8-.9 0-11 8.2-11.4 9.2-.2.5-1 .8-1.8.8s-1.4.4-1.4.8c0 .5-2.1 2.4-4.7 4.2-2.7 1.9-5.3 3.9-5.9 4.5-3.2 2.8-5.5 4.5-6.3 4.5-.5 0-1.1.3-1.3.8-.1.4-3.4 3.2-7.3 6.2-3.8 3-7.5 5.9-8.2 6.5-1.4 1.1-3 2.4-14.9 11.7-4.5 3.5-9.3 7.2-10.8 8.3-2.7 1.9-4.3 3.2-8.3 6.5-1 .9-4.5 3.6-7.8 6-3.3 2.5-6.4 5-7 5.6-.5.6-2.5 2.1-4.3 3.4l-3.4 2.2.6-2.8c.2-1.6.7-3.8 1-4.9 1.6-7 2.8-12.3 3.2-14.4.3-1.3.9-3.2 1.4-4.1.5-1 .7-1.9.5-2.2-.2-.2 0-2.1.6-4.2s1.2-4.6 1.4-5.5c.4-1.8 5.4-23.6 6.1-26.3 1.2-5.1 1.5-6.5 2-8.8.2-1.4.7-3.2 1-4 .3-.8.7-2.6.9-4 .2-1.4 1.7-8.1 3.4-15 1.6-6.9 3.2-13.6 3.4-15 .3-1.4 1.5-6.3 2.7-11 1.2-4.7 2.4-9.5 2.6-10.8.7-4.1 1.3-6.6 4-17.7 1.5-6.1 2.8-11.9 2.9-13 .2-1.1.4-2 .5-2 .1 0 .3-.8.5-1.7.4-2.2 3.9-17.2 7.6-32.6 1.6-6.8 3.1-13.1 3.3-14 .1-.9.6-2.8.9-4.2 1.8-7.4 3.9-16.6 4.3-18.3.2-1 .6-2.8 1-3.9.3-1.1.8-3 .9-4.1.5-2.7 1.3-6.2 1.5-6.2.1 0 .3-1 .4-2.2.2-1.3.5-2.5.8-2.8.3-.3 7.7-.7 16.4-.9 8.8-.2 16.9-.6 18-.9 1.2-.3 3.8-.8 5.8-1.1 16.5-2.6 43.3-12.8 53.2-20.3 1.7-1.3 3.5-2.3 4.1-2.3.5 0 1.8-.8 2.9-1.8 1-.9 4.4-3.6 7.4-5.8 10.6-8 24.2-22.4 32.1-33.9 1.8-2.8 3.3-5.3 3.1-5.8-.1-.4.2-.7.7-.7 1 0 9-15.5 12.1-23.5 1.2-3.3 2.9-7.5 3.7-9.3.8-1.9 1.2-3.6.9-3.9-.3-.3 0-1.5.5-2.6 2.8-5.2 3.1-16.7.5-21.9-3.3-6.8-10.6-12.1-18.4-13.4-4.4-.7-12.6-2.5-14.2-3.1-1.8-.7-2.6-.9-6.5-1.6-2.9-.6-4.7-1-9.7-2.3-1.3-.3-3.2-.7-4.3-.9-1.1-.1-4-.8-6.4-1.5-4.4-1.2-5.9-.6-6.2 2.5 0 .5-.2 1.7-.4 2.5-.6 2.6-2.4 10.6-2.9 13.5-.2 1.1-.9 4-1.6 6.5-1.9 7.2-2.8 11.6-3.3 16.4-.2 1.9 1.7 2.8 8.3 4 1.4.3 3.6.7 5 1 1.4.3 4 .9 5.8 1.2 4.4.8 4.6 1.6 2.2 6.5-6.7 13-21.1 28.9-34.6 37.9-7.1 4.8-18.5 10.8-23.6 12.5-1.3.4-2.7.9-3.3 1.1-3.3 1.2-17.8 4.5-22.5 5-12.7 1.6-30.6 0-43-3.6-2.5-.8-4.8-1.3-5.2-1.2-.5.1-.8-.2-.8-.6 0-.5-.6-.9-1.4-.9-3.6 0-30.6-16.2-30.6-18.4 0-.5-.4-.9-.9-.9-1.2 0-9.9-8.7-13.7-13.7-10.4-13.6-19.1-31.6-21-43.9-.9-5.6-1.1-6.3-1.4-6.7-1.2-1.3-1.3-35.2 0-35.2.1 0 .4-1.4.6-3 .3-1.7 1.3-5.5 2.2-8.5.9-3 1.7-5.7 1.7-6 .4-1.5 2.6-6.7 3.5-8.2.6-1 1-2.2 1-2.8 0-1.4 10.3-18 12.9-20.7 1.2-1.2 2.1-2.4 2.1-2.6 0-.7 8.9-9.5 13.6-13.6 6.9-5.9 19.7-13.8 22.8-13.9.5 0 1.2-.5 1.5-1 .8-1.3 17.7-7.3 22.1-7.8 1.9-.2 4.6-.6 6-1 5.1-1.4 27.5-1.3 35 .1 16.2 3 31.1 9 44 17.8 9.8 6.7 21.6 18.8 27.9 28.5 3.6 5.6 6.1 8.2 6.1 6.3 0-.7.4-1 .9-.6.5.3 1.2.1 1.5-.4.3-.5 2.3-1.8 4.3-2.9 2.1-1 6.5-3.4 9.8-5.2 3.3-1.8 8.9-4.8 12.5-6.7 7.4-3.9 10.2-6.3 8.3-7-.7-.3-1.3-.9-1.3-1.4 0-1-9.3-15.3-11.4-17.6-.6-.6-4-4.4-7.6-8.5-3.6-4.1-8.9-9.4-11.9-11.9-2.9-2.4-5.9-4.9-6.6-5.6-.6-.6-5.2-3.8-10.1-7.1-16.5-11-37.2-19.6-52.3-21.8-1.9-.2-3.7-.6-4.1-.9-1.4-.9-16.1-1.9-27-1.8-10.4 0-15 .4-24.5 1.8-4.7.7-15.5 3.4-21 5.2-2.7 1-5.2 1.8-5.5 1.8-.3.1-1.8.7-3.3 1.3-1.6.7-3.1 1.2-3.3 1.2-.9 0-15.7 7.3-18.4 9-17 11-21.3 14.4-33 26.1-12.4 12.5-26.3 33.5-31.6 47.6-1 2.7-2 5.2-2.4 5.8-.4.5-1.3 3.2-2 6-.7 2.7-1.6 5.4-1.9 6-.3.5-.6 1.4-.7 2-.1.5-.5 2.3-.9 4-3.1 14.7-3.8 20.4-3.8 34.5 0 8.5.3 17.3.6 19.5.3 2.2.9 5.8 1.2 8 .4 2.2 1.1 5.8 1.6 8 .6 2.2 1.2 4.7 1.3 5.5.2.8.5 2.2.8 3 .3.8 1.1 3.3 1.8 5.5 1.9 6.1 3.6 10.1 9.6 22 8.7 17.4 20.4 32.7 34.9 45.3 3.3 2.9 6.7 5.9 7.6 6.7.9.8 2.1 1.5 2.7 1.5.5 0 1.2.4 1.4.9.5 1.4 12 8.5 21.3 13.2 7.3 3.6 8.6 4.6 8.2 6.4-.4 2-7.5 32.6-8.2 35.5-.2.8-1.3 5.8-2.5 11-1.1 5.2-3.2 13.8-4.4 19-3.8 15.3-7.1 29.3-8.2 35-.3 1.4-1.6 7-2.9 12.5-1.4 5.5-2.7 11.1-2.9 12.5-.3 1.4-.5 2.5-.6 2.5-.1 0-.3.9-.5 1.9-.3 1.6-3.4 15-4.1 17.8-.1.5-.2 1-.3 1.3 0 .3-.1.7-.2 1 0 .2-.7 3.3-1.6 6.7-.8 3.5-1.6 7-1.8 7.8-.2.8-1.2 5.4-2.4 10.1-1.2 4.8-2.1 9.6-2.1 10.8 0 1.1-.4 2.1-.8 2.1s-.9 1.1-1 2.4c-.1 1.3-1.1 6.3-2.3 11.2-1.1 4.9-2.3 10-2.5 11.4-.3 1.4-1.1 4.7-1.9 7.5-.7 2.7-1.6 6.6-2 8.5-.6 3.8-1.3 6.5-1.5 6.5-.1 0-.4 1.1-.6 2.5-1 5.2-1.3 6.5-1.5 6.7-.3.5-.6 1.6-1.4 6.1-.4 2.3-1.2 4.5-1.8 4.9-.6.3-.7.1-.3-.5.4-.7.2-1.2-.3-1.2-.6 0-1.1-.4-1.1-.9s-3.6-8.3-8-17.4c-4.4-9-8-16.9-8-17.5 0-.7-.3-1.2-.8-1.2-.4 0-1.4-1.5-2.1-3.3-1.7-3.8-15.5-32.3-29.1-60.2-5.4-11-13.5-27.7-18-37-4.6-9.4-12.5-25.8-17.8-36.5-5.2-10.7-13.4-27.6-18.2-37.5-4.8-9.9-13.1-27-18.5-38-17.5-36-28.6-58.8-35.7-73.5-3.9-8-9.9-20.2-13.3-27.2-3.5-6.9-6.1-12.9-5.7-13.2.3-.3.1-.6-.5-.6-1 0-2.6-3.5-2.4-5.2 0-.3-.6-1.2-1.4-1.8-.8-.7-1.5-1.6-1.5-2.1 0-.8-9.2-19.9-27.4-57-5.2-10.6-6-12.9-5-14.5 9-14.5 26.4-43.6 26.4-44.3 0-.5.4-1.1.8-1.3.7-.2 5.9-8.5 11.3-17.8.7-1.4 1.7-2.7 2-3 .3-.3.9-1.2 1.3-2 .8-1.9 1.5-3 9.5-16 3.6-5.8 6.8-10.7 7.3-10.8.4-.2.6-.7.3-1.2s.1-1.4.8-2.2c.7-.7 5.3-8 10.2-16.2 5-8.1 10-16.5 11.2-18.5 1.3-2 3.2-5.2 4.3-7.1 1.1-1.9 6.7-11.2 12.5-20.5 5.8-9.4 11.1-18.1 11.8-19.5.6-1.4 1.4-2.7 1.7-3 .3-.3 3.4-5.2 6.9-11 3.5-5.8 7.1-11.6 8.1-13 .9-1.4 2.8-4.5 4.2-7 1.4-2.5 7.8-13 14.2-23.4 6.4-10.3 11.6-19.1 11.6-19.4 0-.3 1.1-1.9 2.4-3.6 1.3-1.7 2.6-4.1 3-5.4.4-1.2 1.2-2.2 1.7-2.2s.9-.4.9-1c0-.5 1.6-3.4 3.5-6.4 1.9-3 3.5-6 3.5-6.6 0-.5.4-1 .9-1s1.6-1.5 2.5-3.3c.9-1.7 2.7-4.8 3.9-6.8 1.2-2 5.3-8.8 9.2-15.2 3.8-6.3 7.3-11.3 7.6-11.1.3.1 2.1.6 4 1z"/></svg>